SplineFontDB: 3.0
FontName: Comme-Heavy
FullName: Comme Heavy
FamilyName: Comme
Weight: Regular
Copyright: Digitized data Copyright (c) 2011-2014, vernon adams.
Version: 2
ItalicAngle: 0
UnderlinePosition: 0
UnderlineWidth: 0
Ascent: 1638
Descent: 410
UFOAscent: 1560
UFODescent: -556
LayerCount: 2
Layer: 0 0 "Back"  1
Layer: 1 0 "Fore"  0
FSType: 0
OS2Version: 0
OS2_WeightWidthSlopeOnly: 0
OS2_UseTypoMetrics: 1
CreationTime: 1392159958
ModificationTime: 1392242526
PfmFamily: 17
TTFWeight: 900
TTFWidth: 5
LineGap: 0
VLineGap: 0
OS2TypoAscent: 2390
OS2TypoAOffset: 0
OS2TypoDescent: -512
OS2TypoDOffset: 0
OS2TypoLinegap: 0
OS2WinAscent: 2390
OS2WinAOffset: 0
OS2WinDescent: 512
OS2WinDOffset: 0
HheadAscent: 2390
HheadAOffset: 0
HheadDescent: -512
HheadDOffset: 0
OS2Vendor: 'NeWT'
Lookup: 4 0 1 "ligaStandardLigatureslookup0"  {"ligaStandardLigatureslookup0 subtable"  } ['liga' ('latn' <'dflt' > 'grek' <'dflt' > 'DFLT' <'dflt' > ) ]
Lookup: 4 0 0 "fracDiagonalFractionslookup11"  {"fracDiagonalFractionslookup11 subtable"  } ['frac' ('latn' <'dflt' 'CAT ' 'MOL ' 'ROM ' 'TRK ' > 'grek' <'dflt' > 'DFLT' <'dflt' > ) ]
Lookup: 6 0 0 "ordnOrdinalslookup12"  {"ordnOrdinalslookup12 contextual 0"  "ordnOrdinalslookup12 contextual 1"  } ['ordn' ('latn' <'dflt' 'CAT ' 'MOL ' 'ROM ' 'TRK ' > 'grek' <'dflt' > 'DFLT' <'dflt' > ) ]
Lookup: 1 0 0 "Single Substitution lookup 3"  {"Single Substitution lookup 3 subtable"  } []
Lookup: 1 0 0 "Single Substitution lookup 4"  {"Single Substitution lookup 4 subtable"  } []
Lookup: 4 0 0 "dligDiscretionaryLigatureslooku"  {"dligDiscretionaryLigatureslooku subtable"  } ['dlig' ('latn' <'dflt' 'CAT ' 'MOL ' 'ROM ' 'TRK ' > 'grek' <'dflt' > 'DFLT' <'dflt' > ) ]
MarkAttachClasses: 1
DEI: 91125
ChainSub2: coverage "ordnOrdinalslookup12 contextual 1"  0 0 0 1
 1 1 0
  Coverage: 3 O o
  BCoverage: 49 zero one two three four five six seven eight nine
 1
  SeqLookup: 0 "Single Substitution lookup 4" 
EndFPST

StartChar: A
Encoding: 33 65 0
Width: 1582
VWidth: 0
GlyphClass: 2
Flags: W
PickledData: "(dp1
S'org.pippin.gimp.org.kernagic'
p2
(dp3
S'lstem'
p4
I0
sS'rstem'
p5
I0
ssS'com.typemytype.robofont.layerData'
p6
(dp7
sS'org.robofab.postScriptHintData'
p8
(dp9
s."
AnchorPoint: "bot" 800 0 basechar 0
AnchorPoint: "top" 802 1456 basechar 0
LayerCount: 2
Fore
SplineSet
515 1456 m 257
 54 0 l 257
 494 0 l 257
 592 335 l 257
 982 335 l 257
 1088 0 l 257
 1528 0 l 257
 1076 1456 l 257
 515 1456 l 257
669 594 m 257
 794 1112 l 257
 912 594 l 257
 669 594 l 257
EndSplineSet
Substitution2: "Single Substitution lookup 3 subtable" ordfeminine
EndChar

StartChar: AE
Encoding: 133 198 1
Width: 2177
VWidth: 0
GlyphClass: 2
Flags: W
PickledData: "(dp1
S'org.pippin.gimp.org.kernagic'
p2
(dp3
S'lstem'
p4
I0
sS'rstem'
p5
I0
ssS'com.typemytype.robofont.layerData'
p6
(dp7
sS'org.robofab.postScriptHintData'
p8
(dp9
s."
LayerCount: 2
Fore
SplineSet
1020 573 m 257
 778 573 l 257
 1020 976 l 257
 1020 573 l 257
974 1456 m 257
 43 0 l 257
 466 0 l 257
 664 327 l 257
 1020 327 l 257
 1020 0 l 257
 2026 0 l 257
 2034 279 l 257
 1344 279 l 257
 1344 593 l 257
 1977 593 l 257
 1977 864 l 257
 1344 864 l 257
 1344 1187 l 257
 1985 1187 l 257
 2009 1456 l 257
 974 1456 l 257
EndSplineSet
EndChar

StartChar: B
Encoding: 34 66 13
Width: 1465
VWidth: 0
GlyphClass: 2
Flags: W
PickledData: "(dp1
S'org.pippin.gimp.org.kernagic'
p2
(dp3
S'lstem'
p4
I0
sS'rstem'
p5
I0
ssS'com.typemytype.robofont.layerData'
p6
(dp7
sS'org.robofab.postScriptHintData'
p8
(dp9
s."
AnchorPoint: "top" 712 1456 basechar 0
LayerCount: 2
Fore
SplineSet
626 5 m 256
 1269 5 1395 164 1395 434 c 256
 1395 646 1298 748 1083 779 c 257
 1252 812 1360 939 1360 1093 c 256
 1360 1420 1063 1468 732 1468 c 256
 643 1468 358 1462 162 1456 c 257
 162 23 l 257
 340 10 496 5 626 5 c 256
598 1204 m 257
 656 1204 l 258
 821 1204 895 1194 895 1033 c 256
 895 932 835 882 719 882 c 258
 598 882 l 257
 598 1204 l 257
598 634 m 257
 714 634 l 258
 871 634 960 630 960 471 c 256
 960 292 850 280 661 280 c 256
 640 280 619 281 598 282 c 257
 598 634 l 257
EndSplineSet
EndChar

StartChar: C
Encoding: 35 67 14
Width: 1641
VWidth: 0
GlyphClass: 2
Flags: W
PickledData: "(dp1
S'org.pippin.gimp.org.kernagic'
p2
(dp3
S'lstem'
p4
I0
sS'rstem'
p5
I0
ssS'com.typemytype.robofont.layerData'
p6
(dp7
sS'org.robofab.postScriptHintData'
p8
(dp9
s."
AnchorPoint: "bot" 882 -1 basechar 0
AnchorPoint: "top" 913 1456 basechar 0
LayerCount: 2
Fore
SplineSet
865 1478 m 256
 377 1478 105 1203 105 734 c 256
 105 249 378 -20 867 -20 c 256
 1389 -20 1495 305 1527 447 c 257
 1206 559 l 257
 1175 559 l 257
 1141 391 1071 269 877 269 c 256
 704 269 573 372 573 734 c 256
 573 1136 747 1186 886 1186 c 256
 1076 1186 1141 1060 1176 894 c 257
 1207 894 l 257
 1528 1005 l 257
 1497 1142 1370 1478 865 1478 c 256
EndSplineSet
EndChar

StartChar: D
Encoding: 36 68 20
Width: 1571
VWidth: 0
GlyphClass: 2
Flags: W
PickledData: "(dp1
S'org.pippin.gimp.org.kernagic'
p2
(dp3
S'lstem'
p4
I0
sS'rstem'
p5
I0
ssS'com.fontlab.hintData'
p6
(dp7
S'vhints'
p8
((dp9
S'position'
p10
I1280
sS'width'
p11
I122
stp12
sS'hhints'
p13
((dp14
g10
I0
sg11
I94
s(dp15
g10
I1355
sg11
I94
stp16
ssS'com.typemytype.robofont.layerData'
p17
(dp18
sS'org.robofab.postScriptHintData'
p19
(dp20
s."
HStem: 0 94 1355 94
VStem: 1280 122
AnchorPoint: "bot" 767 1 basechar 0
AnchorPoint: "top" 831 1456 basechar 0
LayerCount: 2
Fore
SplineSet
162 4 m 257
 280 -7 388 -12 487 -12 c 256
 1247 -12 1466 303 1466 762 c 256
 1466 1306 1192 1468 493 1468 c 256
 392 1468 281 1466 162 1460 c 257
 162 4 l 257
598 300 m 257
 598 1181 l 257
 604 1181 l 258
 1018 1181 1047 964 1047 757 c 256
 1047 467 930 300 606 300 c 258
 598 300 l 257
EndSplineSet
EndChar

StartChar: uni0394
Encoding: 413 916 23
Width: 1334
VWidth: 0
Flags: W
PickledData: "(dp1
S'org.pippin.gimp.org.kernagic'
p2
(dp3
S'lstem'
p4
I0
sS'rstem'
p5
I0
ssS'com.typemytype.robofont.layerData'
p6
(dp7
S'b'
(dp8
S'name'
p9
S'Delta'
p10
sS'lib'
p11
(dp12
sS'unicodes'
p13
(tsS'width'
p14
I1334
sS'contours'
p15
(tsS'components'
p16
(tsS'anchors'
p17
(tsssS'org.robofab.postScriptHintData'
p18
(dp19
s."
LayerCount: 2
Fore
SplineSet
347 229 m 257
 645 1234 l 257
 950 229 l 257
 347 229 l 257
10 0 m 257
 1279 0 l 257
 779 1540 l 257
 513 1540 l 257
 10 0 l 257
EndSplineSet
EndChar

StartChar: E
Encoding: 37 69 24
Width: 1376
VWidth: 0
GlyphClass: 2
Flags: W
PickledData: "(dp1
S'org.pippin.gimp.org.kernagic'
p2
(dp3
S'lstem'
p4
I0
sS'rstem'
p5
I0
ssS'com.typemytype.robofont.layerData'
p6
(dp7
sS'org.robofab.postScriptHintData'
p8
(dp9
s."
AnchorPoint: "bot" 654 0 basechar 0
AnchorPoint: "top" 762 1456 basechar 0
LayerCount: 2
Fore
SplineSet
162 1456 m 257
 162 0 l 257
 1248 0 l 257
 1250 293 l 257
 597 293 l 257
 597 601 l 257
 1199 601 l 257
 1199 885 l 257
 597 885 l 257
 597 1173 l 257
 1206 1173 l 257
 1229 1456 l 257
 162 1456 l 257
EndSplineSet
EndChar

StartChar: Eng
Encoding: 265 330 33
Width: 1672
VWidth: 0
GlyphClass: 2
Flags: W
PickledData: "(dp1
S'org.robofab.postScriptHintData'
p2
(dp3
s."
LayerCount: 2
Fore
SplineSet
1100 1115 m 257
 1100 -22 l 258
 1100 -257 1070 -277 882 -277 c 257
 915 -526 l 257
 1385 -504 1509 -370 1509 -72 c 258
 1509 1115 l 257
 1100 1115 l 257
EndSplineSet
Refer: 69 78 N 1 0 0 1 0 0 2
EndChar

StartChar: Euro
Encoding: 461 8364 36
Width: 1391
VWidth: 0
GlyphClass: 2
Flags: W
PickledData: "(dp1
S'org.pippin.gimp.org.kernagic'
p2
(dp3
S'lstem'
p4
I0
sS'rstem'
p5
I0
ssS'com.typemytype.robofont.layerData'
p6
(dp7
S'b'
(dp8
S'name'
p9
S'Euro'
p10
sS'lib'
p11
(dp12
sS'unicodes'
p13
(tsS'width'
p14
I1391
sS'contours'
p15
(tsS'components'
p16
(tsS'anchors'
p17
(tsssS'org.robofab.postScriptHintData'
p18
(dp19
s."
LayerCount: 2
Fore
SplineSet
-100 526 m 257
 803 526 l 257
 799 690 l 257
 278 690 l 257
 278 797 l 257
 799 797 l 257
 797 963 l 257
 -105 963 l 257
 -103 797 l 257
 76 797 l 257
 76 690 l 257
 -105 690 l 257
 -100 526 l 257
EndSplineSet
Refer: 14 67 N 1 0 0 1 -27 0 2
EndChar

StartChar: F
Encoding: 38 70 37
Width: 1270
VWidth: 0
GlyphClass: 2
Flags: W
PickledData: "(dp1
S'org.pippin.gimp.org.kernagic'
p2
(dp3
S'lstem'
p4
I0
sS'rstem'
p5
I705
ssS'com.typemytype.robofont.layerData'
p6
(dp7
sS'org.robofab.postScriptHintData'
p8
(dp9
s."
AnchorPoint: "top" 724 1456 basechar 0
LayerCount: 2
Fore
SplineSet
162 1456 m 257
 162 0 l 257
 598 0 l 257
 598 568 l 257
 1159 568 l 257
 1159 853 l 257
 598 853 l 257
 598 1159 l 257
 1166 1159 l 257
 1185 1456 l 257
 162 1456 l 257
EndSplineSet
EndChar

StartChar: G
Encoding: 39 71 38
Width: 1629
VWidth: 0
GlyphClass: 2
Flags: W
PickledData: "(dp1
S'org.pippin.gimp.org.kernagic'
p2
(dp3
S'lstem'
p4
I0
sS'rstem'
p5
I0
ssS'com.typemytype.robofont.layerData'
p6
(dp7
sS'org.robofab.postScriptHintData'
p8
(dp9
s."
AnchorPoint: "bot" 746 -1 basechar 0
AnchorPoint: "top" 848 1456 basechar 0
LayerCount: 2
Fore
SplineSet
846 -20 m 256
 1106 -20 1350 36 1481 87 c 257
 1481 805 l 257
 839 805 l 257
 830 566 l 257
 1128 546 l 257
 1128 305 l 257
 1074 283 1002 268 915 268 c 256
 762 268 573 326 573 724 c 256
 573 1067 676 1185 884 1185 c 256
 1051 1185 1114 1069 1160 948 c 257
 1186 948 l 257
 1486 1076 l 257
 1409 1307 1223 1478 841 1478 c 256
 391 1478 105 1211 105 724 c 256
 105 228 401 -20 846 -20 c 256
EndSplineSet
EndChar

StartChar: H
Encoding: 40 72 44
Width: 1610
VWidth: 0
GlyphClass: 2
Flags: W
PickledData: "(dp1
S'org.pippin.gimp.org.kernagic'
p2
(dp3
S'lstem'
p4
I0
sS'rstem'
p5
I0
ssS'com.typemytype.robofont.layerData'
p6
(dp7
sS'org.robofab.postScriptHintData'
p8
(dp9
s."
AnchorPoint: "top" 816 1456 basechar 0
LayerCount: 2
Fore
SplineSet
1012 605 m 257
 1012 0 l 257
 1449 0 l 257
 1449 1456 l 257
 1012 1456 l 257
 1012 885 l 257
 597 885 l 257
 597 1456 l 257
 161 1456 l 257
 161 0 l 257
 597 0 l 257
 597 605 l 257
 1012 605 l 257
EndSplineSet
EndChar

StartChar: Hbar
Encoding: 229 294 45
Width: 1620
VWidth: 0
GlyphClass: 2
Flags: W
PickledData: "(dp1
S'org.pippin.gimp.org.kernagic'
p2
(dp3
S'lstem'
p4
I0
sS'rstem'
p5
I0
ssS'com.typemytype.robofont.layerData'
p6
(dp7
sS'org.robofab.postScriptHintData'
p8
(dp9
s."
LayerCount: 2
Fore
SplineSet
63 1292 m 257
 63 1069 l 257
 1555 1069 l 257
 1555 1292 l 257
 63 1292 l 257
EndSplineSet
Refer: 44 72 N 1 0 0 1 0 0 2
EndChar

StartChar: I
Encoding: 41 73 47
Width: 1075
VWidth: 0
GlyphClass: 2
Flags: W
PickledData: "(dp1
S'org.pippin.gimp.org.kernagic'
p2
(dp3
S'lstem'
p4
I0
sS'rstem'
p5
I0
ssS'com.fontlab.hintData'
p6
(dp7
S'vhints'
p8
((dp9
S'position'
p10
I111
sS'width'
p11
I529
stp12
sS'hhints'
p13
((dp14
g10
I0
sg11
I86
s(dp15
g10
I1363
sg11
I86
stp16
ssS'com.typemytype.robofont.layerData'
p17
(dp18
sS'org.robofab.postScriptHintData'
p19
(dp20
s."
HStem: 0 86 1363 86
VStem: 111 529
AnchorPoint: "top" 542 1456 basechar 0
LayerCount: 2
Fore
SplineSet
98 1456 m 257
 98 1226 l 257
 325 1226 l 257
 325 222 l 257
 98 222 l 257
 98 -7 l 257
 979 -7 l 257
 979 222 l 257
 760 222 l 257
 760 1226 l 257
 979 1226 l 257
 979 1456 l 257
 98 1456 l 257
EndSplineSet
EndChar

StartChar: J
Encoding: 42 74 58
Width: 823
VWidth: 0
GlyphClass: 2
Flags: W
PickledData: "(dp1
S'org.pippin.gimp.org.kernagic'
p2
(dp3
S'lstem'
p4
I132
sS'rstem'
p5
I0
ssS'com.typemytype.robofont.layerData'
p6
(dp7
sS'org.robofab.postScriptHintData'
p8
(dp9
s."
AnchorPoint: "top" 453 1456 basechar 0
LayerCount: 2
Fore
SplineSet
231 1456 m 257
 231 355 l 258
 231 -61 221 -129 104 -188 c 258
 -112 -296 l 257
 42 -632 l 257
 233 -546 l 257
 630 -366 668 -214 668 95 c 256
 668 168 666 250 666 343 c 258
 666 1456 l 257
 231 1456 l 257
EndSplineSet
EndChar

StartChar: K
Encoding: 43 75 60
Width: 1492
VWidth: 0
GlyphClass: 2
Flags: W
PickledData: "(dp1
S'org.pippin.gimp.org.kernagic'
p2
(dp3
S'lstem'
p4
I0
sS'rstem'
p5
I851
ssS'com.typemytype.robofont.layerData'
p6
(dp7
sS'org.robofab.postScriptHintData'
p8
(dp9
s."
AnchorPoint: "bot" 802 0 basechar 0
AnchorPoint: "top" 806 1456 basechar 0
LayerCount: 2
Fore
SplineSet
935 782 m 257
 1428 1456 l 257
 951 1456 l 257
 598 939 l 257
 598 1456 l 257
 162 1456 l 257
 162 0 l 257
 598 0 l 257
 598 517 l 257
 617 545 l 257
 1003 0 l 257
 1489 0 l 257
 1489 3 l 257
 935 782 l 257
1428 1456 m 257
 1430 1459 l 257
 1430 1456 l 257
 1428 1456 l 257
EndSplineSet
EndChar

StartChar: L
Encoding: 44 76 62
Width: 1235
VWidth: 0
GlyphClass: 2
Flags: W
PickledData: "(dp1
S'org.pippin.gimp.org.kernagic'
p2
(dp3
S'lstem'
p4
I0
sS'rstem'
p5
I597
ssS'com.typemytype.robofont.layerData'
p6
(dp7
sS'org.robofab.postScriptHintData'
p8
(dp9
s."
AnchorPoint: "bot" 531 0 basechar 0
AnchorPoint: "top" 352 1456 basechar 0
LayerCount: 2
Fore
SplineSet
162 1456 m 257
 162 0 l 257
 1187 0 l 257
 1212 267 l 257
 598 267 l 257
 598 1456 l 257
 162 1456 l 257
EndSplineSet
EndChar

StartChar: M
Encoding: 45 77 68
Width: 1932
VWidth: 0
GlyphClass: 2
Flags: W
PickledData: "(dp1
S'org.pippin.gimp.org.kernagic'
p2
(dp3
S'lstem'
p4
I0
sS'rstem'
p5
I0
ssS'org.robofab.postScriptHintData'
p6
(dp7
sS'com.typemytype.robofont.guides'
p8
((dp9
S'y'
I378
sS'x'
I548
sS'magnetic'
p10
I5
sS'angle'
p11
I0
sS'isGlobal'
p12
I00
stp13
sS'com.typemytype.robofont.layerData'
p14
(dp15
sS'com.fontlab.hintData'
p16
(dp17
S'vhints'
p18
((dp19
S'position'
p20
I185
sS'width'
p21
I166
s(dp22
g20
I214
sg21
I151
s(dp23
g20
I332
sg21
I33
s(dp24
g20
I1463
sg21
I149
s(dp25
g20
I1463
sg21
I39
s(dp26
g20
I1477
sg21
I164
stp27
ss."
VStem: 185 166 214 151 332 33 1463 149 1463 39 1477 164
AnchorPoint: "top" 964 1456 basechar 0
LayerCount: 2
Fore
SplineSet
144 -7 m 257
 550 -7 l 257
 550 578 l 257
 557 821 l 257
 836 256 l 257
 1085 256 l 257
 1371 824 l 257
 1377 581 l 257
 1377 -7 l 257
 1788 -7 l 257
 1788 661 l 257
 1766 1456 l 257
 1343 1456 l 257
 972 739 l 257
 598 1456 l 257
 166 1456 l 257
 144 651 l 257
 144 -7 l 257
EndSplineSet
EndChar

StartChar: N
Encoding: 46 78 69
Width: 1671
VWidth: 0
GlyphClass: 2
Flags: W
PickledData: "(dp1
S'org.pippin.gimp.org.kernagic'
p2
(dp3
S'lstem'
p4
I0
sS'rstem'
p5
I0
ssS'com.typemytype.robofont.layerData'
p6
(dp7
sS'org.robofab.postScriptHintData'
p8
(dp9
s."
AnchorPoint: "bot" 780 0 basechar 0
AnchorPoint: "top" 754 1456 basechar 0
LayerCount: 2
Fore
SplineSet
1100 1456 m 257
 1100 973 l 257
 1118 607 l 257
 570 1456 l 257
 162 1456 l 257
 162 0 l 257
 582 0 l 257
 582 467 l 257
 565 799 l 257
 1086 0 l 257
 1509 0 l 257
 1509 1456 l 257
 1100 1456 l 257
EndSplineSet
EndChar

StartChar: O
Encoding: 47 79 75
Width: 1673
VWidth: 0
GlyphClass: 2
Flags: W
PickledData: "(dp1
S'org.pippin.gimp.org.kernagic'
p2
(dp3
S'lstem'
p4
I0
sS'rstem'
p5
I0
ssS'org.robofab.postScriptHintData'
p6
(dp7
sS'com.typemytype.robofont.guides'
p8
(tsS'com.typemytype.robofont.layerData'
p9
(dp10
sS'com.fontlab.hintData'
p11
(dp12
S'vhints'
p13
((dp14
S'position'
p15
I150
sS'width'
p16
I122
s(dp17
g15
I1390
sg16
I122
stp18
sS'hhints'
p19
((dp20
g15
I-19
sg16
I96
s(dp21
g15
I1372
sg16
I96
stp22
ss."
HStem: -19 96 1372 96
VStem: 150 122 1390 122
AnchorPoint: "top" 824 1456 basechar 0
LayerCount: 2
Fore
SplineSet
1099 722 m 256
 1099 435 1000 285 839 285 c 256
 677 285 573 434 573 722 c 256
 573 1005 675 1168 838 1168 c 256
 1003 1168 1099 1005 1099 722 c 256
104 723 m 256
 104 241 379 -22 838 -22 c 256
 1301 -22 1569 238 1569 726 c 256
 1569 1203 1301 1478 837 1478 c 256
 376 1478 104 1204 104 723 c 256
EndSplineSet
Substitution2: "Single Substitution lookup 4 subtable" ordmasculine
EndChar

StartChar: OE
Encoding: 273 338 76
Width: 2196
VWidth: 0
GlyphClass: 2
Flags: W
PickledData: "(dp1
S'org.pippin.gimp.org.kernagic'
p2
(dp3
S'lstem'
p4
I0
sS'rstem'
p5
I0
ssS'com.typemytype.robofont.layerData'
p6
(dp7
S'b'
(dp8
S'name'
p9
S'OE'
p10
sS'lib'
p11
(dp12
sS'unicodes'
p13
(tsS'width'
p14
I2367
sS'contours'
p15
(tsS'components'
p16
(tsS'anchors'
p17
(tsssS'org.robofab.postScriptHintData'
p18
(dp19
s."
LayerCount: 2
Fore
SplineSet
1047 729 m 256
 1047 446 943 278 735 278 c 256
 527 278 417 446 417 729 c 256
 417 1018 525 1192 734 1192 c 256
 945 1192 1047 1018 1047 729 c 256
51 730 m 256
 51 242 315 -15 734 -15 c 256
 880 -15 963 -4 1048 25 c 257
 1048 0 l 257
 2048 0 l 257
 2051 279 l 257
 1380 279 l 257
 1380 608 l 257
 1999 608 l 257
 1999 878 l 257
 1380 878 l 257
 1380 1187 l 257
 2008 1187 l 257
 2030 1456 l 257
 1048 1456 l 257
 1048 1444 l 257
 963 1474 883 1485 733 1485 c 256
 312 1485 51 1226 51 730 c 256
EndSplineSet
EndChar

StartChar: Oslash
Encoding: 151 216 84
Width: 1678
VWidth: 0
GlyphClass: 2
Flags: W
PickledData: "(dp1
S'org.pippin.gimp.org.kernagic'
p2
(dp3
S'lstem'
p4
I0
sS'rstem'
p5
I0
ssS'com.typemytype.robofont.layerData'
p6
(dp7
sS'org.robofab.postScriptHintData'
p8
(dp9
s."
AnchorPoint: "top" 837 1456 basechar 0
LayerCount: 2
Fore
SplineSet
839 285 m 256
 811 285 785 290 760 299 c 257
 1044 1036 l 257
 1079 960 1099 854 1099 722 c 256
 1099 435 1000 285 839 285 c 256
627 410 m 257
 595 486 573 589 573 722 c 256
 573 1005 675 1168 838 1168 c 256
 863 1168 888 1164 911 1156 c 257
 627 410 l 257
546 -258 m 257
 643 -5 l 257
 704 -17 769 -22 838 -22 c 256
 1301 -22 1569 238 1569 726 c 256
 1569 1066 1434 1303 1188 1410 c 257
 1292 1682 l 257
 1134 1743 l 257
 1026 1460 l 257
 967 1471 904 1476 837 1476 c 256
 376 1476 104 1204 104 723 c 256
 104 381 243 150 487 44 c 257
 394 -202 l 257
 546 -258 l 257
EndSplineSet
EndChar

StartChar: P
Encoding: 48 80 87
Width: 1502
VWidth: 0
GlyphClass: 2
Flags: W
PickledData: "(dp1
S'org.pippin.gimp.org.kernagic'
p2
(dp3
S'lstem'
p4
I0
sS'rstem'
p5
I807
ssS'com.typemytype.robofont.layerData'
p6
(dp7
sS'org.robofab.postScriptHintData'
p8
(dp9
s."
AnchorPoint: "top" 744 1456 basechar 0
LayerCount: 2
Fore
SplineSet
162 1456 m 257
 162 0 l 257
 598 0 l 257
 598 455 l 257
 639 453 678 452 716 452 c 256
 1251 452 1440 643 1440 991 c 256
 1440 1322 1245 1468 546 1468 c 256
 432 1468 304 1464 162 1456 c 257
598 730 m 257
 598 1199 l 257
 611 1199 624 1200 636 1200 c 256
 981 1200 1021 1091 1021 969 c 256
 1021 842 951 729 652 729 c 256
 635 729 617 729 598 730 c 257
EndSplineSet
EndChar

StartChar: Q
Encoding: 49 81 88
Width: 1682
VWidth: 0
GlyphClass: 2
Flags: W
PickledData: "(dp1
S'org.pippin.gimp.org.kernagic'
p2
(dp3
S'lstem'
p4
I0
sS'rstem'
p5
I0
ssS'com.typemytype.robofont.layerData'
p6
(dp7
sS'org.robofab.postScriptHintData'
p8
(dp9
s."
LayerCount: 2
Fore
SplineSet
726 101 m 257
 766 -28 1063 -394 1270 -565 c 257
 1543 -333 l 257
 1341 -161 1231 -36 1114 146 c 257
 726 101 l 257
EndSplineSet
Refer: 75 79 N 1 0 0 1 0 0 2
EndChar

StartChar: R
Encoding: 50 82 89
Width: 1540
VWidth: 0
GlyphClass: 2
Flags: W
PickledData: "(dp1
S'org.pippin.gimp.org.kernagic'
p2
(dp3
S'lstem'
p4
I0
sS'rstem'
p5
I839
ssS'com.fontlab.hintData'
p6
(dp7
S'vhints'
p8
((dp9
S'position'
p10
I1122
sS'width'
p11
I117
stp12
sS'hhints'
p13
((dp14
g10
I722
sg11
I96
s(dp15
g10
I1355
sg11
I94
stp16
ssS'com.typemytype.robofont.layerData'
p17
(dp18
sS'org.robofab.postScriptHintData'
p19
(dp20
s."
HStem: 722 96 1355 94
VStem: 1122 117
AnchorPoint: "bot" 759 0 basechar 0
AnchorPoint: "top" 772 1456 basechar 0
LayerCount: 2
Fore
SplineSet
162 0 m 257
 598 0 l 257
 598 589 l 257
 713 589 l 257
 1014 0 l 257
 1490 0 l 257
 1490 15 l 257
 1147 651 l 257
 1261 690 1401 776 1401 1024 c 256
 1402 1392 1236 1468 761 1468 c 256
 602 1468 330 1463 162 1456 c 257
 162 0 l 257
598 1183 m 257
 660 1188 725 1195 784 1195 c 256
 906 1195 1005 1166 1005 1033 c 256
 1005 883 931 845 780 845 c 258
 598 845 l 257
 598 1183 l 257
EndSplineSet
EndChar

StartChar: S
Encoding: 51 83 93
Width: 1273
VWidth: 0
GlyphClass: 2
Flags: W
PickledData: "(dp1
S'org.pippin.gimp.org.kernagic'
p2
(dp3
S'lstem'
p4
I185
sS'rstem'
p5
I826
ssS'com.typemytype.robofont.guides'
p6
((dp7
S'y'
I973
sS'x'
I1035
sS'magnetic'
p8
I5
sS'angle'
p9
F90
sS'isGlobal'
p10
I00
s(dp11
S'y'
I382
sS'x'
I75
sg8
I5
sg9
F90
sg10
I00
stp12
sS'com.typemytype.robofont.layerData'
p13
(dp14
sS'org.robofab.postScriptHintData'
p15
(dp16
s."
AnchorPoint: "bot" 622 0 basechar 0
AnchorPoint: "top" 592 1456 basechar 0
LayerCount: 2
Fore
SplineSet
1138 1166 m 257
 1111 1315 945 1478 624 1478 c 256
 344 1478 104 1345 104 1045 c 256
 104 816 212 709 358 649 c 258
 588 556 l 258
 727 499 742 459 742 393 c 256
 742 320 677 282 603 282 c 256
 516 282 415 334 391 443 c 257
 353 443 l 257
 88 275 l 257
 144 119 331 -20 640 -20 c 256
 968 -20 1183 147 1183 424 c 256
 1183 686 1058 782 858 862 c 258
 697 927 l 258
 577 973 530 1004 530 1078 c 256
 530 1156 591 1200 656 1200 c 256
 724 1200 798 1153 817 1049 c 257
 844 1049 l 257
 1138 1166 l 257
EndSplineSet
EndChar

StartChar: T
Encoding: 52 84 99
Width: 1319
VWidth: 0
GlyphClass: 2
Flags: W
PickledData: "(dp1
S'org.pippin.gimp.org.kernagic'
p2
(dp3
S'lstem'
p4
I285
sS'rstem'
p5
I844
ssS'com.typemytype.robofont.layerData'
p6
(dp7
sS'org.robofab.postScriptHintData'
p8
(dp9
s."
AnchorPoint: "bot" 667 0 basechar 0
AnchorPoint: "top" 668 1456 basechar 0
LayerCount: 2
Fore
SplineSet
53 1456 m 257
 53 1190 l 257
 443 1190 l 257
 443 -7 l 257
 878 -7 l 257
 878 1190 l 257
 1266 1190 l 257
 1266 1456 l 257
 53 1456 l 257
EndSplineSet
EndChar

StartChar: Thorn
Encoding: 157 222 103
Width: 1520
VWidth: 0
GlyphClass: 2
Flags: W
PickledData: "(dp1
S'org.pippin.gimp.org.kernagic'
p2
(dp3
S'lstem'
p4
I0
sS'rstem'
p5
I0
ssS'com.typemytype.robofont.layerData'
p6
(dp7
S'b'
(dp8
S'name'
p9
S'Thorn'
p10
sS'lib'
p11
(dp12
sS'unicodes'
p13
(tsS'width'
p14
I1192
sS'contours'
p15
(tsS'components'
p16
(tsS'anchors'
p17
(tsssS'org.robofab.postScriptHintData'
p18
(dp19
s."
LayerCount: 2
Fore
SplineSet
164 0 m 257
 600 0 l 257
 600 282 l 257
 724 282 l 258
 1285 282 1470 482 1470 829 c 256
 1470 1150 1282 1303 665 1303 c 258
 600 1303 l 257
 600 1449 l 257
 164 1449 l 257
 164 0 l 257
600 1034 m 257
 691 1034 l 257
 696 1034 l 258
 1020 1034 1053 931 1053 807 c 256
 1053 679 985 557 658 557 c 258
 600 557 l 257
 600 1034 l 257
EndSplineSet
EndChar

StartChar: U
Encoding: 53 85 104
Width: 1550
VWidth: 0
GlyphClass: 2
Flags: W
PickledData: "(dp1
S'org.pippin.gimp.org.kernagic'
p2
(dp3
S'lstem'
p4
I0
sS'rstem'
p5
I0
ssS'com.typemytype.robofont.layerData'
p6
(dp7
sS'org.robofab.postScriptHintData'
p8
(dp9
s."
AnchorPoint: "bot" 794 0 basechar 0
AnchorPoint: "top" 773 1456 basechar 0
LayerCount: 2
Fore
SplineSet
981 1456 m 257
 981 560 l 258
 981 361 902 286 770 286 c 256
 649 286 570 359 570 558 c 258
 570 1456 l 257
 135 1456 l 257
 135 530 l 258
 135 180 359 -20 770 -20 c 256
 1182 -20 1416 181 1416 531 c 258
 1416 1456 l 257
 981 1456 l 257
EndSplineSet
EndChar

StartChar: V
Encoding: 54 86 115
Width: 1361
VWidth: 0
GlyphClass: 2
Flags: W
PickledData: "(dp1
S'org.pippin.gimp.org.kernagic'
p2
(dp3
S'lstem'
p4
I0
sS'rstem'
p5
I0
ssS'com.typemytype.robofont.layerData'
p6
(dp7
sS'org.robofab.postScriptHintData'
p8
(dp9
s."
LayerCount: 2
Fore
SplineSet
407 -7 m 257
 911 -7 l 257
 1375 1456 l 257
 961 1456 l 257
 689 470 l 257
 673 392 l 257
 589 751 493 1101 405 1456 c 257
 -14 1456 l 257
 407 -7 l 257
EndSplineSet
EndChar

StartChar: W
Encoding: 55 87 116
Width: 2068
VWidth: 0
GlyphClass: 2
Flags: W
PickledData: "(dp1
S'org.pippin.gimp.org.kernagic'
p2
(dp3
S'lstem'
p4
I0
sS'rstem'
p5
I0
ssS'com.typemytype.robofont.layerData'
p6
(dp7
sS'org.robofab.postScriptHintData'
p8
(dp9
s."
AnchorPoint: "bot" 1008 0 basechar 0
AnchorPoint: "top" 1037 1456 basechar 0
LayerCount: 2
Fore
SplineSet
1022 906 m 257
 1258 0 l 257
 1649 0 l 257
 2027 1456 l 257
 1607 1456 l 257
 1433 567 l 257
 1191 1457 l 257
 854 1457 l 257
 615 571 l 257
 464 1456 l 257
 40 1456 l 257
 378 0 l 257
 773 0 l 257
 1022 906 l 257
EndSplineSet
EndChar

StartChar: X
Encoding: 56 88 121
Width: 1460
VWidth: 0
GlyphClass: 2
Flags: W
PickledData: "(dp1
S'org.pippin.gimp.org.kernagic'
p2
(dp3
S'lstem'
p4
I0
sS'rstem'
p5
I0
ssS'com.typemytype.robofont.layerData'
p6
(dp7
sS'org.robofab.postScriptHintData'
p8
(dp9
s."
LayerCount: 2
Fore
SplineSet
990 742 m 257
 1460 1456 l 257
 993 1456 l 257
 762 1084 l 257
 515 1456 l 257
 41 1456 l 257
 494 777 l 257
 -27 -7 l 257
 425 -7 l 257
 719 439 l 257
 1017 -7 l 257
 1489 -7 l 257
 990 742 l 257
EndSplineSet
EndChar

StartChar: Y
Encoding: 57 89 122
Width: 1343
VWidth: 0
GlyphClass: 2
Flags: W
PickledData: "(dp1
S'org.pippin.gimp.org.kernagic'
p2
(dp3
S'lstem'
p4
I0
sS'rstem'
p5
I0
ssS'com.typemytype.robofont.layerData'
p6
(dp7
sS'org.robofab.postScriptHintData'
p8
(dp9
s."
AnchorPoint: "top" 676 1456 basechar 0
LayerCount: 2
Fore
SplineSet
887 590 m 257
 1366 1456 l 257
 905 1456 l 257
 668 1000 l 257
 442 1456 l 257
 -23 1456 l 257
 452 584 l 257
 452 0 l 257
 887 0 l 257
 887 590 l 257
EndSplineSet
EndChar

StartChar: Z
Encoding: 58 90 127
Width: 1289
VWidth: 0
GlyphClass: 2
Flags: W
PickledData: "(dp1
S'org.pippin.gimp.org.kernagic'
p2
(dp3
S'lstem'
p4
I0
sS'rstem'
p5
I0
ssS'com.typemytype.robofont.layerData'
p6
(dp7
sS'org.robofab.postScriptHintData'
p8
(dp9
s."
AnchorPoint: "bot" 583 0 basechar 0
AnchorPoint: "top" 633 1456 basechar 0
LayerCount: 2
Fore
SplineSet
112 0 m 257
 1206 0 l 257
 1186 267 l 257
 628 267 l 257
 1166 1219 l 257
 1168 1456 l 257
 114 1456 l 257
 135 1187 l 257
 698 1187 l 257
 112 216 l 257
 112 0 l 257
EndSplineSet
EndChar

StartChar: a
Encoding: 65 97 131
Width: 1174
VWidth: 0
GlyphClass: 2
Flags: W
PickledData: "(dp1
S'org.pippin.gimp.org.kernagic'
p2
(dp3
S'lstem'
p4
I0
sS'rstem'
p5
I0
ssS'org.robofab.postScriptHintData'
p6
(dp7
sS'com.typemytype.robofont.guides'
p8
(tsS'com.typemytype.robofont.layerData'
p9
(dp10
sS'com.fontlab.hintData'
p11
(dp12
S'vhints'
p13
((dp14
S'position'
p15
I126
sS'width'
p16
I120
s(dp17
g15
I842
sg16
I32
s(dp18
g15
I875
sg16
I86
stp19
sS'hhints'
p20
((dp21
g15
I-15
sg16
I92
s(dp22
g15
I535
sg16
I82
s(dp23
g15
I983
sg16
I92
stp24
ss."
HStem: -15 92 535 82 983 92
VStem: 126 120 842 32 875 86
AnchorPoint: "bot" 672 -1 basechar 0
AnchorPoint: "top" 561 1081 basechar 0
LayerCount: 2
Fore
SplineSet
678 245 m 257
 658 225 611 195 550 195 c 256
 494 195 437 232 437 315 c 256
 437 437 561 461 656 461 c 258
 678 461 l 257
 678 245 l 257
406 -16 m 256
 574 -16 671 49 740 115 c 257
 784 0 l 257
 1081 0 l 257
 1081 612 l 258
 1081 958 870 1099 606 1099 c 256
 455 1099 284 1053 115 975 c 257
 185 740 l 257
 312 782 433 818 526 818 c 256
 616 818 681 785 681 693 c 258
 681 635 l 257
 564 636 l 257
 559 636 l 258
 370 636 75 580 75 308 c 256
 75 95 212 -16 406 -16 c 256
EndSplineSet
Substitution2: "Single Substitution lookup 3 subtable" ordfeminine
EndChar

StartChar: acute
Encoding: 115 180 135
Width: 814
VWidth: 0
GlyphClass: 4
Flags: W
PickledData: "(dp1
S'org.robofab.postScriptHintData'
p2
(dp3
sS'com.typemytype.robofont.layerData'
p4
(dp5
s."
AnchorPoint: "top" 543 1082 mark 0
LayerCount: 2
Fore
SplineSet
427 1207 m 257
 649 1207 l 257
 1000 1623 l 257
 596 1623 l 257
 427 1207 l 257
EndSplineSet
EndChar

StartChar: ae
Encoding: 165 230 137
Width: 1782
VWidth: 0
GlyphClass: 2
Flags: W
PickledData: "(dp1
S'org.pippin.gimp.org.kernagic'
p2
(dp3
S'lstem'
p4
I0
sS'rstem'
p5
I0
ssS'com.fontlab.hintData'
p6
(dp7
S'vhints'
p8
((dp9
S'position'
p10
I126
sS'width'
p11
I119
s(dp12
g10
I817
sg11
I117
s(dp13
g10
I817
sg11
I82
s(dp14
g10
I1556
sg11
I98
stp15
sS'hhints'
p16
((dp17
g10
I-14
sg11
I98
s(dp18
g10
I518
sg11
I82
s(dp19
g10
I983
sg11
I92
stp20
ssS'com.typemytype.robofont.layerData'
p21
(dp22
sS'org.robofab.postScriptHintData'
p23
(dp24
s."
HStem: -14 98 518 82 983 92
VStem: 126 119 817 117 817 82 1556 98
AnchorPoint: "top" 915 1082 basechar 0
LayerCount: 2
Fore
SplineSet
697 632 m 257
 558 631 l 258
 368 631 70 579 70 308 c 256
 70 86 209 -15 416 -15 c 256
 619 -15 755 41 839 120 c 257
 913 53 991 -20 1233 -20 c 256
 1425 -20 1599 38 1681 123 c 257
 1622 336 l 257
 1540 283 1420 236 1279 236 c 256
 1182 236 1073 238 1048 409 c 257
 1450 414 1697 491 1697 701 c 256
 1697 864 1591 1102 1257 1102 c 256
 1074 1102 973 1031 908 944 c 257
 876 1033 760 1100 601 1100 c 256
 455 1100 279 1056 114 980 c 257
 181 741 l 257
 303 782 426 819 520 819 c 256
 609 819 697 784 697 694 c 258
 697 632 l 257
1050 619 m 257
 1060 802 1188 858 1265 858 c 256
 1414 858 1444 801 1444 743 c 256
 1444 658 1366 627 1050 619 c 257
433 313 m 256
 433 437 557 456 656 456 c 258
 656 456 693 456 702 457 c 257
 702 419 730 306 752 258 c 257
 723 238 631 196 539 196 c 256
 484 196 433 235 433 313 c 256
EndSplineSet
EndChar

StartChar: ampersand
Encoding: 6 38 142
Width: 1420
VWidth: 0
GlyphClass: 2
Flags: W
PickledData: "(dp1
S'org.pippin.gimp.org.kernagic'
p2
(dp3
S'lstem'
p4
I0
sS'rstem'
p5
I0
ssS'com.fontlab.hintData'
p6
(dp7
S'vhints'
p8
((dp9
S'position'
p10
I135
sS'width'
p11
I121
s(dp12
g10
I312
sg11
I105
s(dp13
g10
I917
sg11
I110
stp14
sS'hhints'
p15
((dp16
g10
I-19
sg11
I96
s(dp17
g10
I1372
sg11
I96
stp18
ssS'com.typemytype.robofont.layerData'
p19
(dp20
sS'org.robofab.postScriptHintData'
p21
(dp22
s."
HStem: -19 96 1372 96
VStem: 135 121 312 105 917 110
LayerCount: 2
Fore
SplineSet
638 1015 m 257
 566 1099 550 1145 550 1234 c 256
 550 1305 600 1338 659 1339 c 256
 725 1339 784 1321 784 1240 c 256
 784 1176 706 1049 638 1015 c 257
408 889 m 257
 309 807 95 674 95 480 c 256
 95 120 397 -15 630 -15 c 256
 796 -15 927 39 1038 125 c 257
 1182 -42 l 257
 1395 123 l 257
 1226 318 l 257
 1307 421 1377 537 1445 647 c 257
 1249 787 l 257
 1198 691 1137 590 1068 501 c 257
 756 861 l 257
 918 946 1068 1118 1068 1245 c 256
 1068 1477 839 1557 666 1557 c 256
 472 1557 247 1449 247 1192 c 256
 247 1052 387 908 408 889 c 257
554 691 m 257
 879 311 l 257
 802 255 718 220 628 220 c 256
 502 220 394 286 394 439 c 256
 394 565 490 639 554 691 c 257
EndSplineSet
EndChar

StartChar: uni02BC
Encoding: 65537 700 144
Width: 651
VWidth: 0
Flags: W
PickledData: "(dp1
S'org.robofab.postScriptHintData'
p2
(dp3
sS'com.typemytype.robofont.layerData'
p4
(dp5
s."
LayerCount: 2
Fore
SplineSet
28 1074 m 257
 306 1074 l 257
 306 1074 357 1337 396 1554 c 257
 75 1554 l 257
 63 1444 28 1074 28 1074 c 257
EndSplineSet
EndChar

StartChar: approxequal
Encoding: 477 8776 145
Width: 1344
VWidth: 0
GlyphClass: 2
Flags: W
PickledData: "(dp1
S'org.pippin.gimp.org.kernagic'
p2
(dp3
S'lstem'
p4
I0
sS'rstem'
p5
I0
ssS'com.typemytype.robofont.layerData'
p6
(dp7
S'b'
(dp8
S'name'
p9
S'approxequal'
p10
sS'lib'
p11
(dp12
sS'unicodes'
p13
(tsS'width'
p14
I1136
sS'contours'
p15
(tsS'components'
p16
(tsS'anchors'
p17
(tsssS'org.robofab.postScriptHintData'
p18
(dp19
s."
LayerCount: 2
Fore
SplineSet
287 275 m 257
 301 385 332 439 414 439 c 256
 461 439 501 413 523 400 c 256
 689 306 780 267 896 267 c 256
 1112 267 1173 397 1209 579 c 257
 1042 644 l 257
 995 509 940 487 886 487 c 256
 831 487 773 514 706 555 c 256
 592 622 522 658 418 658 c 256
 227 658 124 536 96 340 c 257
 287 275 l 257
287 727 m 257
 301 835 332 891 412 891 c 256
 460 891 501 865 523 851 c 256
 689 757 780 719 896 719 c 256
 1112 719 1173 848 1209 1030 c 257
 1042 1095 l 257
 995 960 940 938 886 938 c 256
 831 938 773 965 706 1006 c 256
 592 1074 522 1109 418 1109 c 256
 227 1109 124 987 96 791 c 257
 287 727 l 257
EndSplineSet
EndChar

StartChar: asciicircum
Encoding: 62 94 148
Width: 1563
VWidth: 0
GlyphClass: 2
Flags: W
PickledData: "(dp1
S'org.pippin.gimp.org.kernagic'
p2
(dp3
S'lstem'
p4
I0
sS'rstem'
p5
I0
ssS'com.typemytype.robofont.layerData'
p6
(dp7
sS'org.robofab.postScriptHintData'
p8
(dp9
s."
LayerCount: 2
Fore
SplineSet
672 1456 m 257
 113 265 l 257
 521 265 l 257
 769 844 l 257
 1043 265 l 257
 1450 265 l 257
 846 1456 l 257
 672 1456 l 257
EndSplineSet
EndChar

StartChar: asciitilde
Encoding: 94 126 149
Width: 1192
VWidth: 0
GlyphClass: 2
Flags: W
PickledData: "(dp1
S'org.pippin.gimp.org.kernagic'
p2
(dp3
S'lstem'
p4
I0
sS'rstem'
p5
I0
ssS'com.typemytype.robofont.layerData'
p6
(dp7
S'b'
(dp8
S'name'
p9
S'asciitilde'
p10
sS'lib'
p11
(dp12
sS'unicodes'
p13
(tsS'width'
p14
I1192
sS'contours'
p15
(tsS'components'
p16
(tsS'anchors'
p17
(tsssS'org.robofab.postScriptHintData'
p18
(dp19
s."
LayerCount: 2
Fore
SplineSet
194 464 m 257
 230 532 285 597 367 597 c 256
 437 597 485 576 543 547 c 256
 638 503 710 474 814 474 c 256
 967 474 1109 577 1160 670 c 257
 1060 837 l 257
 963 743 905 717 835 717 c 256
 786 717 723 734 641 773 c 256
 565 806 466 836 380 836 c 256
 223 836 137 745 84 641 c 257
 194 464 l 257
EndSplineSet
EndChar

StartChar: asterisk
Encoding: 10 42 150
Width: 1077
VWidth: 0
GlyphClass: 2
Flags: W
PickledData: "(dp1
S'org.pippin.gimp.org.kernagic'
p2
(dp3
S'lstem'
p4
I0
sS'rstem'
p5
I0
ssS'com.typemytype.robofont.layerData'
p6
(dp7
sS'org.robofab.postScriptHintData'
p8
(dp9
s."
LayerCount: 2
Fore
SplineSet
377 443 m 257
 541 775 l 257
 710 440 l 257
 962 585 l 257
 964 583 l 258
 969 583 763 852 720 908 c 257
 1070 990 l 257
 988 1271 l 257
 648 1122 l 257
 679 1539 l 257
 401 1539 l 257
 435 1122 l 257
 97 1271 l 257
 17 990 l 257
 362 908 l 257
 118 585 l 257
 377 443 l 257
EndSplineSet
EndChar

StartChar: at
Encoding: 32 64 151
Width: 2052
VWidth: 0
GlyphClass: 2
Flags: W
PickledData: "(dp1
S'org.pippin.gimp.org.kernagic'
p2
(dp3
S'lstem'
p4
I0
sS'rstem'
p5
I0
ssS'com.typemytype.robofont.layerData'
p6
(dp7
sS'org.robofab.postScriptHintData'
p8
(dp9
s."
LayerCount: 2
Fore
SplineSet
866 655 m 256
 866 845 960 1036 1118 1036 c 256
 1144 1036 1185 1033 1215 1029 c 257
 1179 799 l 257
 1146 556 1088 484 976 484 c 256
 909 484 866 532 866 655 c 256
1024 -104 m 256
 1243 -104 1476 -54 1610 53 c 257
 1540 231 l 257
 1399 153 1210 121 1027 121 c 256
 657 121 443 393 443 720 c 256
 443 1054 672 1386 1086 1386 c 256
 1492 1386 1673 1125 1673 873 c 256
 1673 610 1579 484 1495 484 c 256
 1453 484 1428 521 1428 594 c 256
 1428 724 1468 925 1497 1143 c 257
 1428 1181 1266 1238 1102 1238 c 256
 771 1238 581 952 581 681 c 256
 581 464 690 282 958 282 c 256
 1088 282 1197 372 1248 521 c 257
 1276 376 1363 294 1495 294 c 256
 1703 294 1945 486 1945 865 c 256
 1945 1313 1567 1620 1093 1620 c 256
 550 1620 153 1220 153 724 c 256
 153 194 507 -104 1024 -104 c 256
EndSplineSet
EndChar

StartChar: b
Encoding: 66 98 153
Width: 1297
VWidth: 0
GlyphClass: 2
Flags: W
PickledData: "(dp1
S'org.pippin.gimp.org.kernagic'
p2
(dp3
S'lstem'
p4
I0
sS'rstem'
p5
I0
ssS'org.robofab.postScriptHintData'
p6
(dp7
sS'com.typemytype.robofont.guides'
p8
(tsS'com.typemytype.robofont.layerData'
p9
(dp10
sS'com.fontlab.hintData'
p11
(dp12
S'vhints'
p13
((dp14
S'position'
p15
I193
sS'width'
p16
I125
s(dp17
g15
I193
sg16
I94
s(dp18
g15
I1018
sg16
I122
stp19
sS'hhints'
p20
((dp21
g15
I-19
sg16
I92
s(dp22
g15
I982
sg16
I92
stp23
ss."
HStem: -19 92 982 92
VStem: 193 125 193 94 1018 122
AnchorPoint: "top" 820 1082 basechar 0
LayerCount: 2
Fore
SplineSet
684 236 m 256
 585 236 561 273 537 302 c 257
 537 567 l 258
 537 814 634 844 696 844 c 256
 750 844 812 810 812 552 c 256
 812 305 738 236 684 236 c 256
1227 551 m 256
 1227 858 1085 1101 800 1101 c 256
 665 1101 578 1045 526 968 c 257
 536 1161 l 257
 536 1560 l 257
 128 1540 l 257
 128 0 l 257
 497 0 l 257
 506 141 l 257
 546 66 633 -20 789 -20 c 256
 1086 -20 1227 219 1227 551 c 256
EndSplineSet
EndChar

StartChar: backslash
Encoding: 60 92 154
Width: 937
VWidth: 0
GlyphClass: 2
Flags: W
PickledData: "(dp1
S'org.pippin.gimp.org.kernagic'
p2
(dp3
S'lstem'
p4
I0
sS'rstem'
p5
I0
ssS'com.typemytype.robofont.layerData'
p6
(dp7
S'b'
(dp8
S'name'
p9
S'backslash'
p10
sS'lib'
p11
(dp12
sS'unicodes'
p13
(tsS'width'
p14
I937
sS'contours'
p15
(tsS'components'
p16
(tsS'anchors'
p17
(tsssS'org.robofab.postScriptHintData'
p18
(dp19
s."
LayerCount: 2
Fore
SplineSet
548 29 m 257
 838 29 l 257
 387 1516 l 257
 92 1516 l 257
 548 29 l 257
EndSplineSet
EndChar

StartChar: bar
Encoding: 92 124 155
Width: 755
VWidth: 0
GlyphClass: 2
Flags: W
PickledData: "(dp1
S'org.pippin.gimp.org.kernagic'
p2
(dp3
S'lstem'
p4
I0
sS'rstem'
p5
I0
ssS'com.typemytype.robofont.layerData'
p6
(dp7
S'b'
(dp8
S'name'
p9
S'bar'
p10
sS'lib'
p11
(dp12
sS'unicodes'
p13
(tsS'width'
p14
I681
sS'contours'
p15
(tsS'components'
p16
(tsS'anchors'
p17
(tsssS'org.robofab.postScriptHintData'
p18
(dp19
s."
LayerCount: 2
Fore
SplineSet
274 1476 m 257
 274 -577 l 257
 497 -577 l 257
 497 1476 l 257
 274 1476 l 257
EndSplineSet
EndChar

StartChar: braceleft
Encoding: 91 123 156
Width: 990
VWidth: 0
GlyphClass: 2
Flags: W
PickledData: "(dp1
S'org.pippin.gimp.org.kernagic'
p2
(dp3
S'lstem'
p4
I0
sS'rstem'
p5
I0
ssS'com.typemytype.robofont.layerData'
p6
(dp7
sS'org.robofab.postScriptHintData'
p8
(dp9
s."
LayerCount: 2
Fore
SplineSet
857 -335 m 257
 857 -127 l 257
 738 -122 667 -118 667 1 c 258
 667 375 l 258
 667 464 659 608 467 646 c 257
 659 685 667 829 667 918 c 258
 667 1291 l 258
 667 1410 738 1415 857 1419 c 257
 857 1628 l 257
 691 1628 409 1610 409 1383 c 258
 409 935 l 258
 409 865 397 762 187 762 c 257
 187 531 l 257
 397 531 409 427 409 358 c 258
 409 -91 l 258
 409 -317 691 -335 857 -335 c 257
EndSplineSet
EndChar

StartChar: braceright
Encoding: 93 125 157
Width: 990
VWidth: 0
GlyphClass: 2
Flags: W
PickledData: "(dp1
S'org.pippin.gimp.org.kernagic'
p2
(dp3
S'lstem'
p4
I0
sS'rstem'
p5
I0
ssS'com.typemytype.robofont.layerData'
p6
(dp7
sS'org.robofab.postScriptHintData'
p8
(dp9
s."
LayerCount: 2
Fore
SplineSet
176 -335 m 257
 342 -335 624 -317 624 -91 c 258
 624 358 l 258
 624 427 636 531 845 531 c 257
 845 762 l 257
 635 762 624 865 624 935 c 258
 624 1383 l 258
 624 1610 342 1628 176 1628 c 257
 176 1419 l 257
 295 1415 365 1410 365 1291 c 258
 365 918 l 258
 365 829 374 685 566 646 c 257
 374 608 365 464 365 375 c 258
 365 1 l 258
 365 -118 295 -122 176 -127 c 257
 176 -335 l 257
EndSplineSet
EndChar

StartChar: bracketleft
Encoding: 59 91 158
Width: 823
VWidth: 0
GlyphClass: 2
Flags: W
PickledData: "(dp1
S'org.pippin.gimp.org.kernagic'
p2
(dp3
S'lstem'
p4
I0
sS'rstem'
p5
I0
ssS'com.typemytype.robofont.layerData'
p6
(dp7
sS'org.robofab.postScriptHintData'
p8
(dp9
s."
LayerCount: 2
Fore
SplineSet
229 -248 m 257
 672 -248 l 257
 672 -15 l 257
 498 -15 l 257
 498 1255 l 257
 672 1255 l 257
 672 1485 l 257
 229 1485 l 257
 229 -248 l 257
EndSplineSet
EndChar

StartChar: bracketright
Encoding: 61 93 159
Width: 965
VWidth: 0
GlyphClass: 2
Flags: W
PickledData: "(dp1
S'org.pippin.gimp.org.kernagic'
p2
(dp3
S'lstem'
p4
I0
sS'rstem'
p5
I0
ssS'com.typemytype.robofont.layerData'
p6
(dp7
sS'org.robofab.postScriptHintData'
p8
(dp9
s."
LayerCount: 2
Fore
SplineSet
299 -248 m 257
 742 -248 l 257
 742 1485 l 257
 299 1485 l 257
 299 1255 l 257
 472 1255 l 257
 472 -15 l 257
 299 -15 l 257
 299 -248 l 257
EndSplineSet
EndChar

StartChar: breve
Encoding: 401 728 160
Width: 956
VWidth: 0
GlyphClass: 4
Flags: W
PickledData: "(dp1
S'org.robofab.postScriptHintData'
p2
(dp3
sS'com.typemytype.robofont.layerData'
p4
(dp5
s."
AnchorPoint: "top" 453 1085 mark 0
LayerCount: 2
Fore
SplineSet
454 1331 m 256
 648 1331 766 1443 766 1614 c 257
 555 1614 l 257
 555 1567 519 1535 454 1535 c 256
 388 1535 352 1567 352 1614 c 257
 138 1614 l 257
 138 1443 258 1331 454 1331 c 256
EndSplineSet
EndChar

StartChar: uni0311
Encoding: 409 785 161
Width: 895
VWidth: 0
Flags: W
PickledData: "(dp1
S'org.robofab.postScriptHintData'
p2
(dp3
sS'com.typemytype.robofont.layerData'
p4
(dp5
s."
AnchorPoint: "top" 458 1085 mark 0
LayerCount: 2
Fore
SplineSet
141 1331 m 257
 355 1331 l 257
 355 1377 391 1410 457 1410 c 256
 522 1410 558 1377 558 1331 c 257
 769 1331 l 257
 769 1502 651 1614 457 1614 c 256
 261 1614 141 1502 141 1331 c 257
EndSplineSet
EndChar

StartChar: brokenbar
Encoding: 101 166 162
Width: 793
VWidth: 0
GlyphClass: 2
Flags: W
PickledData: "(dp1
S'org.pippin.gimp.org.kernagic'
p2
(dp3
S'lstem'
p4
I0
sS'rstem'
p5
I0
ssS'com.typemytype.robofont.layerData'
p6
(dp7
S'b'
(dp8
S'name'
p9
S'brokenbar'
p10
sS'lib'
p11
(dp12
sS'unicodes'
p13
(tsS'width'
p14
I653
sS'contours'
p15
(tsS'components'
p16
(tsS'anchors'
p17
(tsssS'org.robofab.postScriptHintData'
p18
(dp19
s."
LayerCount: 2
Fore
SplineSet
248 1401 m 257
 248 734 l 257
 502 734 l 257
 502 1401 l 257
 248 1401 l 257
248 226 m 257
 248 -440 l 257
 502 -440 l 257
 502 226 l 257
 248 226 l 257
EndSplineSet
EndChar

StartChar: bullet
Encoding: 454 8226 163
Width: 979
VWidth: 0
GlyphClass: 2
Flags: W
PickledData: "(dp1
S'org.pippin.gimp.org.kernagic'
p2
(dp3
S'lstem'
p4
I0
sS'rstem'
p5
I0
ssS'com.typemytype.robofont.layerData'
p6
(dp7
S'b'
(dp8
S'name'
p9
S'bullet'
p10
sS'lib'
p11
(dp12
sS'unicodes'
p13
(tsS'width'
p14
I908
sS'contours'
p15
(tsS'components'
p16
(tsS'anchors'
p17
(tsssS'org.robofab.postScriptHintData'
p18
(dp19
s."
LayerCount: 2
Fore
SplineSet
477 330 m 256
 691 330 846 494 846 687 c 256
 846 882 697 1038 484 1038 c 256
 271 1038 114 874 114 682 c 256
 114 489 262 330 477 330 c 256
EndSplineSet
EndChar

StartChar: c
Encoding: 67 99 164
Width: 1147
VWidth: 0
GlyphClass: 2
Flags: W
PickledData: "(dp1
S'org.pippin.gimp.org.kernagic'
p2
(dp3
S'lstem'
p4
I0
sS'rstem'
p5
I696
ssS'org.robofab.postScriptHintData'
p6
(dp7
sS'com.typemytype.robofont.guides'
p8
((dp9
S'y'
I417
sS'x'
I962
sS'magnetic'
p10
I5
sS'angle'
p11
F90
sS'isGlobal'
p12
I00
s(dp13
S'y'
I1020
sS'x'
I565
sg10
I5
sg11
F90
sg12
I00
s(dp14
S'y'
I994
sS'x'
I572
sg10
I5
sg11
F90
sg12
I00
stp15
sS'com.typemytype.robofont.layerData'
p16
(dp17
sS'com.fontlab.hintData'
p18
(dp19
S'vhints'
p20
((dp21
S'position'
p22
I128
sS'width'
p23
I120
stp24
sS'hhints'
p25
((dp26
g22
I-19
sg23
I92
s(dp27
g22
I982
sg23
I92
stp28
ss."
HStem: -19 92 982 92
VStem: 128 120
AnchorPoint: "bot" 635 0 basechar 0
AnchorPoint: "top" 622 1082 basechar 0
LayerCount: 2
Fore
SplineSet
867 363 m 257
 854 363 l 257
 800 270 734 250 663 253 c 256
 567 257 479 304 479 541 c 256
 479 771 572 828 667 828 c 256
 738 831 804 811 858 718 c 257
 871 718 l 257
 1089 830 l 257
 993 1034 855 1101 655 1101 c 256
 295 1101 69 887 69 541 c 256
 69 195 291 -20 651 -20 c 256
 851 -20 989 47 1085 251 c 257
 867 363 l 257
EndSplineSet
EndChar

StartChar: caron
Encoding: 399 711 166
Width: 977
VWidth: 0
GlyphClass: 4
Flags: W
PickledData: "(dp1
S'org.robofab.postScriptHintData'
p2
(dp3
sS'com.typemytype.robofont.layerData'
p4
(dp5
s."
AnchorPoint: "top" 475 1082 mark 0
LayerCount: 2
Fore
SplineSet
288 1289 m 257
 626 1289 l 257
 844 1700 l 257
 538 1700 l 257
 458 1498 l 257
 377 1700 l 257
 71 1700 l 257
 288 1289 l 257
EndSplineSet
EndChar

StartChar: caron.alt
Encoding: 65538 -1 167
Width: 576
VWidth: 0
GlyphClass: 4
Flags: W
PickledData: "(dp1
S'org.robofab.postScriptHintData'
p2
(dp3
sS'com.typemytype.robofont.layerData'
p4
(dp5
s."
AnchorPoint: "caron.alt" -38 1082 mark 0
LayerCount: 2
Fore
SplineSet
305 1107 m 257
 523 1107 l 257
 586 1563 l 257
 301 1563 l 257
 305 1107 l 257
EndSplineSet
EndChar

StartChar: cedilla
Encoding: 119 184 172
Width: 781
VWidth: 0
GlyphClass: 4
Flags: W
PickledData: "(dp1
S'org.robofab.postScriptHintData'
p2
(dp3
sS'com.typemytype.robofont.layerData'
p4
(dp5
s."
AnchorPoint: "bot" 549 26 mark 0
LayerCount: 2
Fore
SplineSet
477 -424 m 256
 618 -424 733 -346 733 -208 c 256
 733 -97 668 -35 567 -35 c 256
 530 -35 489 -43 444 -60 c 257
 444 -138 l 257
 453 -137 461 -137 469 -137 c 256
 523 -137 550 -155 551 -198 c 256
 551 -232 525 -272 450 -272 c 256
 423 -272 389 -266 349 -254 c 257
 302 -387 l 257
 362 -412 422 -424 477 -424 c 256
EndSplineSet
EndChar

StartChar: cent
Encoding: 97 162 173
Width: 1144
VWidth: 0
GlyphClass: 2
Flags: W
PickledData: "(dp1
S'org.pippin.gimp.org.kernagic'
p2
(dp3
S'lstem'
p4
I0
sS'rstem'
p5
I0
ssS'com.typemytype.robofont.layerData'
p6
(dp7
sS'org.robofab.postScriptHintData'
p8
(dp9
s."
LayerCount: 2
Fore
SplineSet
570 62 m 257
 559 -294 l 257
 701 -294 l 257
 699 62 l 257
 570 62 l 257
569 1355 m 257
 572 1027 l 257
 703 1027 l 257
 727 1355 l 257
 569 1355 l 257
EndSplineSet
Refer: 164 99 N 1 0 0 1 0 0 2
EndChar

StartChar: circumflex
Encoding: 398 710 174
Width: 946
VWidth: 0
GlyphClass: 4
Flags: W
PickledData: "(dp1
S'org.robofab.postScriptHintData'
p2
(dp3
sS'com.typemytype.robofont.layerData'
p4
(dp5
s."
AnchorPoint: "top" 452 1082 mark 0
LayerCount: 2
Fore
SplineSet
69 1322 m 257
 375 1322 l 257
 455 1524 l 257
 535 1322 l 257
 841 1322 l 257
 624 1733 l 257
 286 1733 l 257
 69 1322 l 257
EndSplineSet
EndChar

StartChar: colon
Encoding: 26 58 175
Width: 722
VWidth: 0
GlyphClass: 2
Flags: W
PickledData: "(dp1
S'org.pippin.gimp.org.kernagic'
p2
(dp3
S'lstem'
p4
I0
sS'rstem'
p5
I0
ssS'com.typemytype.robofont.layerData'
p6
(dp7
S'b'
(dp8
S'name'
p9
S'colon'
p10
sS'lib'
p11
(dp12
sS'unicodes'
p13
(tsS'width'
p14
I653
sS'contours'
p15
(tsS'components'
p16
(tsS'anchors'
p17
(tsssS'org.robofab.postScriptHintData'
p18
(dp19
s."
LayerCount: 2
Fore
SplineSet
371 -5 m 256
 471 -5 559 47 559 167 c 256
 559 293 471 347 371 347 c 256
 274 347 185 293 185 167 c 256
 185 44 276 -5 371 -5 c 256
371 773 m 256
 471 773 559 825 559 945 c 256
 559 1071 471 1125 371 1125 c 256
 274 1125 185 1071 185 945 c 256
 185 822 276 773 371 773 c 256
EndSplineSet
EndChar

StartChar: comma
Encoding: 12 44 176
Width: 695
VWidth: 0
GlyphClass: 2
Flags: W
PickledData: "(dp1
S'org.pippin.gimp.org.kernagic'
p2
(dp3
S'lstem'
p4
I0
sS'rstem'
p5
I0
ssS'com.typemytype.robofont.layerData'
p6
(dp7
sS'org.robofab.postScriptHintData'
p8
(dp9
s."
LayerCount: 2
Fore
SplineSet
182 -363 m 257
 423 -363 l 257
 548 91 l 257
 548 293 l 257
 218 293 l 257
 218 213 182 -363 182 -363 c 257
EndSplineSet
EndChar

StartChar: uni0326
Encoding: 411 806 177
Width: 626
VWidth: 0
Flags: W
PickledData: "(dp1
S'org.robofab.postScriptHintData'
p2
(dp3
s."
AnchorPoint: "bot" 352 0 mark 0
LayerCount: 2
Fore
SplineSet
105 -562 m 257
 355 -562 l 257
 355 -562 507 -98 511 -91 c 257
 201 -91 l 257
 201 -79 105 -562 105 -562 c 257
511 -91 m 257
 511 -91 l 257
EndSplineSet
EndChar

StartChar: uni0312
Encoding: 410 786 178
Width: 600
VWidth: 0
Flags: W
PickledData: "(dp1
S'org.robofab.postScriptHintData'
p2
(dp3
s."
AnchorPoint: "top" 287 1085 mark 0
LayerCount: 2
Fore
SplineSet
132 1286 m 257
 121 1271 l 257
 448 1271 l 257
 448 1259 522 1792 522 1792 c 257
 280 1792 l 257
 280 1792 132 1311 132 1286 c 257
EndSplineSet
EndChar

StartChar: copyright
Encoding: 104 169 179
Width: 1816
VWidth: 0
GlyphClass: 2
Flags: W
PickledData: "(dp1
S'org.pippin.gimp.org.kernagic'
p2
(dp3
S'lstem'
p4
I0
sS'rstem'
p5
I0
ssS'com.typemytype.robofont.layerData'
p6
(dp7
sS'org.robofab.postScriptHintData'
p8
(dp9
s."
LayerCount: 2
Fore
SplineSet
925 -64 m 256
 1372 -64 1716 300 1716 729 c 256
 1716 1157 1372 1520 925 1520 c 256
 477 1520 131 1157 131 729 c 256
 131 300 477 -64 925 -64 c 256
925 113 m 256
 586 113 324 399 324 729 c 256
 324 1059 586 1344 925 1344 c 256
 1263 1344 1524 1059 1524 729 c 256
 1524 399 1263 113 925 113 c 256
947 256 m 256
 1047 256 1147 283 1231 335 c 257
 1180 474 l 257
 1108 437 1032 417 964 417 c 256
 807 417 682 516 682 741 c 256
 682 969 807 1067 965 1067 c 256
 1035 1067 1108 1047 1182 1011 c 257
 1232 1149 l 257
 1148 1200 1048 1227 948 1227 c 256
 711 1227 470 1079 470 741 c 256
 470 406 710 256 947 256 c 256
EndSplineSet
EndChar

StartChar: currency
Encoding: 99 164 180
Width: 1095
VWidth: 0
GlyphClass: 2
Flags: W
PickledData: "(dp1
S'org.pippin.gimp.org.kernagic'
p2
(dp3
S'lstem'
p4
I0
sS'rstem'
p5
I0
ssS'com.typemytype.robofont.layerData'
p6
(dp7
S'b'
(dp8
S'name'
p9
S'currency'
p10
sS'lib'
p11
(dp12
sS'unicodes'
p13
(tsS'width'
p14
I1164
sS'contours'
p15
(tsS'components'
p16
(tsS'anchors'
p17
(tsssS'org.robofab.postScriptHintData'
p18
(dp19
s."
LayerCount: 2
Fore
SplineSet
800 753 m 256
 800 613 686 508 557 508 c 256
 434 508 319 614 319 753 c 256
 319 892 434 1001 557 1001 c 256
 682 1001 800 892 800 753 c 256
789 1107 m 257
 721 1159 646 1184 557 1184 c 256
 472 1184 389 1151 324 1108 c 257
 150 1281 l 257
 25 1157 l 257
 205 981 l 257
 166 911 141 837 141 753 c 256
 141 669 168 589 205 525 c 257
 26 349 l 257
 150 231 l 257
 320 400 l 257
 388 351 470 325 557 325 c 256
 645 325 723 355 789 404 c 257
 970 230 l 257
 1086 353 l 257
 911 525 l 257
 952 594 974 669 974 753 c 256
 974 840 947 918 910 981 c 257
 1087 1157 l 257
 970 1281 l 257
 789 1107 l 257
EndSplineSet
EndChar

StartChar: d
Encoding: 68 100 181
Width: 1296
VWidth: 0
GlyphClass: 2
Flags: W
PickledData: "(dp1
S'org.pippin.gimp.org.kernagic'
p2
(dp3
S'lstem'
p4
I0
sS'rstem'
p5
I0
ssS'com.fontlab.hintData'
p6
(dp7
S'vhints'
p8
((dp9
S'position'
p10
I114
sS'width'
p11
I166
s(dp12
g10
I907
sg11
I161
s(dp13
g10
I930
sg11
I138
stp14
sS'hhints'
p15
((dp16
g10
I-19
sg11
I127
s(dp17
g10
I953
sg11
I127
stp18
ssS'com.typemytype.robofont.layerData'
p19
(dp20
sS'org.robofab.postScriptHintData'
p21
(dp22
s."
HStem: -19 127 953 127
VStem: 114 166 907 161 930 138
AnchorPoint: "caron.alt" 965 1060 basechar 0
AnchorPoint: "top" 436 1082 basechar 0
LayerCount: 2
Fore
SplineSet
609 238 m 256
 555 238 484 275 484 529 c 256
 484 823 572 846 625 846 c 256
 701 846 733 809 760 778 c 257
 760 331 l 257
 734 275 678 238 609 238 c 256
763 1540 m 257
 763 1133 l 257
 767 976 l 257
 720 1040 638 1101 506 1102 c 256
 209 1101 74 862 74 530 c 256
 74 223 211 -20 495 -20 c 256
 657 -20 748 61 793 164 c 257
 800 0 l 257
 1168 0 l 257
 1168 1560 l 257
 763 1540 l 257
EndSplineSet
EndChar

StartChar: dagger
Encoding: 452 8224 182
Width: 1190
VWidth: 0
GlyphClass: 2
Flags: W
PickledData: "(dp1
S'org.pippin.gimp.org.kernagic'
p2
(dp3
S'lstem'
p4
I0
sS'rstem'
p5
I0
ssS'com.typemytype.robofont.layerData'
p6
(dp7
S'b'
(dp8
S'name'
p9
S'dagger'
p10
sS'lib'
p11
(dp12
sS'unicodes'
p13
(tsS'width'
p14
I1050
sS'contours'
p15
(tsS'components'
p16
(tsS'anchors'
p17
(tsssS'org.robofab.postScriptHintData'
p18
(dp19
s."
LayerCount: 2
Fore
SplineSet
401 1450 m 257
 401 1077 l 257
 89 1077 l 257
 89 840 l 257
 401 840 l 257
 401 -171 l 257
 782 -171 l 257
 782 840 l 257
 1119 840 l 257
 1119 1077 l 257
 792 1077 l 257
 792 1450 l 257
 401 1450 l 257
EndSplineSet
EndChar

StartChar: daggerdbl
Encoding: 453 8225 183
Width: 1162
VWidth: 0
GlyphClass: 2
Flags: W
PickledData: "(dp1
S'org.pippin.gimp.org.kernagic'
p2
(dp3
S'lstem'
p4
I0
sS'rstem'
p5
I0
ssS'com.typemytype.robofont.layerData'
p6
(dp7
S'b'
(dp8
S'name'
p9
S'daggerdbl'
p10
sS'lib'
p11
(dp12
sS'unicodes'
p13
(tsS'width'
p14
I1022
sS'contours'
p15
(tsS'components'
p16
(tsS'anchors'
p17
(tsssS'org.robofab.postScriptHintData'
p18
(dp19
s."
LayerCount: 2
Fore
SplineSet
401 1453 m 257
 401 1081 l 257
 88 1081 l 257
 88 843 l 257
 401 843 l 257
 401 576 l 257
 88 576 l 257
 88 338 l 257
 401 338 l 257
 401 -222 l 257
 782 -222 l 257
 782 338 l 257
 1123 338 l 257
 1123 576 l 257
 792 576 l 257
 792 843 l 257
 1123 843 l 257
 1123 1081 l 257
 793 1081 l 257
 793 1453 l 257
 401 1453 l 257
EndSplineSet
EndChar

StartChar: uni030F
Encoding: 408 783 184
Width: 1172
VWidth: 0
Flags: W
PickledData: "(dp1
S'org.robofab.postScriptHintData'
p2
(dp3
sS'com.typemytype.robofont.layerData'
p4
(dp5
s."
AnchorPoint: "top" 608 1085 mark 0
LayerCount: 2
Fore
SplineSet
725 1262 m 257
 917 1262 l 257
 752 1683 l 257
 449 1683 l 257
 725 1262 l 257
330 1262 m 257
 509 1262 l 257
 365 1683 l 257
 34 1683 l 257
 330 1262 l 257
EndSplineSet
EndChar

StartChar: degree
Encoding: 111 176 187
Width: 814
VWidth: 0
GlyphClass: 2
Flags: W
PickledData: "(dp1
S'org.pippin.gimp.org.kernagic'
p2
(dp3
S'lstem'
p4
I0
sS'rstem'
p5
I0
ssS'com.typemytype.robofont.layerData'
p6
(dp7
sS'org.robofab.postScriptHintData'
p8
(dp9
s."
LayerCount: 2
Fore
SplineSet
421 904 m 256
 636 904 740 1065 740 1220 c 256
 740 1379 632 1523 421 1523 c 256
 204 1523 100 1379 100 1220 c 256
 100 1065 200 904 421 904 c 256
421 1076 m 256
 353 1076 288 1123 288 1219 c 256
 288 1309 353 1356 422 1356 c 256
 483 1356 550 1309 550 1219 c 256
 550 1122 486 1076 421 1076 c 256
EndSplineSet
EndChar

StartChar: dieresis
Encoding: 103 168 188
Width: 1155
VWidth: 0
GlyphClass: 4
Flags: W
PickledData: "(dp1
S'org.robofab.postScriptHintData'
p2
(dp3
sS'com.typemytype.robofont.layerData'
p4
(dp5
s."
AnchorPoint: "top" 570 1082 mark 0
LayerCount: 2
Fore
SplineSet
841 1203 m 256
 946 1203 1013 1268 1013 1377 c 256
 1013 1487 946 1554 841 1554 c 256
 735 1554 665 1487 665 1377 c 256
 665 1268 735 1203 841 1203 c 256
297 1203 m 256
 401 1203 468 1268 468 1377 c 256
 468 1487 401 1554 297 1554 c 256
 191 1554 123 1487 123 1377 c 256
 123 1268 191 1203 297 1203 c 256
EndSplineSet
EndChar

StartChar: divide
Encoding: 182 247 189
Width: 1304
VWidth: 0
GlyphClass: 2
Flags: W
PickledData: "(dp1
S'org.pippin.gimp.org.kernagic'
p2
(dp3
S'lstem'
p4
I0
sS'rstem'
p5
I0
ssS'com.typemytype.robofont.layerData'
p6
(dp7
sS'org.robofab.postScriptHintData'
p8
(dp9
s."
LayerCount: 2
Fore
SplineSet
477 1187 m 257
 477 883 l 257
 806 883 l 257
 806 1187 l 257
 477 1187 l 257
477 336 m 257
 477 15 l 257
 795 15 l 257
 795 336 l 257
 477 336 l 257
76 719 m 257
 76 485 l 257
 1196 485 l 257
 1196 719 l 257
 76 719 l 257
EndSplineSet
EndChar

StartChar: dollar
Encoding: 4 36 190
Width: 1230
VWidth: 0
GlyphClass: 2
Flags: W
PickledData: "(dp1
S'org.pippin.gimp.org.kernagic'
p2
(dp3
S'lstem'
p4
I0
sS'rstem'
p5
I0
ssS'com.typemytype.robofont.layerData'
p6
(dp7
S'b'
(dp8
S'name'
p9
S'dollar'
p10
sS'lib'
p11
(dp12
sS'unicodes'
p13
(tsS'width'
p14
I1221
sS'contours'
p15
(tsS'components'
p16
(tsS'anchors'
p17
(tsssS'org.robofab.postScriptHintData'
p18
(dp19
s."
LayerCount: 2
Fore
SplineSet
535 62 m 257
 535 -275 l 257
 722 -275 l 257
 702 62 l 257
 535 62 l 257
515 1773 m 257
 522 1438 l 257
 690 1438 l 257
 690 1773 l 257
 515 1773 l 257
EndSplineSet
Refer: 93 83 N 1 0 0 1 0 0 2
EndChar

StartChar: dotaccent
Encoding: 402 729 191
Width: 692
VWidth: 0
GlyphClass: 4
Flags: W
PickledData: "(dp1
S'org.robofab.postScriptHintData'
p2
(dp3
sS'com.typemytype.robofont.layerData'
p4
(dp5
s."
AnchorPoint: "top" 349 1082 mark 0
LayerCount: 2
Fore
SplineSet
574 1468 m 256
 574 1588 487 1671 351 1671 c 256
 215 1671 128 1588 128 1468 c 256
 128 1340 215 1256 351 1256 c 256
 487 1256 574 1340 574 1468 c 256
EndSplineSet
EndChar

StartChar: dotlessi
Encoding: 240 305 192
Width: 642
VWidth: 0
GlyphClass: 2
Flags: W
PickledData: "(dp1
S'org.pippin.gimp.org.kernagic'
p2
(dp3
S'lstem'
p4
I0
sS'rstem'
p5
I0
ssS'com.typemytype.robofont.layerData'
p6
(dp7
sS'org.robofab.postScriptHintData'
p8
(dp9
s."
AnchorPoint: "top" 329 1082 basechar 0
LayerCount: 2
Fore
SplineSet
118 1082 m 257
 118 0 l 257
 532 0 l 257
 532 1082 l 257
 118 1082 l 257
EndSplineSet
EndChar

StartChar: uni0237
Encoding: 65539 567 193
Width: 739
VWidth: 0
GlyphClass: 2
Flags: W
PickledData: "(dp1
S'org.pippin.gimp.org.kernagic'
p2
(dp3
S'lstem'
p4
I0
sS'rstem'
p5
I0
ssS'com.fontlab.hintData'
p6
(dp7
S'vhints'
p8
((dp9
S'position'
p10
I111
sS'width'
p11
I142
stp12
sS'hhints'
p13
((dp14
g10
I-479
sg11
I112
stp15
ssS'com.typemytype.robofont.layerData'
p16
(dp17
sS'org.robofab.postScriptHintData'
p18
(dp19
s."
HStem: -479 112
VStem: 111 142
AnchorPoint: "top" 392 1081 basechar 0
LayerCount: 2
Fore
SplineSet
180 1082 m 257
 180 -4 l 258
 180 -142 154 -186 -20 -275 c 257
 -122 -325 l 257
 34 -618 l 257
 131 -569 l 257
 411 -426 593 -355 593 -37 c 258
 593 1082 l 257
 180 1082 l 257
EndSplineSet
EndChar

StartChar: e
Encoding: 69 101 194
Width: 1218
VWidth: 0
GlyphClass: 2
Flags: W
PickledData: "(dp1
S'org.pippin.gimp.org.kernagic'
p2
(dp3
S'lstem'
p4
I0
sS'rstem'
p5
I747
ssS'com.fontlab.hintData'
p6
(dp7
S'hhints'
p8
((dp9
S'position'
p10
I-19
sS'width'
p11
I94
s(dp12
g10
I982
sg11
I92
stp13
ssS'com.typemytype.robofont.layerData'
p14
(dp15
sS'org.robofab.postScriptHintData'
p16
(dp17
s."
HStem: -19 94 982 92
AnchorPoint: "bot" 673 0 basechar 0
AnchorPoint: "top" 631 1082 basechar 0
LayerCount: 2
Fore
SplineSet
466 636 m 257
 471 806 546 849 640 849 c 258
 642 849 l 258
 730 849 785 802 785 641 c 258
 785 636 l 257
 466 636 l 257
671 -20 m 256
 863 -20 1037 38 1119 123 c 257
 1032 324 l 257
 1013 324 l 257
 932 271 823 236 717 236 c 256
 591 236 493 315 476 424 c 257
 1114 424 l 257
 1114 424 1128 476 1128 561 c 258
 1128 571 l 257
 1115 876 995 1101 628 1101 c 256
 279 1101 69 884 69 543 c 256
 69 198 297 -20 671 -20 c 256
EndSplineSet
EndChar

StartChar: eight
Encoding: 24 56 202
Width: 1414
VWidth: 0
GlyphClass: 2
Flags: W
PickledData: "(dp1
S'org.pippin.gimp.org.kernagic'
p2
(dp3
S'lstem'
p4
I0
sS'rstem'
p5
I0
ssS'com.typemytype.robofont.layerData'
p6
(dp7
sS'org.robofab.postScriptHintData'
p8
(dp9
s."
LayerCount: 2
Fore
SplineSet
713 843 m 257
 627 889 568 985 568 1084 c 256
 568 1173 625 1229 713 1229 c 256
 799 1229 849 1174 849 1084 c 256
 849 986 797 889 713 843 c 257
713 232 m 256
 618 232 579 288 579 411 c 256
 579 541 631 650 713 683 c 257
 793 650 841 542 841 412 c 256
 841 289 808 232 713 232 c 256
713 -20 m 256
 1084 -20 1281 138 1281 398 c 256
 1281 595 1204 729 1068 783 c 257
 1190 832 1258 938 1258 1110 c 256
 1258 1350 1023 1476 709 1476 c 256
 397 1476 159 1350 159 1110 c 256
 159 931 234 828 364 783 c 257
 222 732 133 587 133 398 c 256
 133 138 338 -20 713 -20 c 256
EndSplineSet
EndChar

StartChar: emdash
Encoding: 445 8212 205
Width: 2273
VWidth: 0
GlyphClass: 2
Flags: W
PickledData: "(dp1
S'org.robofab.postScriptHintData'
p2
(dp3
sS'com.typemytype.robofont.layerData'
p4
(dp5
s."
LayerCount: 2
Fore
SplineSet
60 430 m 257
 2213 430 l 257
 2213 660 l 257
 60 660 l 257
 60 430 l 257
EndSplineSet
EndChar

StartChar: endash
Encoding: 444 8211 206
Width: 1126
VWidth: 0
GlyphClass: 2
Flags: W
PickledData: "(dp1
S'org.pippin.gimp.org.kernagic'
p2
(dp3
S'lstem'
p4
I0
sS'rstem'
p5
I0
ssS'com.typemytype.robofont.layerData'
p6
(dp7
sS'org.robofab.postScriptHintData'
p8
(dp9
s."
LayerCount: 2
Fore
SplineSet
156 416 m 257
 970 416 l 257
 970 670 l 257
 156 670 l 257
 156 416 l 257
EndSplineSet
EndChar

StartChar: eng
Encoding: 266 331 207
Width: 1259
VWidth: 0
GlyphClass: 2
Flags: W
PickledData: "(dp1
S'org.robofab.postScriptHintData'
p2
(dp3
sS'com.typemytype.robofont.layerData'
p4
(dp5
s."
LayerCount: 2
Fore
SplineSet
764 199 m 257
 764 -21 l 258
 764 -254 732 -277 551 -277 c 257
 584 -526 l 257
 1049 -504 1178 -368 1178 -71 c 258
 1178 199 l 257
 764 199 l 257
EndSplineSet
Refer: 275 110 N 1 0 0 1 0 0 2
EndChar

StartChar: equal
Encoding: 29 61 209
Width: 1329
VWidth: 0
GlyphClass: 2
Flags: W
PickledData: "(dp1
S'org.pippin.gimp.org.kernagic'
p2
(dp3
S'lstem'
p4
I0
sS'rstem'
p5
I0
ssS'com.typemytype.robofont.layerData'
p6
(dp7
S'b'
(dp8
S'name'
p9
S'equal'
p10
sS'lib'
p11
(dp12
sS'unicodes'
p13
(tsS'width'
p14
I1050
sS'contours'
p15
(tsS'components'
p16
(tsS'anchors'
p17
(tsssS'org.robofab.postScriptHintData'
p18
(dp19
s."
LayerCount: 2
Fore
SplineSet
84 751 m 257
 84 511 l 257
 1209 511 l 257
 1209 751 l 257
 84 751 l 257
84 1196 m 257
 84 957 l 257
 1209 957 l 257
 1209 1196 l 257
 84 1196 l 257
EndSplineSet
EndChar

StartChar: estimated
Encoding: 465 8494 210
Width: 1147
VWidth: 0
GlyphClass: 2
Flags: W
PickledData: "(dp1
S'org.robofab.postScriptHintData'
p2
(dp3
sS'com.typemytype.robofont.layerData'
p4
(dp5
S'b'
(dp6
S'name'
p7
S'estimated'
p8
sS'lib'
p9
(dp10
sS'unicodes'
p11
(tsS'width'
p12
I1223
sS'contours'
p13
(tsS'components'
p14
(tsS'anchors'
p15
(tsss."
LayerCount: 2
Fore
SplineSet
880 584 m 257
 327 584 l 257
 345 836 433 1002 600 1002 c 256
 804 1002 880 812 880 584 c 257
58 524 m 256
 58 214 242 -20 610 -20 c 256
 812 -20 942 65 1040 183 c 257
 990 232 l 257
 895 129 787 53 610 53 c 256
 388 53 329 236 328 504 c 257
 1048 504 l 257
 1048 840 905 1062 594 1062 c 256
 281 1062 58 834 58 524 c 256
EndSplineSet
EndChar

StartChar: eth
Encoding: 175 240 211
Width: 1232
VWidth: 0
GlyphClass: 2
Flags: W
PickledData: "(dp1
S'org.pippin.gimp.org.kernagic'
p2
(dp3
S'lstem'
p4
I0
sS'rstem'
p5
I0
ssS'com.typemytype.robofont.layerData'
p6
(dp7
sS'org.robofab.postScriptHintData'
p8
(dp9
s."
LayerCount: 2
Fore
SplineSet
825 471 m 256
 825 336 752 254 630 254 c 256
 505 254 427 337 427 481 c 256
 427 619 495 707 625 707 c 256
 751 707 825 614 825 471 c 256
55 1560 m 257
 273 1355 l 257
 110 1289 l 257
 216 1082 l 257
 452 1170 l 257
 525 1106 625 1003 681 919 c 257
 642 937 546 941 546 941 c 257
 251 941 79 753 79 470 c 256
 79 166 313 -25 626 -25 c 256
 980 -25 1151 179 1162 498 c 256
 1174 861 953 1059 721 1279 c 257
 954 1367 l 257
 826 1578 l 257
 531 1460 l 257
 422 1560 l 257
 55 1560 l 257
EndSplineSet
EndChar

StartChar: exclam
Encoding: 1 33 212
Width: 779
VWidth: 0
GlyphClass: 2
Flags: W
PickledData: "(dp1
S'org.pippin.gimp.org.kernagic'
p2
(dp3
S'lstem'
p4
I0
sS'rstem'
p5
I0
ssS'com.typemytype.robofont.layerData'
p6
(dp7
sS'org.robofab.postScriptHintData'
p8
(dp9
s."
LayerCount: 2
Fore
SplineSet
387 -6 m 256
 481 -6 560 77 560 174 c 256
 560 275 481 352 387 352 c 256
 292 352 210 275 210 174 c 256
 210 76 292 -6 387 -6 c 256
326 478 m 257
 470 478 l 257
 536 1315 l 257
 536 1595 l 257
 251 1595 l 257
 251 1315 l 257
 326 478 l 257
EndSplineSet
EndChar

StartChar: f
Encoding: 70 102 214
Width: 865
VWidth: 0
GlyphClass: 2
Flags: W
PickledData: "(dp1
S'org.pippin.gimp.org.kernagic'
p2
(dp3
S'lstem'
p4
I182
sS'rstem'
p5
I417
ssS'com.fontlab.hintData'
p6
(dp7
S'vhints'
p8
((dp9
S'position'
p10
I269
sS'width'
p11
I166
stp12
sS'hhints'
p13
((dp14
g10
I952
sg11
I89
s(dp15
g10
I1358
sg11
I122
stp16
ssS'com.typemytype.robofont.layerData'
p17
(dp18
sS'org.robofab.postScriptHintData'
p19
(dp20
s."
HStem: 952 89 1358 122
VStem: 269 166
AnchorPoint: "top" 486 1456 basechar 0
LayerCount: 2
Fore
SplineSet
575 1522 m 256
 358 1522 158 1437 158 1157 c 258
 158 1076 l 257
 31 1052 l 257
 26 851 l 257
 158 851 l 257
 158 0 l 257
 572 0 l 257
 572 851 l 257
 833 851 l 257
 833 1082 l 257
 572 1082 l 257
 572 1157 l 258
 572 1229 635 1261 728 1261 c 256
 763 1261 790 1259 873 1248 c 257
 882 1488 l 257
 845 1498 752 1522 575 1522 c 256
EndSplineSet
EndChar

StartChar: five
Encoding: 21 53 215
Width: 1414
VWidth: 0
GlyphClass: 2
Flags: W
PickledData: "(dp1
S'org.pippin.gimp.org.kernagic'
p2
(dp3
S'lstem'
p4
I0
sS'rstem'
p5
I0
ssS'com.typemytype.robofont.layerData'
p6
(dp7
sS'org.robofab.postScriptHintData'
p8
(dp9
s."
LayerCount: 2
Fore
SplineSet
691 700 m 256
 800 700 860 608 860 509 c 256
 860 356 793 283 662 283 c 256
 574 283 437 316 379 427 c 257
 357 427 l 257
 165 212 l 257
 281 43 440 -20 715 -20 c 256
 1047 -20 1237 204 1237 489 c 256
 1237 716 1102 964 765 964 c 256
 668 964 605 942 553 900 c 257
 595 1187 l 257
 1138 1187 l 257
 1176 1456 l 257
 286 1456 l 257
 217 627 l 257
 512 579 l 257
 521 661 573 700 691 700 c 256
EndSplineSet
EndChar

StartChar: florin
Encoding: 318 402 217
Width: 1256
VWidth: 0
GlyphClass: 2
Flags: W
PickledData: "(dp1
S'org.robofab.postScriptHintData'
p2
(dp3
s."
LayerCount: 2
Fore
SplineSet
410 1283 m 258
 369 1006 l 257
 126 1006 l 257
 111 937 l 257
 359 937 l 257
 253 96 l 257
 212 -202 175 -280 46 -280 c 256
 -3 -280 -65 -269 -146 -254 c 257
 -181 -383 l 257
 -58 -430 49 -455 140 -455 c 256
 372 -455 507 -290 572 110 c 257
 680 937 l 257
 1038 937 l 257
 1053 1006 l 257
 696 1006 l 257
 754 1347 l 258
 782 1513 867 1559 954 1568 c 256
 964 1569 974 1569 983 1569 c 256
 1132 1569 1162 1458 1184 1310 c 257
 1345 1310 l 257
 1332 1583 1232 1784 943 1784 c 256
 657 1784 462 1628 410 1283 c 258
EndSplineSet
EndChar

StartChar: foundryicon
Encoding: 488 -1 218
Width: 1347
VWidth: 0
GlyphClass: 2
Flags: W
PickledData: "(dp1
S'org.robofab.postScriptHintData'
p2
(dp3
s."
LayerCount: 2
Fore
SplineSet
280 2 m 257
 669 278 l 257
 1066 2 l 257
 922 461 l 257
 1313 755 l 257
 828 755 l 257
 669 1215 l 257
 519 755 l 257
 34 755 l 257
 423 461 l 257
 280 2 l 257
485 405 m 257
 485 672 l 257
 591 672 l 257
 761 523 l 257
 761 672 l 257
 867 672 l 257
 867 405 l 257
 761 405 l 257
 591 552 l 257
 591 405 l 257
 485 405 l 257
EndSplineSet
EndChar

StartChar: four
Encoding: 20 52 219
Width: 1414
VWidth: 0
GlyphClass: 2
Flags: W
PickledData: "(dp1
S'org.pippin.gimp.org.kernagic'
p2
(dp3
S'lstem'
p4
I0
sS'rstem'
p5
I0
ssS'com.typemytype.robofont.layerData'
p6
(dp7
sS'org.robofab.postScriptHintData'
p8
(dp9
s."
LayerCount: 2
Fore
SplineSet
385 569 m 257
 674 1077 l 257
 674 569 l 257
 385 569 l 257
675 0 m 257
 1114 0 l 257
 1114 311 l 257
 1327 311 l 257
 1343 576 l 257
 1114 576 l 257
 1114 1456 l 257
 598 1456 l 257
 80 550 l 257
 90 311 l 257
 675 311 l 257
 675 0 l 257
EndSplineSet
EndChar

StartChar: fraction
Encoding: 459 8260 220
Width: 1220
VWidth: 0
GlyphClass: 2
Flags: W
PickledData: "(dp1
S'org.robofab.postScriptHintData'
p2
(dp3
s."
LayerCount: 2
Fore
SplineSet
21 0 m 257
 258 0 l 257
 1401 1605 l 257
 1181 1605 l 257
 21 0 l 257
EndSplineSet
EndChar

StartChar: g
Encoding: 71 103 221
Width: 1272
VWidth: 0
GlyphClass: 2
Flags: W
PickledData: "(dp1
S'org.pippin.gimp.org.kernagic'
p2
(dp3
S'lstem'
p4
I0
sS'rstem'
p5
I0
ssS'com.fontlab.hintData'
p6
(dp7
S'vhints'
p8
((dp9
S'position'
p10
I128
sS'width'
p11
I122
s(dp12
g10
I977
sg11
I125
s(dp13
g10
I977
sg11
I36
stp14
sS'hhints'
p15
((dp16
g10
I-426
sg11
I101
s(dp17
g10
I0
sg11
I93
s(dp18
g10
I982
sg11
I92
stp19
ssS'com.typemytype.robofont.layerData'
p20
(dp21
sS'org.robofab.postScriptHintData'
p22
(dp23
s."
HStem: -426 101 0 93 982 92
VStem: 128 122 977 125 977 36
AnchorPoint: "top" 574 1082 basechar 0
LayerCount: 2
Fore
SplineSet
621 236 m 256
 544 236 481 321 481 567 c 256
 481 838 589 844 628 844 c 256
 705 844 721 821 758 789 c 257
 758 277 l 257
 724 256 667 236 621 236 c 256
794 -30 m 256
 794 -200 666 -265 504 -265 c 256
 426 -265 337 -249 242 -223 c 257
 211 -223 l 257
 183 -476 l 257
 310 -511 444 -519 591 -519 c 256
 878 -519 1164 -381 1164 -32 c 258
 1164 1082 l 257
 756 1082 l 257
 758 996 l 257
 713 1050 639 1101 515 1101 c 256
 325 1101 69 970 69 569 c 256
 69 64 343 3 499 3 c 256
 654 3 736 51 780 98 c 257
 790 26 l 258
 793 6 794 -13 794 -30 c 256
EndSplineSet
EndChar

StartChar: germandbls
Encoding: 158 223 227
Width: 1354
VWidth: 0
GlyphClass: 2
Flags: W
PickledData: "(dp1
S'org.pippin.gimp.org.kernagic'
p2
(dp3
S'lstem'
p4
I0
sS'rstem'
p5
I0
ssS'com.typemytype.robofont.layerData'
p6
(dp7
S'b'
(dp8
S'name'
p9
S'germandbls'
p10
sS'lib'
p11
(dp12
sS'unicodes'
p13
(tsS'width'
p14
I1278
sS'contours'
p15
(tsS'components'
p16
(tsS'anchors'
p17
(tsssS'org.robofab.postScriptHintData'
p18
(dp19
s."
LayerCount: 2
Fore
SplineSet
930 -20 m 256
 1216 -20 1340 107 1340 336 c 256
 1340 663 965 707 965 741 c 256
 965 775 1185 837 1185 1073 c 256
 1185 1333 942 1447 654 1447 c 256
 349 1447 107 1267 107 970 c 258
 107 -1 l 257
 521 -1 l 257
 521 916 l 258
 521 1060 560 1167 680 1167 c 256
 751 1167 808 1149 808 1069 c 256
 808 916 650 881 650 706 c 256
 650 515 897 524 897 347 c 256
 897 269 850 252 797 252 c 256
 748 252 684 274 653 292 c 257
 582 49 l 257
 722 -4 843 -20 930 -20 c 256
EndSplineSet
EndChar

StartChar: grave
Encoding: 64 96 228
Width: 1123
VWidth: 0
GlyphClass: 4
Flags: W
PickledData: "(dp1
S'org.robofab.postScriptHintData'
p2
(dp3
sS'com.typemytype.robofont.layerData'
p4
(dp5
s."
AnchorPoint: "top" 584 1085 mark 0
LayerCount: 2
Fore
SplineSet
429 1207 m 257
 650 1207 l 257
 483 1623 l 257
 79 1623 l 257
 429 1207 l 257
EndSplineSet
EndChar

StartChar: greater
Encoding: 30 62 229
Width: 1107
VWidth: 0
GlyphClass: 2
Flags: W
PickledData: "(dp1
S'org.pippin.gimp.org.kernagic'
p2
(dp3
S'lstem'
p4
I0
sS'rstem'
p5
I0
ssS'com.typemytype.robofont.layerData'
p6
(dp7
S'b'
(dp8
S'name'
p9
S'greater'
p10
sS'lib'
p11
(dp12
sS'unicodes'
p13
(tsS'width'
p14
I1107
sS'contours'
p15
(tsS'components'
p16
(tsS'anchors'
p17
(tsssS'org.robofab.postScriptHintData'
p18
(dp19
s."
LayerCount: 2
Fore
SplineSet
81 1048 m 257
 653 753 l 257
 81 484 l 257
 81 201 l 257
 1031 670 l 257
 1031 823 l 257
 81 1320 l 257
 81 1048 l 257
EndSplineSet
EndChar

StartChar: greaterequal
Encoding: 480 8805 230
Width: 1192
VWidth: 0
GlyphClass: 2
Flags: W
PickledData: "(dp1
S'org.pippin.gimp.org.kernagic'
p2
(dp3
S'lstem'
p4
I0
sS'rstem'
p5
I0
ssS'com.typemytype.robofont.layerData'
p6
(dp7
S'b'
(dp8
S'name'
p9
S'greaterequal'
p10
sS'lib'
p11
(dp12
sS'unicodes'
p13
(tsS'width'
p14
I1192
sS'contours'
p15
(tsS'components'
p16
(tsS'anchors'
p17
(tsssS'org.robofab.postScriptHintData'
p18
(dp19
s."
LayerCount: 2
Fore
SplineSet
140 1 m 257
 1071 1 l 257
 1071 192 l 257
 140 194 l 257
 140 1 l 257
138 209 m 257
 1072 682 l 257
 1072 825 l 257
 138 1302 l 257
 138 1056 l 257
 821 753 l 257
 138 464 l 257
 138 209 l 257
EndSplineSet
EndChar

StartChar: guillemotleft
Encoding: 106 171 231
Width: 1314
VWidth: 0
GlyphClass: 2
Flags: W
PickledData: "(dp1
S'org.pippin.gimp.org.kernagic'
p2
(dp3
S'lstem'
p4
I0
sS'rstem'
p5
I0
ssS'com.typemytype.robofont.layerData'
p6
(dp7
S'b'
(dp8
S'name'
p9
S'guillemotleft'
p10
sS'lib'
p11
(dp12
sS'unicodes'
p13
(tsS'width'
p14
I994
sS'contours'
p15
(tsS'components'
p16
(tsS'anchors'
p17
(tsssS'org.robofab.postScriptHintData'
p18
(dp19
s."
LayerCount: 2
Fore
SplineSet
887 124 m 257
 1194 124 l 257
 953 581 l 257
 1196 1038 l 257
 888 1038 l 257
 630 578 l 257
 887 124 l 257
394 124 m 257
 700 124 l 257
 458 581 l 257
 704 1038 l 257
 395 1038 l 257
 136 578 l 257
 394 124 l 257
EndSplineSet
EndChar

StartChar: guillemotright
Encoding: 122 187 232
Width: 1314
VWidth: 0
GlyphClass: 2
Flags: W
PickledData: "(dp1
S'org.pippin.gimp.org.kernagic'
p2
(dp3
S'lstem'
p4
I0
sS'rstem'
p5
I0
ssS'com.typemytype.robofont.layerData'
p6
(dp7
sS'org.robofab.postScriptHintData'
p8
(dp9
s."
LayerCount: 2
Fore
SplineSet
426 1038 m 257
 118 1038 l 257
 361 581 l 257
 120 124 l 257
 427 124 l 257
 684 578 l 257
 426 1038 l 257
919 1038 m 257
 610 1038 l 257
 856 581 l 257
 614 124 l 257
 920 124 l 257
 1178 578 l 257
 919 1038 l 257
EndSplineSet
EndChar

StartChar: guilsinglleft
Encoding: 457 8249 233
Width: 901
VWidth: 0
GlyphClass: 2
Flags: W
PickledData: "(dp1
S'org.robofab.postScriptHintData'
p2
(dp3
s."
LayerCount: 2
Fore
SplineSet
404 101 m 257
 779 101 l 257
 526 560 l 257
 783 1042 l 257
 413 1042 l 257
 136 564 l 257
 404 101 l 257
EndSplineSet
EndChar

StartChar: guilsinglright
Encoding: 458 8250 234
Width: 901
VWidth: 0
GlyphClass: 2
Flags: W
PickledData: "(dp1
S'org.pippin.gimp.org.kernagic'
p2
(dp3
S'lstem'
p4
I0
sS'rstem'
p5
I0
ssS'com.typemytype.robofont.layerData'
p6
(dp7
S'b'
(dp8
S'name'
p9
S'guilsinglright'
p10
sS'lib'
p11
(dp12
sS'unicodes'
p13
(tsS'width'
p14
I766
sS'contours'
p15
(tsS'components'
p16
(tsS'anchors'
p17
(tsssS'org.robofab.postScriptHintData'
p18
(dp19
s."
LayerCount: 2
Fore
SplineSet
488 1042 m 257
 118 1042 l 257
 375 560 l 257
 122 101 l 257
 497 101 l 257
 765 564 l 257
 488 1042 l 257
EndSplineSet
EndChar

StartChar: h
Encoding: 72 104 235
Width: 1292
VWidth: 0
GlyphClass: 2
Flags: W
PickledData: "(dp1
S'org.pippin.gimp.org.kernagic'
p2
(dp3
S'lstem'
p4
I0
sS'rstem'
p5
I0
ssS'com.fontlab.hintData'
p6
(dp7
S'vhints'
p8
((dp9
S'position'
p10
I193
sS'width'
p11
I122
s(dp12
g10
I910
sg11
I122
stp13
sS'hhints'
p14
((dp15
g10
I982
sg11
I92
stp16
ssS'com.typemytype.robofont.layerData'
p17
(dp18
sS'org.robofab.postScriptHintData'
p19
(dp20
s."
HStem: 982 92
VStem: 193 122 910 122
AnchorPoint: "top" 496 1560 basechar 0
LayerCount: 2
Fore
SplineSet
128 0 m 257
 542 0 l 257
 542 628 l 258
 542 804 607 844 660 844 c 256
 731 844 771 804 771 616 c 258
 771 0 l 257
 1184 0 l 257
 1184 674 l 258
 1184 936 1080 1101 836 1101 c 256
 676 1101 586 1029 536 929 c 257
 542 1162 l 257
 542 1560 l 257
 128 1540 l 257
 128 0 l 257
EndSplineSet
EndChar

StartChar: hungarumlaut
Encoding: 406 733 238
Width: 1034
VWidth: 0
GlyphClass: 4
Flags: W
PickledData: "(dp1
S'org.robofab.postScriptHintData'
p2
(dp3
sS'com.typemytype.robofont.layerData'
p4
(dp5
s."
AnchorPoint: "top" 419 1085 mark 0
LayerCount: 2
Fore
SplineSet
519 1262 m 257
 698 1262 l 257
 994 1683 l 257
 663 1683 l 257
 519 1262 l 257
111 1262 m 257
 302 1262 l 257
 579 1683 l 257
 276 1683 l 257
 111 1262 l 257
EndSplineSet
EndChar

StartChar: hyphen
Encoding: 13 45 239
Width: 990
VWidth: 0
GlyphClass: 4
Flags: W
PickledData: "(dp1
S'org.pippin.gimp.org.kernagic'
p2
(dp3
S'lstem'
p4
I0
sS'rstem'
p5
I0
ssS'com.typemytype.robofont.layerData'
p6
(dp7
sS'org.robofab.postScriptHintData'
p8
(dp9
s."
LayerCount: 2
Fore
SplineSet
134 397 m 257
 869 397 l 257
 869 640 l 257
 134 640 l 257
 134 397 l 257
EndSplineSet
EndChar

StartChar: i
Encoding: 73 105 240
Width: 642
VWidth: 0
GlyphClass: 2
Flags: HW
PickledData: "(dp1
S'org.robofab.postScriptHintData'
p2
(dp3
sS'com.typemytype.robofont.layerData'
p4
(dp5
s."
AnchorPoint: "top" 346 1082 basechar 0
LayerCount: 2
Fore
SplineSet
118 1082 m 257
 118 0 l 257
 532 0 l 257
 532 1082 l 257
 118 1082 l 257
554 1468 m 256
 554 1588 467 1671 331 1671 c 256
 195 1671 108 1588 108 1468 c 256
 108 1340 195 1256 331 1256 c 256
 467 1256 554 1340 554 1468 c 256
EndSplineSet
EndChar

StartChar: infinity
Encoding: 475 8734 251
Width: 1821
VWidth: 0
GlyphClass: 2
Flags: W
PickledData: "(dp1
S'org.pippin.gimp.org.kernagic'
p2
(dp3
S'lstem'
p4
I0
sS'rstem'
p5
I0
ssS'com.typemytype.robofont.layerData'
p6
(dp7
S'b'
(dp8
S'name'
p9
S'infinity'
p10
sS'lib'
p11
(dp12
sS'unicodes'
p13
(tsS'width'
p14
I1647
sS'contours'
p15
(tsS'components'
p16
(tsS'anchors'
p17
(tsssS'org.robofab.postScriptHintData'
p18
(dp19
s."
LayerCount: 2
Fore
SplineSet
1498 686 m 256
 1498 563 1450 490 1345 490 c 256
 1262 490 1195 541 1103 660 c 257
 1177 758 1255 825 1341 825 c 256
 1434 825 1498 759 1498 686 c 256
743 658 m 257
 665 555 581 490 496 490 c 256
 397 490 327 576 327 658 c 256
 327 749 390 825 489 825 c 256
 585 825 666 764 743 658 c 257
920 771 m 257
 795 940 664 1053 490 1053 c 256
 289 1053 128 887 128 681 c 256
 128 454 264 259 494 259 c 256
 664 259 798 375 920 540 c 257
 1060 351 1187 259 1343 259 c 256
 1546 259 1705 426 1705 663 c 256
 1705 888 1575 1053 1345 1053 c 256
 1167 1053 1037 935 920 771 c 257
EndSplineSet
EndChar

StartChar: integral
Encoding: 476 8747 252
Width: 671
VWidth: 0
GlyphClass: 2
Flags: W
PickledData: "(dp1
S'org.pippin.gimp.org.kernagic'
p2
(dp3
S'lstem'
p4
I0
sS'rstem'
p5
I0
ssS'com.typemytype.robofont.layerData'
p6
(dp7
S'b'
(dp8
S'name'
p9
S'integral'
p10
sS'lib'
p11
(dp12
sS'unicodes'
p13
(tsS'width'
p14
I994
sS'contours'
p15
(tsS'components'
p16
(tsS'anchors'
p17
(tsssS'org.robofab.postScriptHintData'
p18
(dp19
s."
LayerCount: 2
Fore
SplineSet
118 1197 m 258
 118 -45 l 258
 118 -193 57 -208 9 -208 c 256
 -3 -208 -15 -207 -24 -207 c 256
 -54 -207 -87 -200 -123 -196 c 257
 -123 -498 l 257
 -44 -520 22 -529 77 -529 c 256
 322 -529 464 -332 464 -37 c 258
 464 1206 l 258
 464 1366 496 1416 605 1416 c 256
 625 1416 650 1413 676 1412 c 257
 676 1642 l 257
 595 1661 530 1673 471 1673 c 256
 236 1673 118 1487 118 1197 c 258
EndSplineSet
EndChar

StartChar: j
Encoding: 74 106 255
Width: 739
VWidth: 0
GlyphClass: 2
Flags: HW
PickledData: "(dp1
S'org.robofab.postScriptHintData'
p2
(dp3
sS'com.typemytype.robofont.layerData'
p4
(dp5
s."
LayerCount: 2
Fore
SplineSet
180 1082 m 257
 180 -4 l 258
 180 -142 154 -186 -20 -275 c 257
 -122 -325 l 257
 34 -618 l 257
 131 -569 l 257
 411 -426 593 -355 593 -37 c 258
 593 1082 l 257
 180 1082 l 257
617 1467 m 256
 617 1587 530 1670 394 1670 c 256
 258 1670 171 1587 171 1467 c 256
 171 1339 258 1255 394 1255 c 256
 530 1255 617 1339 617 1467 c 256
EndSplineSet
EndChar

StartChar: k
Encoding: 75 107 257
Width: 1263
VWidth: 0
GlyphClass: 2
Flags: W
PickledData: "(dp1
S'org.pippin.gimp.org.kernagic'
p2
(dp3
S'lstem'
p4
I0
sS'rstem'
p5
I671
ssS'com.typemytype.robofont.layerData'
p6
(dp7
sS'org.robofab.postScriptHintData'
p8
(dp9
s."
AnchorPoint: "bot" 680 0 basechar 0
LayerCount: 2
Fore
SplineSet
128 0 m 257
 542 0 l 257
 542 411 l 257
 567 438 l 257
 836 0 l 257
 1245 0 l 257
 1245 33 l 257
 878 582 l 257
 1236 1065 l 257
 1236 1082 l 257
 812 1082 l 257
 537 711 l 257
 542 825 l 257
 542 1560 l 257
 128 1540 l 257
 128 0 l 257
EndSplineSet
EndChar

StartChar: kgreenlandic
Encoding: 247 312 259
Width: 1219
VWidth: 0
GlyphClass: 2
Flags: W
PickledData: "(dp1
S'org.robofab.postScriptHintData'
p2
(dp3
s."
LayerCount: 2
Fore
SplineSet
95 0 m 257
 401 0 l 257
 401 352 l 257
 462 419 l 257
 756 0 l 257
 1112 0 l 257
 1112 2 l 257
 700 587 l 257
 1092 1065 l 257
 1092 1082 l 257
 736 1082 l 257
 395 650 l 257
 401 864 l 257
 401 1082 l 257
 95 1082 l 257
 95 0 l 257
EndSplineSet
EndChar

StartChar: l
Encoding: 76 108 260
Width: 797
VWidth: 0
GlyphClass: 2
Flags: W
PickledData: "(dp1
S'org.pippin.gimp.org.kernagic'
p2
(dp3
S'lstem'
p4
I0
sS'rstem'
p5
I238
ssS'com.fontlab.hintData'
p6
(dp7
S'vhints'
p8
((dp9
S'position'
p10
I193
sS'width'
p11
I122
stp12
sS'hhints'
p13
((dp14
g10
I-11
sg11
I87
stp15
ssS'com.typemytype.robofont.layerData'
p16
(dp17
sS'org.robofab.postScriptHintData'
p18
(dp19
s."
HStem: -11 87
VStem: 193 122
AnchorPoint: "top" 320 1571 basechar 0
LayerCount: 2
Fore
SplineSet
686 -10 m 258
 737 -6 l 257
 749 247 l 257
 703 251 l 258
 560 263 546 314 546 365 c 258
 546 1560 l 257
 132 1540 l 257
 132 376 l 258
 132 107 256 -12 607 -12 c 256
 632 -12 659 -12 686 -10 c 258
EndSplineSet
EndChar

StartChar: less
Encoding: 28 60 265
Width: 1107
VWidth: 0
GlyphClass: 2
Flags: W
PickledData: "(dp1
S'org.pippin.gimp.org.kernagic'
p2
(dp3
S'lstem'
p4
I0
sS'rstem'
p5
I0
ssS'com.typemytype.robofont.layerData'
p6
(dp7
S'b'
(dp8
S'name'
p9
S'less'
p10
sS'lib'
p11
(dp12
sS'unicodes'
p13
(tsS'width'
p14
I1107
sS'contours'
p15
(tsS'components'
p16
(tsS'anchors'
p17
(tsssS'org.robofab.postScriptHintData'
p18
(dp19
s."
LayerCount: 2
Fore
SplineSet
998 202 m 257
 998 485 l 257
 428 753 l 257
 998 1049 l 257
 998 1321 l 257
 49 822 l 257
 49 669 l 257
 998 202 l 257
EndSplineSet
EndChar

StartChar: lessequal
Encoding: 479 8804 266
Width: 1192
VWidth: 0
GlyphClass: 2
Flags: W
PickledData: "(dp1
S'org.robofab.postScriptHintData'
p2
(dp3
sS'com.typemytype.robofont.layerData'
p4
(dp5
s."
LayerCount: 2
Fore
SplineSet
108 -10 m 257
 1050 -10 l 257
 1050 180 l 257
 108 178 l 257
 108 -10 l 257
1054 349 m 257
 1054 603 l 257
 432 827 l 257
 1060 1054 l 257
 1060 1300 l 257
 127 898 l 257
 127 750 l 257
 1054 349 l 257
EndSplineSet
EndChar

StartChar: logicalnot
Encoding: 107 172 267
Width: 1180
VWidth: 0
GlyphClass: 2
Flags: W
PickledData: "(dp1
S'org.pippin.gimp.org.kernagic'
p2
(dp3
S'lstem'
p4
I0
sS'rstem'
p5
I0
ssS'com.typemytype.robofont.layerData'
p6
(dp7
sS'org.robofab.postScriptHintData'
p8
(dp9
s."
LayerCount: 2
Fore
SplineSet
90 868 m 257
 90 625 l 257
 867 625 l 257
 867 248 l 257
 1108 248 l 257
 1108 868 l 257
 90 868 l 257
EndSplineSet
EndChar

StartChar: lozenge
Encoding: 481 9674 268
Width: 1233
VWidth: 0
GlyphClass: 2
Flags: W
PickledData: "(dp1
S'org.pippin.gimp.org.kernagic'
p2
(dp3
S'lstem'
p4
I0
sS'rstem'
p5
I0
ssS'com.typemytype.robofont.layerData'
p6
(dp7
S'b'
(dp8
S'name'
p9
S'lozenge'
p10
sS'lib'
p11
(dp12
sS'unicodes'
p13
(tsS'width'
p14
I1164
sS'contours'
p15
(tsS'components'
p16
(tsS'anchors'
p17
(tsssS'org.robofab.postScriptHintData'
p18
(dp19
s."
LayerCount: 2
Fore
SplineSet
945 731 m 257
 682 237 863 659 599 165 c 257
 339 655 540 237 285 729 c 257
 547 1222 352 807 617 1297 c 257
 869 802 690 1220 945 731 c 257
542 1505 m 257
 88 727 l 257
 535 -45 l 257
 681 -45 l 257
 1142 727 l 257
 692 1505 l 257
 542 1505 l 257
EndSplineSet
EndChar

StartChar: m
Encoding: 77 109 270
Width: 1938
VWidth: 0
GlyphClass: 2
Flags: W
PickledData: "(dp1
S'org.pippin.gimp.org.kernagic'
p2
(dp3
S'lstem'
p4
I0
sS'rstem'
p5
I0
ssS'com.fontlab.hintData'
p6
(dp7
S'vhints'
p8
((dp9
S'position'
p10
I193
sS'width'
p11
I122
s(dp12
g10
I193
sg11
I98
s(dp13
g10
I845
sg11
I122
s(dp14
g10
I1483
sg11
I122
stp15
sS'hhints'
p16
((dp17
g10
I982
sg11
I92
stp18
ssS'com.typemytype.robofont.layerData'
p19
(dp20
sS'org.robofab.postScriptHintData'
p21
(dp22
s."
HStem: 982 92
VStem: 193 122 193 98 845 122 1483 122
AnchorPoint: "top" 1102 1082 basechar 0
LayerCount: 2
Fore
SplineSet
117 0 m 257
 530 0 l 257
 530 620 l 257
 530 636 l 258
 530 799 590 844 654 844 c 256
 727 844 767 806 767 625 c 258
 767 0 l 257
 1181 0 l 257
 1181 634 l 257
 1181 634 1181 682 1180 680 c 257
 1178 759 1230 844 1303 844 c 256
 1371 844 1417 816 1417 619 c 258
 1417 0 l 257
 1831 0 l 257
 1831 669 l 258
 1831 934 1703 1101 1457 1101 c 256
 1275 1101 1185 1007 1137 914 c 257
 1065 1066 930 1101 808 1101 c 256
 633 1101 543 1009 492 915 c 257
 473 1082 l 257
 117 1082 l 257
 117 0 l 257
EndSplineSet
EndChar

StartChar: macron
Encoding: 110 175 271
Width: 1007
VWidth: 0
GlyphClass: 4
Flags: W
PickledData: "(dp1
S'org.robofab.postScriptHintData'
p2
(dp3
sS'com.typemytype.robofont.layerData'
p4
(dp5
s."
AnchorPoint: "top" 502 1085 mark 0
LayerCount: 2
Fore
SplineSet
127 1247 m 257
 881 1247 l 257
 881 1416 l 257
 127 1416 l 257
 127 1247 l 257
EndSplineSet
EndChar

StartChar: minus
Encoding: 471 8722 273
Width: 1233
VWidth: 0
GlyphClass: 2
Flags: W
PickledData: "(dp1
S'org.pippin.gimp.org.kernagic'
p2
(dp3
S'lstem'
p4
I0
sS'rstem'
p5
I0
ssS'com.typemytype.robofont.layerData'
p6
(dp7
sS'org.robofab.postScriptHintData'
p8
(dp9
s."
LayerCount: 2
Fore
SplineSet
90 666 m 257
 90 437 l 257
 1156 437 l 257
 1156 666 l 257
 90 666 l 257
EndSplineSet
EndChar

StartChar: multiply
Encoding: 150 215 274
Width: 994
VWidth: 0
GlyphClass: 2
Flags: W
PickledData: "(dp1
S'org.pippin.gimp.org.kernagic'
p2
(dp3
S'lstem'
p4
I0
sS'rstem'
p5
I0
ssS'com.typemytype.robofont.layerData'
p6
(dp7
sS'org.robofab.postScriptHintData'
p8
(dp9
s."
LayerCount: 2
Fore
SplineSet
86 743 m 257
 340 476 l 257
 90 219 l 257
 247 42 l 257
 507 303 l 257
 764 45 l 257
 927 220 l 257
 927 220 760 385 673 476 c 257
 926 745 l 257
 768 912 l 257
 507 648 l 257
 242 911 l 257
 86 743 l 257
EndSplineSet
EndChar

StartChar: n
Encoding: 78 110 275
Width: 1286
VWidth: 0
GlyphClass: 2
Flags: W
PickledData: "(dp1
S'org.pippin.gimp.org.kernagic'
p2
(dp3
S'lstem'
p4
I0
sS'rstem'
p5
I0
ssS'com.fontlab.hintData'
p6
(dp7
S'vhints'
p8
((dp9
S'position'
p10
I193
sS'width'
p11
I122
s(dp12
g10
I903
sg11
I122
stp13
sS'hhints'
p14
((dp15
g10
I0
sg11
I22
s(dp16
g10
I982
sg11
I92
s(dp17
g10
I1034
sg11
I21
stp18
ssS'com.typemytype.robofont.layerData'
p19
(dp20
sS'org.robofab.postScriptHintData'
p21
(dp22
s."
HStem: 0 22 982 92 1034 21
VStem: 193 122 903 122
AnchorPoint: "bot" 669 0 basechar 0
AnchorPoint: "top" 704 1082 basechar 0
LayerCount: 2
Fore
SplineSet
121 0 m 257
 535 0 l 257
 535 625 l 258
 535 800 597 844 653 844 c 256
 722 844 764 808 764 615 c 258
 764 0 l 257
 1178 0 l 257
 1178 677 l 258
 1178 937 1048 1101 806 1101 c 256
 640 1101 548 1022 495 932 c 257
 478 1082 l 257
 121 1082 l 257
 121 0 l 257
EndSplineSet
EndChar

StartChar: nine
Encoding: 25 57 280
Width: 1414
VWidth: 0
GlyphClass: 2
Flags: W
PickledData: "(dp1
S'org.pippin.gimp.org.kernagic'
p2
(dp3
S'lstem'
p4
I0
sS'rstem'
p5
I0
ssS'com.typemytype.robofont.layerData'
p6
(dp7
sS'org.robofab.postScriptHintData'
p8
(dp9
s."
LayerCount: 2
Fore
SplineSet
720 773 m 256
 624 773 559 855 559 992 c 256
 559 1122 621 1196 716 1196 c 256
 812 1196 875 1122 875 992 c 256
 875 866 826 773 720 773 c 256
318 0 m 257
 760 0 l 257
 1164 592 l 258
 1245 711 1298 822 1298 984 c 256
 1298 1279 1086 1476 718 1476 c 256
 356 1476 141 1290 141 1008 c 256
 141 676 390 556 585 556 c 256
 638 556 689 570 729 585 c 257
 592 420 l 257
 318 34 l 257
 318 0 l 257
EndSplineSet
EndChar

StartChar: notequal
Encoding: 478 8800 281
Width: 1219
VWidth: 0
GlyphClass: 2
Flags: W
PickledData: "(dp1
S'org.pippin.gimp.org.kernagic'
p2
(dp3
S'lstem'
p4
I0
sS'rstem'
p5
I0
ssS'com.typemytype.robofont.layerData'
p6
(dp7
S'b'
(dp8
S'name'
p9
S'notequal'
p10
sS'lib'
p11
(dp12
sS'unicodes'
p13
(tsS'width'
p14
I1079
sS'contours'
p15
(tsS'components'
p16
(tsS'anchors'
p17
(tsssS'org.robofab.postScriptHintData'
p18
(dp19
s."
LayerCount: 2
Fore
SplineSet
412 39 m 257
 543 304 l 257
 1107 304 l 257
 1091 519 l 257
 643 519 l 257
 730 695 l 257
 1107 695 l 257
 1090 927 l 257
 830 927 l 257
 944 1142 l 257
 732 1173 l 257
 601 927 l 257
 52 927 l 257
 69 697 l 257
 506 697 l 257
 419 520 l 257
 56 520 l 257
 69 304 l 257
 321 304 l 257
 201 72 l 257
 412 39 l 257
EndSplineSet
EndChar

StartChar: numbersign
Encoding: 3 35 283
Width: 1095
VWidth: 0
GlyphClass: 2
Flags: W
PickledData: "(dp1
S'org.pippin.gimp.org.kernagic'
p2
(dp3
S'lstem'
p4
I0
sS'rstem'
p5
I0
ssS'com.typemytype.robofont.layerData'
p6
(dp7
sS'org.robofab.postScriptHintData'
p8
(dp9
s."
LayerCount: 2
Fore
SplineSet
442 582 m 257
 497 933 l 257
 689 933 l 257
 632 582 l 257
 442 582 l 257
148 7 m 257
 341 7 l 257
 414 439 l 257
 609 439 l 257
 534 7 l 257
 730 7 l 257
 807 439 l 257
 948 439 l 257
 965 582 l 257
 832 582 l 257
 886 933 l 257
 1022 933 l 257
 1043 1082 l 257
 911 1082 l 257
 970 1439 l 257
 770 1439 l 257
 715 1082 l 257
 520 1082 l 257
 579 1439 l 257
 384 1439 l 257
 328 1082 l 257
 134 1082 l 257
 114 933 l 257
 304 933 l 257
 247 582 l 257
 84 582 l 257
 63 439 l 257
 222 439 l 257
 148 7 l 257
EndSplineSet
EndChar

StartChar: o
Encoding: 79 111 284
Width: 1269
VWidth: 0
GlyphClass: 2
Flags: W
PickledData: "(dp1
S'org.pippin.gimp.org.kernagic'
p2
(dp3
S'lstem'
p4
I0
sS'rstem'
p5
I0
ssS'org.robofab.postScriptHintData'
p6
(dp7
sS'com.typemytype.robofont.guides'
p8
((dp9
S'y'
I1093
sS'x'
I582
sS'magnetic'
p10
I5
sS'angle'
p11
F90
sS'isGlobal'
p12
I00
stp13
sS'com.typemytype.robofont.layerData'
p14
(dp15
sS'com.fontlab.hintData'
p16
(dp17
S'vhints'
p18
((dp19
S'position'
p20
I128
sS'width'
p21
I120
s(dp22
g20
I982
sg21
I120
stp23
sS'hhints'
p24
((dp25
g20
I-19
sg21
I92
s(dp26
g20
I982
sg21
I92
stp27
ss."
HStem: -19 92 982 92
VStem: 128 120 982 120
AnchorPoint: "top" 636 1082 basechar 0
LayerCount: 2
Fore
SplineSet
635 -22 m 256
 982 -22 1200 210 1200 546 c 256
 1200 871 978 1101 635 1101 c 256
 291 1101 69 871 69 546 c 256
 69 210 287 -22 635 -22 c 256
635 236 m 256
 544 236 480 309 480 546 c 256
 480 774 541 844 635 844 c 256
 728 844 789 774 789 546 c 256
 789 312 724 236 635 236 c 256
EndSplineSet
Substitution2: "Single Substitution lookup 4 subtable" ordmasculine
EndChar

StartChar: oe
Encoding: 274 339 289
Width: 1940
VWidth: 0
GlyphClass: 2
Flags: W
PickledData: "(dp1
S'org.pippin.gimp.org.kernagic'
p2
(dp3
S'lstem'
p4
I0
sS'rstem'
p5
I0
ssS'com.typemytype.robofont.layerData'
p6
(dp7
S'b'
(dp8
S'name'
p9
S'oe'
p10
sS'lib'
p11
(dp12
sS'unicodes'
p13
(tsS'width'
p14
F1915.3599999999999
sS'contours'
p15
(tsS'components'
p16
(tsS'anchors'
p17
(tsssS'org.robofab.postScriptHintData'
p18
(dp19
s."
LayerCount: 2
Fore
SplineSet
1850 571 m 257
 1837 876 1717 1101 1350 1101 c 256
 1204 1101 1073 1053 990 954 c 257
 927 1042 794 1101 613 1101 c 256
 269 1101 69 871 69 546 c 256
 69 210 265 -22 613 -22 c 256
 820 -22 935 49 999 143 c 257
 1069 50 1213 -20 1393 -20 c 256
 1585 -20 1759 38 1841 123 c 257
 1754 324 l 257
 1735 324 l 257
 1654 271 1545 236 1439 236 c 256
 1313 236 1220 303 1203 412 c 257
 1836 412 l 257
 1836 412 1850 464 1850 561 c 258
 1850 571 l 257
1507 624 m 257
 1205 624 l 257
 1210 794 1276 849 1370 849 c 258
 1372 849 l 258
 1460 849 1507 790 1507 629 c 258
 1507 624 l 257
480 546 m 256
 480 774 541 844 635 844 c 256
 728 844 789 774 789 546 c 256
 789 312 724 236 635 236 c 256
 544 236 480 309 480 546 c 256
EndSplineSet
EndChar

StartChar: ogonek
Encoding: 404 731 290
Width: 766
VWidth: 0
GlyphClass: 4
Flags: W
PickledData: "(dp1
S'org.pippin.gimp.org.kernagic'
p2
(dp3
S'lstem'
p4
I0
sS'rstem'
p5
I0
ssS'com.typemytype.robofont.layerData'
p6
(dp7
sS'org.robofab.postScriptHintData'
p8
(dp9
s."
LayerCount: 2
Fore
SplineSet
454 -456 m 256
 525 -456 590 -440 662 -413 c 257
 652 -235 l 257
 641 -243 574 -274 510 -274 c 256
 470 -274 445 -229 445 -200 c 256
 445 -146 460 -68 549 4 c 257
 417 4 l 257
 349 -40 236 -114 236 -257 c 256
 236 -397 346 -456 454 -456 c 256
EndSplineSet
EndChar

StartChar: one
Encoding: 17 49 294
Width: 1414
VWidth: 0
GlyphClass: 2
Flags: W
PickledData: "(dp1
S'org.pippin.gimp.org.kernagic'
p2
(dp3
S'lstem'
p4
I0
sS'rstem'
p5
I0
ssS'com.typemytype.robofont.layerData'
p6
(dp7
sS'org.robofab.postScriptHintData'
p8
(dp9
s."
LayerCount: 2
Fore
SplineSet
192 0 m 257
 1327 0 l 257
 1327 286 l 257
 1007 286 l 257
 1007 1456 l 257
 627 1456 l 257
 517 1372 340 1300 189 1256 c 257
 189 988 l 257
 307 1001 451 1048 558 1092 c 257
 558 286 l 257
 192 286 l 257
 192 0 l 257
EndSplineSet
EndChar

StartChar: onehalf
Encoding: 124 189 295
Width: 1942
VWidth: 0
GlyphClass: 3
Flags: W
PickledData: "(dp1
S'org.pippin.gimp.org.kernagic'
p2
(dp3
S'lstem'
p4
I0
sS'rstem'
p5
I0
ssS'com.typemytype.robofont.layerData'
p6
(dp7
sS'org.robofab.postScriptHintData'
p8
(dp9
s."
LayerCount: 2
Fore
SplineSet
1308 0 m 257
 1858 0 l 257
 1864 163 l 257
 1527 163 l 257
 1704 334 l 258
 1806 433 1849 538 1849 629 c 256
 1849 777 1735 889 1560 889 c 256
 1393 889 1287 796 1219 718 c 257
 1334 595 l 257
 1386 658 1461 708 1543 708 c 256
 1603 708 1649 669 1649 613 c 256
 1649 570 1618 515 1578 475 c 258
 1266 157 l 257
 1308 0 l 257
328 0 m 257
 580 0 l 257
 1600 1516 l 257
 1358 1516 l 257
 328 0 l 257
106 602 m 257
 603 602 l 257
 603 774 l 257
 468 774 l 257
 468 1516 l 257
 298 1516 l 257
 275 1511 145 1426 86 1398 c 257
 86 1228 l 257
 86 1227 l 257
 94 1227 230 1288 265 1302 c 257
 265 774 l 257
 106 774 l 257
 106 602 l 257
EndSplineSet
Ligature2: "fracDiagonalFractionslookup11 subtable" one slash two
EndChar

StartChar: onequarter
Encoding: 123 188 296
Width: 1832
VWidth: 0
GlyphClass: 3
Flags: W
PickledData: "(dp1
S'org.pippin.gimp.org.kernagic'
p2
(dp3
S'lstem'
p4
I0
sS'rstem'
p5
I0
ssS'com.typemytype.robofont.layerData'
p6
(dp7
sS'org.robofab.postScriptHintData'
p8
(dp9
s."
LayerCount: 2
Fore
SplineSet
1231 323 m 257
 1428 629 l 257
 1428 323 l 257
 1231 323 l 257
328 0 m 257
 580 0 l 257
 1600 1516 l 257
 1358 1516 l 257
 328 0 l 257
1427 0 m 257
 1614 0 l 257
 1614 174 l 257
 1740 174 l 257
 1746 323 l 257
 1613 323 l 257
 1613 882 l 257
 1417 882 l 257
 1053 325 l 257
 1053 174 l 257
 1427 174 l 257
 1427 0 l 257
106 602 m 257
 603 602 l 257
 603 774 l 257
 468 774 l 257
 468 1516 l 257
 298 1516 l 257
 275 1511 145 1426 86 1398 c 257
 86 1228 l 257
 86 1227 l 257
 94 1227 230 1288 265 1302 c 257
 265 774 l 257
 106 774 l 257
 106 602 l 257
EndSplineSet
Ligature2: "fracDiagonalFractionslookup11 subtable" one slash four
EndChar

StartChar: ordfeminine
Encoding: 105 170 297
Width: 1174
VWidth: 0
GlyphClass: 2
Flags: W
PickledData: "(dp1
S'org.robofab.postScriptHintData'
p2
(dp3
sS'com.typemytype.robofont.layerData'
p4
(dp5
s."
LayerCount: 2
Fore
SplineSet
637 821 m 257
 619 804 579 778 526 778 c 256
 477 778 428 810 428 882 c 256
 428 987 535 1008 618 1008 c 258
 637 1008 l 257
 637 821 l 257
401 595 m 256
 547 595 631 651 690 709 c 257
 728 609 l 257
 985 609 l 257
 985 1139 l 258
 985 1438 803 1560 574 1560 c 256
 444 1560 296 1520 150 1453 c 257
 210 1249 l 257
 320 1286 425 1317 505 1317 c 256
 583 1317 639 1288 639 1209 c 258
 639 1158 l 257
 538 1159 l 257
 534 1159 l 258
 370 1159 115 1111 115 876 c 256
 115 691 233 595 401 595 c 256
EndSplineSet
EndChar

StartChar: ordmasculine
Encoding: 121 186 298
Width: 1072
VWidth: 0
GlyphClass: 2
Flags: W
PickledData: "(dp1
S'org.pippin.gimp.org.kernagic'
p2
(dp3
S'lstem'
p4
I0
sS'rstem'
p5
I0
ssS'com.typemytype.robofont.layerData'
p6
(dp7
S'b'
(dp8
S'name'
p9
S'ordmasculine'
p10
sS'lib'
p11
(dp12
sS'unicodes'
p13
(tsS'width'
p14
I965
sS'contours'
p15
(tsS'components'
p16
(tsS'anchors'
p17
(tsssS'org.robofab.postScriptHintData'
p18
(dp19
s."
LayerCount: 2
Fore
SplineSet
700 1075 m 256
 700 910 643 830 527 830 c 256
 415 830 361 910 361 1075 c 256
 361 1242 415 1324 527 1324 c 256
 643 1324 700 1242 700 1075 c 256
62 1075 m 256
 62 766 228 593 527 593 c 256
 826 593 992 766 992 1075 c 256
 992 1387 826 1560 527 1560 c 256
 228 1560 62 1387 62 1075 c 256
EndSplineSet
EndChar

StartChar: oslash
Encoding: 183 248 299
Width: 1269
VWidth: 0
GlyphClass: 2
Flags: W
PickledData: "(dp1
S'org.pippin.gimp.org.kernagic'
p2
(dp3
S'lstem'
p4
I0
sS'rstem'
p5
I0
ssS'com.typemytype.robofont.layerData'
p6
(dp7
sS'org.robofab.postScriptHintData'
p8
(dp9
s."
LayerCount: 2
Fore
SplineSet
245 -126 m 257
 326 -182 l 257
 1073 1212 l 257
 987 1267 l 257
 245 -126 l 257
EndSplineSet
Refer: 284 111 N 1 0 0 1 0 0 2
EndChar

StartChar: p
Encoding: 80 112 302
Width: 1290
VWidth: 0
GlyphClass: 2
Flags: W
PickledData: "(dp1
S'org.pippin.gimp.org.kernagic'
p2
(dp3
S'lstem'
p4
I0
sS'rstem'
p5
I0
ssS'com.fontlab.hintData'
p6
(dp7
S'vhints'
p8
((dp9
S'position'
p10
I193
sS'width'
p11
I122
s(dp12
g10
I193
sg11
I97
s(dp13
g10
I1009
sg11
I122
stp14
sS'hhints'
p15
((dp16
g10
I-19
sg11
I92
s(dp17
g10
I982
sg11
I92
stp18
ssS'com.typemytype.robofont.layerData'
p19
(dp20
sS'org.robofab.postScriptHintData'
p21
(dp22
s."
HStem: -19 92 982 92
VStem: 193 122 193 97 1009 122
AnchorPoint: "top" 659 1082 basechar 0
LayerCount: 2
Fore
SplineSet
663 236 m 256
 587 236 555 273 530 302 c 257
 530 802 l 257
 568 829 625 844 676 844 c 256
 730 844 806 810 806 552 c 256
 806 258 717 236 663 236 c 256
121 -482 m 257
 527 -482 l 257
 527 -52 l 257
 523 106 l 257
 569 42 651 -20 782 -20 c 256
 1081 -20 1216 218 1216 552 c 256
 1216 858 1074 1101 787 1101 c 256
 635 1101 544 1026 496 930 c 257
 490 1082 l 257
 121 1082 l 257
 121 -482 l 257
EndSplineSet
EndChar

StartChar: paragraph
Encoding: 117 182 303
Width: 1276
VWidth: 0
GlyphClass: 2
Flags: W
PickledData: "(dp1
S'org.pippin.gimp.org.kernagic'
p2
(dp3
S'lstem'
p4
I0
sS'rstem'
p5
I0
ssS'com.typemytype.robofont.layerData'
p6
(dp7
sS'org.robofab.postScriptHintData'
p8
(dp9
s."
LayerCount: 2
Fore
SplineSet
715 1296 m 257
 926 1296 l 257
 926 -270 l 257
 1120 -270 l 257
 1120 1456 l 257
 692 1456 l 258
 252 1456 90 1344 90 1038 c 256
 90 836 233 657 521 657 c 257
 521 -270 l 257
 715 -270 l 257
 715 1296 l 257
EndSplineSet
EndChar

StartChar: parenright
Encoding: 9 41 305
Width: 906
VWidth: 0
GlyphClass: 2
Flags: W
PickledData: "(dp1
S'org.pippin.gimp.org.kernagic'
p2
(dp3
S'lstem'
p4
I0
sS'rstem'
p5
I0
ssS'com.typemytype.robofont.layerData'
p6
(dp7
S'b'
(dp8
S'name'
p9
S'parenright'
p10
sS'lib'
p11
(dp12
sS'unicodes'
p13
(tsS'width'
p14
I766
sS'contours'
p15
(tsS'components'
p16
(tsS'anchors'
p17
(tsssS'org.robofab.postScriptHintData'
p18
(dp19
s."
LayerCount: 2
Fore
SplineSet
700 640 m 256
 700 1015 554 1445 410 1597 c 257
 131 1597 l 257
 131 1556 l 257
 253 1455 417 1197 417 640 c 256
 417 85 253 -186 131 -287 c 257
 131 -315 l 257
 410 -315 l 257
 554 -163 700 266 700 640 c 256
EndSplineSet
EndChar

StartChar: partialdiff
Encoding: 466 8706 306
Width: 1444
VWidth: 0
GlyphClass: 2
Flags: W
PickledData: "(dp1
S'org.robofab.postScriptHintData'
p2
(dp3
s."
LayerCount: 2
Fore
SplineSet
599 151 m 256
 559 151 539 199 539 268 c 256
 539 444 666 762 913 822 c 257
 888 542 775 151 599 151 c 256
585 -21 m 256
 984 -21 1227 402 1227 938 c 256
 1227 1310 968 1561 650 1561 c 256
 532 1561 407 1526 283 1451 c 257
 349 1282 l 257
 437 1338 523 1364 602 1364 c 256
 785 1364 923 1224 923 994 c 258
 923 984 l 257
 467 948 212 601 212 324 c 256
 212 135 331 -21 585 -21 c 256
EndSplineSet
EndChar

StartChar: percent
Encoding: 5 37 307
Width: 2408
VWidth: 0
GlyphClass: 2
Flags: W
PickledData: "(dp1
S'org.pippin.gimp.org.kernagic'
p2
(dp3
S'lstem'
p4
I0
sS'rstem'
p5
I0
ssS'com.typemytype.robofont.layerData'
p6
(dp7
S'b'
(dp8
S'name'
p9
S'percent'
p10
sS'lib'
p11
(dp12
sS'unicodes'
p13
(tsS'width'
p14
I1563
sS'contours'
p15
(tsS'components'
p16
(tsS'anchors'
p17
(tsssS'org.robofab.postScriptHintData'
p18
(dp19
s."
LayerCount: 2
Fore
SplineSet
1904 -48 m 256
 2159 -48 2360 139 2360 379 c 256
 2360 619 2162 795 1904 795 c 256
 1649 795 1450 613 1450 379 c 256
 1450 139 1645 -48 1904 -48 c 256
1910 175 m 256
 1805 175 1708 267 1708 382 c 256
 1708 496 1805 586 1910 586 c 256
 2011 586 2104 500 2104 382 c 256
 2104 268 2012 175 1910 175 c 256
668 0 m 257
 947 0 l 257
 1802 1546 l 257
 1530 1546 l 257
 668 0 l 257
571 721 m 256
 826 721 1027 908 1027 1145 c 256
 1027 1385 829 1566 571 1566 c 256
 316 1566 130 1382 130 1145 c 256
 130 908 312 721 571 721 c 256
577 942 m 256
 472 942 375 1034 375 1151 c 256
 375 1265 472 1354 577 1354 c 256
 678 1354 771 1269 771 1151 c 256
 771 1034 679 942 577 942 c 256
EndSplineSet
EndChar

StartChar: period
Encoding: 14 46 308
Width: 764
VWidth: 0
GlyphClass: 2
Flags: W
PickledData: "(dp1
S'org.pippin.gimp.org.kernagic'
p2
(dp3
S'lstem'
p4
I0
sS'rstem'
p5
I0
ssS'com.typemytype.robofont.layerData'
p6
(dp7
S'b'
(dp8
S'name'
p9
S'period'
p10
sS'lib'
p11
(dp12
sS'unicodes'
p13
(tsS'width'
p14
I624
sS'contours'
p15
(tsS'components'
p16
(tsS'anchors'
p17
(tsssS'org.robofab.postScriptHintData'
p18
(dp19
s."
LayerCount: 2
Fore
SplineSet
372 -5 m 256
 474 -5 563 50 563 168 c 256
 563 292 474 349 372 349 c 256
 274 349 183 292 183 168 c 256
 183 47 276 -5 372 -5 c 256
EndSplineSet
EndChar

StartChar: periodcentered
Encoding: 118 183 309
Width: 582
VWidth: 0
GlyphClass: 2
Flags: W
PickledData: "(dp1
S'org.pippin.gimp.org.kernagic'
p2
(dp3
S'lstem'
p4
I0
sS'rstem'
p5
I0
ssS'com.typemytype.robofont.layerData'
p6
(dp7
S'b'
(dp8
S'name'
p9
S'periodcentered'
p10
sS'lib'
p11
(dp12
sS'unicodes'
p13
(tsS'width'
p14
I653
sS'contours'
p15
(tsS'components'
p16
(tsS'anchors'
p17
(tsssS'org.robofab.postScriptHintData'
p18
(dp19
s."
LayerCount: 2
Fore
SplineSet
540 429 m 256
 654 429 725 505 725 629 c 256
 725 748 654 821 540 821 c 256
 423 821 351 748 351 629 c 256
 351 505 423 429 540 429 c 256
EndSplineSet
EndChar

StartChar: perthousand
Encoding: 456 8240 310
Width: 3485
VWidth: 0
GlyphClass: 2
Flags: W
PickledData: "(dp1
S'org.pippin.gimp.org.kernagic'
p2
(dp3
S'lstem'
p4
I0
sS'rstem'
p5
I0
ssS'com.typemytype.robofont.layerData'
p6
(dp7
S'b'
(dp8
S'name'
p9
S'perthousand'
p10
sS'lib'
p11
(dp12
sS'unicodes'
p13
(tsS'width'
p14
I2251
sS'contours'
p15
(tsS'components'
p16
(tsS'anchors'
p17
(tsssS'org.robofab.postScriptHintData'
p18
(dp19
s."
LayerCount: 2
Fore
SplineSet
2982 -48 m 256
 3237 -48 3438 139 3438 379 c 256
 3438 619 3240 795 2982 795 c 256
 2727 795 2527 613 2527 379 c 256
 2527 139 2723 -48 2982 -48 c 256
2987 175 m 256
 2883 175 2786 267 2786 382 c 256
 2786 496 2883 586 2987 586 c 256
 3089 586 3182 500 3182 382 c 256
 3182 268 3090 175 2987 175 c 256
EndSplineSet
Refer: 307 37 N 1 0 0 1 59 0 2
EndChar

StartChar: pi
Encoding: 417 960 311
Width: 1504
VWidth: 0
GlyphClass: 2
Flags: HW
PickledData: "(dp1
S'org.robofab.postScriptHintData'
p2
(dp3
sS'com.typemytype.robofont.layerData'
p4
(dp5
s."
LayerCount: 2
Fore
SplineSet
1151 -13 m 256
 1228 -13 1291 11 1324 43 c 257
 1324 168 l 257
 1303.28384288 163.044696299 1284.38093237 160.690975188 1267.15869908 160.690975188 c 0
 1144.42044925 160.690975188 1107.0443271 280.237214719 1107.0443271 429.611522763 c 0
 1107.0443271 557.291248771 1134.35210183 706.763984023 1159 822 c 257
 1391 822 l 257
 1391 1082 l 257
 520 1082 l 258
 289 1082 216 907 216 694 c 257
 310 694 l 257
 322 770 360 821 438 822 c 257
 486 822 l 257
 423 379 l 258
 394 169 256 108 228 108 c 257
 228 4 l 257
 566 4 633 103 644 316 c 258
 670 822 l 257
 970 822 l 257
 930.30997861 665.044006321 890.83177202 482.386851947 890.83177202 328.002084885 c 0
 890.83177202 135.529447302 952.191936801 -13 1151 -13 c 256
EndSplineSet
EndChar

StartChar: plus
Encoding: 11 43 312
Width: 1205
VWidth: 0
GlyphClass: 2
Flags: W
PickledData: "(dp1
S'org.pippin.gimp.org.kernagic'
p2
(dp3
S'lstem'
p4
I0
sS'rstem'
p5
I0
ssS'com.typemytype.robofont.layerData'
p6
(dp7
S'b'
(dp8
S'name'
p9
S'plus'
p10
sS'lib'
p11
(dp12
sS'unicodes'
p13
(tsS'width'
p14
I1136
sS'contours'
p15
(tsS'components'
p16
(tsS'anchors'
p17
(tsssS'org.robofab.postScriptHintData'
p18
(dp19
s."
LayerCount: 2
Fore
SplineSet
468 1253 m 257
 468 883 l 257
 99 883 l 257
 99 618 l 257
 468 618 l 257
 468 240 l 257
 737 240 l 257
 737 618 l 257
 1108 618 l 257
 1108 883 l 257
 738 883 l 257
 738 1253 l 257
 468 1253 l 257
EndSplineSet
EndChar

StartChar: plusminus
Encoding: 112 177 313
Width: 1136
VWidth: 0
GlyphClass: 2
Flags: W
PickledData: "(dp1
S'org.pippin.gimp.org.kernagic'
p2
(dp3
S'lstem'
p4
I0
sS'rstem'
p5
I0
ssS'com.typemytype.robofont.layerData'
p6
(dp7
sS'org.robofab.postScriptHintData'
p8
(dp9
s."
LayerCount: 2
Fore
SplineSet
105 225 m 257
 105 0 l 257
 1046 0 l 257
 1046 225 l 257
 105 225 l 257
447 1259 m 257
 447 931 l 257
 97 931 l 257
 97 670 l 257
 447 670 l 257
 447 358 l 257
 712 358 l 257
 712 670 l 257
 1065 670 l 257
 1065 931 l 257
 713 931 l 257
 713 1259 l 257
 447 1259 l 257
EndSplineSet
EndChar

StartChar: product
Encoding: 469 8719 314
Width: 1616
VWidth: 0
GlyphClass: 2
Flags: W
PickledData: "(dp1
S'org.pippin.gimp.org.kernagic'
p2
(dp3
S'lstem'
p4
I0
sS'rstem'
p5
I0
ssS'com.typemytype.robofont.layerData'
p6
(dp7
S'b'
(dp8
S'name'
p9
S'product'
p10
sS'lib'
p11
(dp12
sS'unicodes'
p13
(tsS'width'
p14
I1533
sS'contours'
p15
(tsS'components'
p16
(tsS'anchors'
p17
(tsssS'org.robofab.postScriptHintData'
p18
(dp19
s."
LayerCount: 2
Fore
SplineSet
161 1456 m 257
 161 0 l 257
 598 0 l 257
 598 1148 l 257
 1018 1148 l 257
 1018 0 l 257
 1455 0 l 257
 1455 1456 l 257
 161 1456 l 257
EndSplineSet
EndChar

StartChar: q
Encoding: 81 113 315
Width: 1291
VWidth: 0
GlyphClass: 2
Flags: W
PickledData: "(dp1
S'org.pippin.gimp.org.kernagic'
p2
(dp3
S'lstem'
p4
I0
sS'rstem'
p5
I0
ssS'com.typemytype.robofont.layerData'
p6
(dp7
sS'org.robofab.postScriptHintData'
p8
(dp9
s."
LayerCount: 2
Fore
SplineSet
626 236 m 256
 573 236 485 259 485 551 c 256
 485 807 555 844 610 844 c 256
 679 844 735 808 761 755 c 257
 761 305 l 257
 734 273 702 236 626 236 c 256
764 -482 m 257
 1170 -482 l 257
 1170 1082 l 257
 801 1082 l 257
 794 914 l 257
 747 1020 655 1101 496 1101 c 256
 209 1101 75 858 75 551 c 256
 75 219 212 -20 506 -20 c 256
 642 -20 723 41 768 103 c 257
 764 -60 l 257
 764 -482 l 257
EndSplineSet
EndChar

StartChar: question
Encoding: 31 63 316
Width: 1119
VWidth: 0
GlyphClass: 2
Flags: W
PickledData: "(dp1
S'org.pippin.gimp.org.kernagic'
p2
(dp3
S'lstem'
p4
I0
sS'rstem'
p5
I0
ssS'com.typemytype.robofont.layerData'
p6
(dp7
sS'org.robofab.postScriptHintData'
p8
(dp9
s."
LayerCount: 2
Fore
SplineSet
364 -21 m 256
 465 -21 532 45 532 152 c 256
 532 261 465 325 364 325 c 256
 258 325 190 261 190 152 c 256
 190 44 258 -21 364 -21 c 256
320 528 m 257
 395 493 l 257
 620 781 979 817 979 1225 c 256
 979 1437 770 1574 535 1574 c 256
 418 1574 225 1534 114 1419 c 257
 213 1142 l 257
 302 1189 397 1211 463 1211 c 256
 572 1211 604 1147 604 1086 c 256
 604 965 477 907 320 528 c 257
EndSplineSet
EndChar

StartChar: quotedbl
Encoding: 2 34 318
Width: 917
VWidth: 0
GlyphClass: 2
Flags: W
PickledData: "(dp1
S'org.robofab.postScriptHintData'
p2
(dp3
sS'com.typemytype.robofont.layerData'
p4
(dp5
s."
LayerCount: 2
Fore
SplineSet
620 884 m 257
 798 884 l 257
 849 1566 l 257
 515 1566 l 257
 620 884 l 257
188 884 m 257
 365 884 l 257
 416 1566 l 257
 82 1566 l 257
 188 884 l 257
EndSplineSet
EndChar

StartChar: quotedblbase
Encoding: 451 8222 319
Width: 1023
VWidth: 0
GlyphClass: 2
Flags: W
PickledData: "(dp1
S'org.robofab.postScriptHintData'
p2
(dp3
s."
LayerCount: 2
Fore
SplineSet
548 -400 m 257
 787 -400 l 257
 914 135 l 257
 580 135 l 257
 548 -400 l 257
103 -400 m 257
 341 -400 l 257
 470 135 l 257
 135 135 l 257
 103 -400 l 257
EndSplineSet
EndChar

StartChar: quotedblleft
Encoding: 449 8220 320
Width: 996
VWidth: 0
GlyphClass: 2
Flags: W
PickledData: "(dp1
S'org.robofab.postScriptHintData'
p2
(dp3
sS'com.typemytype.robofont.layerData'
p4
(dp5
s."
LayerCount: 2
Fore
SplineSet
549 1037 m 257
 880 1037 l 257
 913 1570 l 257
 677 1570 l 257
 549 1037 l 257
101 1037 m 257
 433 1037 l 257
 466 1570 l 257
 229 1570 l 257
 101 1037 l 257
EndSplineSet
EndChar

StartChar: quotedblright
Encoding: 450 8221 321
Width: 996
VWidth: 0
GlyphClass: 2
Flags: W
PickledData: "(dp1
S'org.robofab.postScriptHintData'
p2
(dp3
sS'com.typemytype.robofont.layerData'
p4
(dp5
s."
LayerCount: 2
Fore
SplineSet
101 1037 m 257
 338 1037 l 257
 466 1570 l 257
 134 1570 l 257
 101 1037 l 257
549 1037 m 257
 785 1037 l 257
 913 1570 l 257
 582 1570 l 257
 549 1037 l 257
EndSplineSet
EndChar

StartChar: quoteleft
Encoding: 446 8216 322
Width: 532
VWidth: 0
GlyphClass: 2
Flags: W
PickledData: "(dp1
S'org.robofab.postScriptHintData'
p2
(dp3
sS'com.typemytype.robofont.layerData'
p4
(dp5
s."
LayerCount: 2
Fore
SplineSet
466 1570 m 257
 229 1570 l 257
 101 1037 l 257
 433 1037 l 257
 466 1570 l 257
EndSplineSet
EndChar

StartChar: quoteright
Encoding: 447 8217 323
Width: 532
VWidth: 0
GlyphClass: 2
Flags: W
PickledData: "(dp1
S'org.robofab.postScriptHintData'
p2
(dp3
sS'com.typemytype.robofont.layerData'
p4
(dp5
s."
LayerCount: 2
Fore
SplineSet
101 1037 m 257
 338 1037 l 257
 466 1570 l 257
 134 1570 l 257
 101 1037 l 257
EndSplineSet
EndChar

StartChar: quotesinglbase
Encoding: 448 8218 324
Width: 544
VWidth: 0
GlyphClass: 2
Flags: W
PickledData: "(dp1
S'org.robofab.postScriptHintData'
p2
(dp3
s."
LayerCount: 2
Fore
SplineSet
105 -400 m 257
 343 -400 l 257
 470 135 l 257
 136 135 l 257
 105 -400 l 257
EndSplineSet
EndChar

StartChar: quotesingle
Encoding: 7 39 325
Width: 699
VWidth: 0
GlyphClass: 2
Flags: W
PickledData: "(dp1
S'org.robofab.postScriptHintData'
p2
(dp3
s."
LayerCount: 2
Fore
SplineSet
262 891 m 257
 437 891 l 257
 490 1570 l 257
 154 1570 l 257
 262 891 l 257
EndSplineSet
EndChar

StartChar: r
Encoding: 82 114 326
Width: 907
VWidth: 0
GlyphClass: 2
Flags: W
PickledData: "(dp1
S'org.pippin.gimp.org.kernagic'
p2
(dp3
S'lstem'
p4
I0
sS'rstem'
p5
I352
ssS'com.fontlab.hintData'
p6
(dp7
S'vhints'
p8
((dp9
S'position'
p10
I193
sS'width'
p11
I122
s(dp12
g10
I193
sg11
I92
stp13
sS'hhints'
p14
((dp15
g10
I974
sg11
I94
stp16
ssS'com.typemytype.robofont.layerData'
p17
(dp18
sS'org.robofab.postScriptHintData'
p19
(dp20
s."
HStem: 974 94
VStem: 193 122 193 92
AnchorPoint: "bot" 383 0 basechar 0
AnchorPoint: "top" 412 1082 basechar 0
LayerCount: 2
Fore
SplineSet
107 0 m 257
 521 0 l 257
 521 607 l 258
 521 745 657 787 758 787 c 256
 779 787 818 784 857 776 c 257
 881 1071 l 257
 838 1079 794 1085 752 1085 c 256
 648 1085 552 1049 489 922 c 257
 471 1082 l 257
 107 1082 l 257
 107 0 l 257
EndSplineSet
EndChar

StartChar: radical
Encoding: 474 8730 328
Width: 1445
VWidth: 0
GlyphClass: 2
Flags: W
PickledData: "(dp1
S'org.pippin.gimp.org.kernagic'
p2
(dp3
S'lstem'
p4
I0
sS'rstem'
p5
I0
ssS'com.typemytype.robofont.layerData'
p6
(dp7
S'b'
(dp8
S'name'
p9
S'radical'
p10
sS'lib'
p11
(dp12
sS'unicodes'
p13
(tsS'width'
p14
I1136
sS'contours'
p15
(tsS'components'
p16
(tsS'anchors'
p17
(tsssS'org.robofab.postScriptHintData'
p18
(dp19
s."
LayerCount: 2
Fore
SplineSet
1065 1534 m 257
 1066 1536 1066 1538 1066 1538 c 257
 1066 1556 643 212 637 212 c 257
 637 212 637 213 638 216 c 257
 552 473 464 728 377 984 c 257
 5 868 l 257
 39 742 l 257
 179 786 l 257
 532 -169 l 257
 872 -169 l 257
 1415 1534 l 257
 1065 1534 l 257
EndSplineSet
EndChar

StartChar: registered
Encoding: 109 174 331
Width: 1917
VWidth: 0
GlyphClass: 2
Flags: W
PickledData: "(dp1
S'org.pippin.gimp.org.kernagic'
p2
(dp3
S'lstem'
p4
I0
sS'rstem'
p5
I0
ssS'com.typemytype.robofont.layerData'
p6
(dp7
sS'org.robofab.postScriptHintData'
p8
(dp9
s."
LayerCount: 2
Fore
SplineSet
897 -64 m 256
 1346 -64 1692 300 1692 729 c 256
 1692 1157 1346 1520 897 1520 c 256
 447 1520 101 1157 101 729 c 256
 101 300 447 -64 897 -64 c 256
897 113 m 256
 557 113 294 399 294 729 c 256
 294 1059 557 1343 897 1343 c 256
 1237 1343 1499 1059 1499 729 c 256
 1499 399 1237 113 897 113 c 256
783 824 m 257
 783 1040 l 257
 829 1040 l 258
 859 1040 885 1041 908 1041 c 256
 1004 1041 1042 1031 1042 930 c 256
 1042 835 970 824 829 824 c 258
 783 824 l 257
594 331 m 257
 784 331 l 257
 784 704 l 257
 825 704 l 257
 823 705 1059 331 1059 331 c 257
 1283 331 l 257
 1027 713 l 257
 1185 761 1232 822 1232 937 c 256
 1232 1155 1067 1181 867 1181 c 258
 594 1181 l 257
 594 331 l 257
EndSplineSet
EndChar

StartChar: ring
Encoding: 403 730 332
Width: 848
VWidth: 0
GlyphClass: 4
Flags: W
PickledData: "(dp1
S'org.robofab.postScriptHintData'
p2
(dp3
sS'com.typemytype.robofont.layerData'
p4
(dp5
s."
AnchorPoint: "top" 395 1085 mark 0
LayerCount: 2
Fore
SplineSet
397 1190 m 256
 549 1190 638 1303 638 1423 c 256
 638 1541 552 1653 397 1653 c 256
 245 1653 160 1544 160 1423 c 256
 160 1303 246 1190 397 1190 c 256
397 1315 m 256
 332 1315 309 1364 309 1422 c 256
 309 1474 338 1529 397 1529 c 256
 459 1529 490 1474 490 1422 c 256
 490 1366 459 1315 397 1315 c 256
EndSplineSet
EndChar

StartChar: s
Encoding: 83 115 333
Width: 1032
VWidth: 0
GlyphClass: 2
Flags: W
PickledData: "(dp1
S'org.pippin.gimp.org.kernagic'
p2
(dp3
S'lstem'
p4
I168
sS'rstem'
p5
I620
ssS'org.robofab.postScriptHintData'
p6
(dp7
sS'com.typemytype.robofont.guides'
p8
((dp9
S'y'
I381
sS'x'
I77
sS'magnetic'
p10
I5
sS'angle'
p11
F90
sS'isGlobal'
p12
I00
stp13
sS'com.typemytype.robofont.layerData'
p14
(dp15
sS'com.fontlab.hintData'
p16
(dp17
S'vhints'
p18
((dp19
S'position'
p20
I142
sS'width'
p21
I107
s(dp22
g20
I738
sg21
I104
stp23
sS'hhints'
p24
((dp25
g20
I-19
sg21
I92
s(dp26
g20
I982
sg21
I92
stp27
ss."
HStem: -19 92 982 92
VStem: 142 107 738 104
AnchorPoint: "bot" 530 0 basechar 0
AnchorPoint: "top" 478 1081 basechar 0
LayerCount: 2
Fore
SplineSet
518 1101 m 256
 255 1101 87 974 87 771 c 256
 87 600 193 508 379 433 c 258
 533 371 l 258
 573 355 593 326 593 299 c 256
 593 266 563 236 498 236 c 256
 417 236 303 280 263 377 c 257
 229 377 l 257
 44 225 l 257
 132 59 322 -20 555 -20 c 256
 838 -20 985 160 985 333 c 256
 985 445 925 554 801 612 c 258
 592 710 l 258
 532 738 521 764 521 784 c 256
 521 821 559 842 608 842 c 256
 668 842 745 810 789 732 c 257
 805 732 l 257
 979 883 l 257
 885 1055 702 1101 518 1101 c 256
EndSplineSet
EndChar

StartChar: section
Encoding: 102 167 339
Width: 1008
VWidth: 0
GlyphClass: 2
Flags: W
PickledData: "(dp1
S'org.pippin.gimp.org.kernagic'
p2
(dp3
S'lstem'
p4
I0
sS'rstem'
p5
I0
ssS'com.typemytype.robofont.layerData'
p6
(dp7
S'b'
(dp8
S'name'
p9
S'section'
p10
sS'lib'
p11
(dp12
sS'unicodes'
p13
(tsS'width'
p14
I1079
sS'contours'
p15
(tsS'components'
p16
(tsS'anchors'
p17
(tsssS'org.robofab.postScriptHintData'
p18
(dp19
s."
LayerCount: 2
Fore
SplineSet
640 668 m 257
 640 668 575 699 599 692 c 257
 441 770 396 789 396 825 c 256
 396 857 426 886 439 890 c 257
 439 890 547 847 588 821 c 256
 649 784 672 748 672 721 c 256
 672 700 659 684 640 668 c 257
590 321 m 256
 590 264 551 235 483 235 c 256
 368 235 214 297 166 331 c 257
 166 67 l 257
 258 15 390 -21 493 -21 c 256
 502 -21 511 -21 519 -20 c 256
 740 -6 891 87 891 370 c 256
 891 453 851 534 770 597 c 257
 842 656 904 722 904 838 c 256
 904 940 850 1022 697 1095 c 256
 476 1199 467 1225 467 1262 c 256
 467 1304 520 1316 575 1316 c 256
 649 1316 748 1294 815 1256 c 257
 882 1456 l 257
 774 1532 636 1567 549 1567 c 256
 396 1567 145 1522 145 1241 c 256
 145 1119 208 1034 326 955 c 257
 239 891 162 813 162 720 c 256
 162 589 266 535 429 457 c 256
 560 391 590 361 590 321 c 256
EndSplineSet
EndChar

StartChar: semicolon
Encoding: 27 59 340
Width: 779
VWidth: 0
GlyphClass: 2
Flags: W
PickledData: "(dp1
S'org.pippin.gimp.org.kernagic'
p2
(dp3
S'lstem'
p4
I0
sS'rstem'
p5
I0
ssS'com.typemytype.robofont.layerData'
p6
(dp7
sS'org.robofab.postScriptHintData'
p8
(dp9
s."
LayerCount: 2
Fore
SplineSet
387 773 m 256
 487 773 575 825 575 945 c 256
 575 1072 487 1125 387 1125 c 256
 290 1125 201 1072 201 945 c 256
 201 822 292 773 387 773 c 256
190 -363 m 257
 431 -363 l 257
 556 91 l 257
 556 293 l 257
 225 293 l 257
 225 213 190 -363 190 -363 c 257
EndSplineSet
EndChar

StartChar: seven
Encoding: 23 55 341
Width: 1414
VWidth: 0
GlyphClass: 2
Flags: W
PickledData: "(dp1
S'org.pippin.gimp.org.kernagic'
p2
(dp3
S'lstem'
p4
I0
sS'rstem'
p5
I0
ssS'com.typemytype.robofont.layerData'
p6
(dp7
sS'org.robofab.postScriptHintData'
p8
(dp9
s."
LayerCount: 2
Fore
SplineSet
313 0 m 257
 769 0 l 257
 1246 1151 l 257
 1239 1456 l 257
 189 1456 l 257
 195 1163 l 257
 792 1163 l 257
 313 0 l 257
EndSplineSet
EndChar

StartChar: six
Encoding: 22 54 342
Width: 1414
VWidth: 0
GlyphClass: 2
Flags: W
PickledData: "(dp1
S'org.pippin.gimp.org.kernagic'
p2
(dp3
S'lstem'
p4
I0
sS'rstem'
p5
I0
ssS'com.typemytype.robofont.layerData'
p6
(dp7
sS'org.robofab.postScriptHintData'
p8
(dp9
s."
LayerCount: 2
Fore
SplineSet
698 260 m 256
 602 260 538 334 538 464 c 256
 538 591 589 683 697 683 c 256
 794 683 857 601 857 463 c 256
 857 333 793 260 698 260 c 256
696 -20 m 256
 1062 -20 1277 166 1277 449 c 256
 1277 781 1029 900 828 900 c 256
 778 900 729 888 688 874 c 257
 841 1048 978 1238 1122 1422 c 257
 1122 1456 l 257
 659 1456 l 257
 254 863 l 258
 175 746 118 634 118 473 c 256
 118 177 330 -20 696 -20 c 256
EndSplineSet
EndChar

StartChar: slash
Encoding: 15 47 343
Width: 1036
VWidth: 0
GlyphClass: 2
Flags: W
PickledData: "(dp1
S'org.pippin.gimp.org.kernagic'
p2
(dp3
S'lstem'
p4
I0
sS'rstem'
p5
I0
ssS'com.typemytype.robofont.layerData'
p6
(dp7
S'b'
(dp8
S'name'
p9
S'slash'
p10
sS'lib'
p11
(dp12
sS'unicodes'
p13
(tsS'width'
p14
I965
sS'contours'
p15
(tsS'components'
p16
(tsS'anchors'
p17
(tsssS'org.robofab.postScriptHintData'
p18
(dp19
s."
LayerCount: 2
Fore
SplineSet
37 -195 m 257
 272 -195 l 257
 936 1560 l 257
 697 1560 l 257
 37 -195 l 257
EndSplineSet
EndChar

StartChar: slashbar
Encoding: 65543 -1 344
Width: 153
VWidth: 0
GlyphClass: 4
Flags: W
PickledData: "(dp1
S'org.pippin.gimp.org.kernagic'
p2
(dp3
S'lstem'
p4
I0
sS'rstem'
p5
I0
ssS'com.typemytype.robofont.layerData'
p6
(dp7
S'b'
(dp8
S'name'
p9
S'slashbar'
p10
sS'lib'
p11
(dp12
sS'unicodes'
p13
(tsS'width'
p14
I908
sS'contours'
p15
(tsS'components'
p16
(tsS'anchors'
p17
(tsssS'org.robofab.postScriptHintData'
p18
(dp19
s."
LayerCount: 2
Fore
SplineSet
127 434 m 257
 830 631 l 257
 830 909 l 257
 127 710 l 257
 127 434 l 257
EndSplineSet
EndChar

StartChar: sterling
Encoding: 98 163 346
Width: 1243
VWidth: 0
GlyphClass: 2
Flags: W
PickledData: "(dp1
S'org.pippin.gimp.org.kernagic'
p2
(dp3
S'lstem'
p4
I0
sS'rstem'
p5
I0
ssS'com.typemytype.robofont.layerData'
p6
(dp7
S'b'
(dp8
S'name'
p9
S'sterling'
p10
sS'lib'
p11
(dp12
sS'unicodes'
p13
(tsS'width'
p14
I1136
sS'contours'
p15
((dp16
S'points'
p17
((dp18
S'segmentType'
p19
S'line'
p20
sS'x'
I20
sS'smooth'
p21
I00
sS'y'
I0
s(dp22
g19
S'line'
p23
sS'x'
I8
sg21
I00
sS'y'
I115
s(dp24
g19
S'line'
p25
sS'x'
I180
sg21
I00
sS'y'
I132
s(dp26
g19
S'line'
p27
sS'x'
I180
sg21
I00
sS'y'
I683
s(dp28
g19
S'line'
p29
sS'x'
I8
sg21
I00
sS'y'
I683
s(dp30
g19
S'line'
p31
sS'x'
I8
sg21
I00
sS'y'
I806
s(dp32
g19
S'line'
p33
sS'x'
I180
sg21
I00
sS'y'
I806
s(dp34
g19
S'line'
p35
sS'x'
I180
sg21
I01
sS'y'
I920
s(dp36
S'y'
I1183
sS'x'
I180
sg21
I00
s(dp37
S'y'
I1476
sS'x'
I245
sg21
I00
s(dp38
g19
S'curve'
p39
sS'x'
I598
sg21
I01
sS'y'
I1476
s(dp40
S'y'
I1476
sS'x'
I742
sg21
I00
s(dp41
S'y'
I1421
sS'x'
I854
sg21
I00
s(dp42
g19
S'curve'
p43
sS'x'
I939
sg21
I00
sS'y'
I1347
s(dp44
g19
S'line'
p45
sS'x'
I871
sg21
I00
sS'y'
I1229
s(dp46
S'y'
I1297
sS'x'
I785
sg21
I00
s(dp47
S'y'
I1334
sS'x'
I700
sg21
I00
s(dp48
g19
S'curve'
p49
sS'x'
I598
sg21
I01
sS'y'
I1334
s(dp50
S'y'
I1334
sS'x'
I397
sg21
I00
s(dp51
S'y'
I1179
sS'x'
I356
sg21
I00
s(dp52
g19
S'curve'
p53
sS'x'
I356
sg21
I01
sS'y'
I949
s(dp54
g19
S'line'
p55
sS'x'
I356
sg21
I00
sS'y'
I806
s(dp56
g19
S'line'
p57
sS'x'
I739
sg21
I00
sS'y'
I806
s(dp58
g19
S'line'
p59
sS'x'
I739
sg21
I00
sS'y'
I683
s(dp60
g19
S'line'
p61
sS'x'
I356
sg21
I00
sS'y'
I683
s(dp62
g19
S'line'
p63
sS'x'
I356
sg21
I00
sS'y'
I134
s(dp64
g19
S'line'
p65
sS'x'
I953
sg21
I00
sS'y'
I134
s(dp66
g19
S'line'
p67
sS'x'
I940
sg21
I00
sS'y'
I0
stp68
stp69
sS'components'
p70
(tsS'anchors'
p71
(tsssS'org.robofab.postScriptHintData'
p72
(dp73
s."
LayerCount: 2
Fore
SplineSet
1066 1209 m 257
 1193 1450 l 257
 1169 1466 1004 1574 765 1574 c 256
 415 1574 280 1367 280 988 c 258
 280 889 l 257
 89 889 l 257
 89 661 l 257
 280 661 l 257
 280 281 l 257
 101 257 l 257
 111 0 l 257
 1164 0 l 257
 1167 283 l 257
 692 283 l 257
 692 661 l 257
 979 661 l 257
 979 889 l 257
 692 889 l 257
 692 1066 l 258
 692 1187 755 1251 858 1251 c 258
 863 1251 l 258
 906 1251 971 1238 1043 1209 c 257
 1066 1209 l 257
EndSplineSet
EndChar

StartChar: summation
Encoding: 470 8721 347
Width: 1240
VWidth: 0
GlyphClass: 2
Flags: W
PickledData: "(dp1
S'org.pippin.gimp.org.kernagic'
p2
(dp3
S'lstem'
p4
I0
sS'rstem'
p5
I0
ssS'com.typemytype.robofont.layerData'
p6
(dp7
S'b'
(dp8
S'name'
p9
S'summation'
p10
sS'lib'
p11
(dp12
sS'unicodes'
p13
(tsS'width'
p14
I1050
sS'contours'
p15
(tsS'components'
p16
(tsS'anchors'
p17
(tsssS'org.robofab.postScriptHintData'
p18
(dp19
s."
LayerCount: 2
Fore
SplineSet
68 1456 m 257
 68 1194 l 257
 561 563 l 257
 67 -39 l 257
 67 -296 l 257
 1168 -296 l 257
 1168 7 l 257
 473 7 l 257
 971 587 l 257
 552 1157 l 257
 1139 1157 l 257
 1139 1456 l 257
 68 1456 l 257
EndSplineSet
EndChar

StartChar: t
Encoding: 84 116 348
Width: 926
VWidth: 0
GlyphClass: 2
Flags: W
PickledData: "(dp1
S'org.pippin.gimp.org.kernagic'
p2
(dp3
S'lstem'
p4
I189
sS'rstem'
p5
I480
ssS'com.fontlab.hintData'
p6
(dp7
S'vhints'
p8
((dp9
S'position'
p10
I244
sS'width'
p11
I122
s(dp12
g10
I286
sg11
I80
stp13
sS'hhints'
p14
((dp15
g10
I-11
sg11
I83
stp16
ssS'com.typemytype.robofont.layerData'
p17
(dp18
sS'org.robofab.postScriptHintData'
p19
(dp20
s."
HStem: -11 83
VStem: 244 122 286 80
AnchorPoint: "bot" 527 0 basechar 0
AnchorPoint: "top" 456 1306 basechar 0
LayerCount: 2
Fore
SplineSet
652 -10 m 257
 901 -1 l 257
 912 262 l 257
 736 269 l 258
 627 274 590 329 590 432 c 258
 590 848 l 257
 878 848 l 257
 878 1082 l 257
 590 1082 l 257
 590 1430 l 257
 212 1400 l 257
 195 1086 l 257
 33 1063 l 257
 24 848 l 257
 184 848 l 257
 184 448 l 258
 184 158 238 -10 652 -10 c 257
EndSplineSet
EndChar

StartChar: thorn
Encoding: 189 254 352
Width: 1081
VWidth: 0
GlyphClass: 2
Flags: W
PickledData: "(dp1
S'org.pippin.gimp.org.kernagic'
p2
(dp3
S'lstem'
p4
I0
sS'rstem'
p5
I0
ssS'com.typemytype.robofont.layerData'
p6
(dp7
S'b'
(dp8
S'name'
p9
S'thorn'
p10
sS'lib'
p11
(dp12
sS'unicodes'
p13
(tsS'width'
p14
I1221
sS'contours'
p15
(tsS'components'
p16
(tsS'anchors'
p17
(tsssS'org.robofab.postScriptHintData'
p18
(dp19
s."
LayerCount: 2
Fore
SplineSet
210 650 m 257
 210 -416 l 257
 619 -416 l 257
 619 650 l 257
 210 650 l 257
EndSplineSet
Refer: 153 98 N 1 0 0 1 94 0 2
EndChar

StartChar: three
Encoding: 19 51 353
Width: 1219
VWidth: 0
GlyphClass: 2
Flags: W
PickledData: "(dp1
S'org.pippin.gimp.org.kernagic'
p2
(dp3
S'lstem'
p4
I0
sS'rstem'
p5
I0
ssS'com.typemytype.robofont.layerData'
p6
(dp7
sS'org.robofab.postScriptHintData'
p8
(dp9
s."
LayerCount: 2
Fore
SplineSet
680 444 m 256
 680 353 637 282 501 282 c 256
 348 282 256 361 209 398 c 257
 179 398 l 257
 26 183 l 257
 34 177 200 -20 539 -20 c 256
 793 -20 1122 72 1122 427 c 256
 1122 552 1049 718 787 750 c 257
 1047 795 1079 967 1079 1094 c 257
 1071 1377 827 1476 519 1476 c 256
 245 1476 116 1342 45 1274 c 257
 221 1071 l 257
 242 1064 l 257
 323 1131 399 1163 487 1168 c 257
 601 1168 659 1130 667 1029 c 257
 667 873 591 837 368 837 c 257
 251 835 l 257
 271 603 l 257
 373 603 l 258
 554 603 680 588 680 444 c 256
EndSplineSet
EndChar

StartChar: threequarters
Encoding: 125 190 354
Width: 1832
VWidth: 0
GlyphClass: 3
Flags: W
PickledData: "(dp1
S'org.pippin.gimp.org.kernagic'
p2
(dp3
S'lstem'
p4
I0
sS'rstem'
p5
I0
ssS'com.typemytype.robofont.layerData'
p6
(dp7
sS'org.robofab.postScriptHintData'
p8
(dp9
s."
LayerCount: 2
Fore
SplineSet
336 620 m 256
 530 620 700 710 700 898 c 256
 700 993 648 1090 546 1107 c 257
 651 1125 680 1210 682 1289 c 256
 682 1460 544 1522 386 1522 c 256
 271 1522 147 1490 54 1437 c 257
 115 1303 l 257
 189 1343 275 1364 343 1364 c 256
 427 1364 492 1336 492 1265 c 256
 492 1212 489 1180 346 1180 c 258
 217 1180 l 257
 217 1025 l 257
 352 1027 l 258
 471 1027 513 976 513 909 c 256
 513 819 424 780 326 780 c 256
 247 780 152 817 108 850 c 257
 41 690 l 257
 131 643 236 620 336 620 c 256
1231 323 m 257
 1428 629 l 257
 1428 323 l 257
 1231 323 l 257
328 0 m 257
 580 0 l 257
 1600 1516 l 257
 1358 1516 l 257
 328 0 l 257
1427 0 m 257
 1614 0 l 257
 1614 174 l 257
 1740 174 l 257
 1746 323 l 257
 1613 323 l 257
 1613 882 l 257
 1417 882 l 257
 1053 325 l 257
 1053 174 l 257
 1427 174 l 257
 1427 0 l 257
EndSplineSet
Ligature2: "fracDiagonalFractionslookup11 subtable" three slash four
EndChar

StartChar: tilde
Encoding: 405 732 355
Width: 965
VWidth: 0
GlyphClass: 4
Flags: W
PickledData: "(dp1
S'org.robofab.postScriptHintData'
p2
(dp3
sS'com.fontlab.hintData'
p4
(dp5
S'vhints'
p6
((dp7
S'position'
p8
I169
sS'width'
p9
I63
s(dp10
g8
I657
sg9
I67
stp11
sS'hhints'
p12
((dp13
g8
I1301
sg9
I88
s(dp14
g8
I1400
sg9
I79
stp15
ssS'com.typemytype.robofont.layerData'
p16
(dp17
s."
HStem: 1301 88 1400 79
VStem: 169 63 657 67
AnchorPoint: "top" 482 1085 mark 0
LayerCount: 2
Fore
SplineSet
140 1243 m 257
 297 1243 l 257
 316 1317 339 1342 374 1342 c 256
 439 1342 531 1243 646 1243 c 256
 820 1243 861 1423 861 1530 c 257
 705 1530 l 257
 688 1469 669 1450 643 1450 c 256
 589 1450 509 1531 365 1531 c 256
 182 1531 140 1360 140 1243 c 257
EndSplineSet
EndChar

StartChar: trademark
Encoding: 463 8482 356
Width: 2005
VWidth: 0
GlyphClass: 2
Flags: W
PickledData: "(dp1
S'org.robofab.postScriptHintData'
p2
(dp3
sS'com.typemytype.robofont.layerData'
p4
(dp5
S'b'
(dp6
S'name'
p7
S'trademark'
p8
sS'lib'
p9
(dp10
sS'unicodes'
p11
(tsS'width'
p12
I2216
sS'contours'
p13
(tsS'components'
p14
(tsS'anchors'
p15
(tsss."
LayerCount: 2
Fore
SplineSet
326 521 m 257
 552 521 l 257
 552 1284 l 257
 790 1284 l 257
 790 1456 l 257
 87 1456 l 257
 87 1284 l 257
 326 1284 l 257
 326 521 l 257
885 521 m 257
 1102 521 l 257
 1124 1034 l 257
 1343 588 l 257
 1445 588 l 257
 1665 1036 l 257
 1687 521 l 257
 1903 521 l 257
 1882 1456 l 257
 1656 1456 l 257
 1395 904 l 257
 1131 1456 l 257
 906 1456 l 257
 885 521 l 257
EndSplineSet
EndChar

StartChar: two
Encoding: 18 50 357
Width: 1414
VWidth: 0
GlyphClass: 2
Flags: W
PickledData: "(dp1
S'org.pippin.gimp.org.kernagic'
p2
(dp3
S'lstem'
p4
I0
sS'rstem'
p5
I0
ssS'com.typemytype.robofont.layerData'
p6
(dp7
sS'org.robofab.postScriptHintData'
p8
(dp9
s."
LayerCount: 2
Fore
SplineSet
321 979 m 257
 413 1091 555 1173 692 1173 c 256
 791 1173 850 1100 850 1010 c 256
 850 950 814 873 738 799 c 258
 196 265 l 257
 261 0 l 257
 1221 0 l 257
 1231 279 l 257
 685 279 l 257
 967 545 l 258
 1169 734 1239 884 1239 1000 c 256
 1239 1206 1140 1476 695 1476 c 256
 412 1476 214 1315 102 1177 c 257
 293 979 l 257
 321 979 l 257
EndSplineSet
EndChar

StartChar: u
Encoding: 85 117 358
Width: 1285
VWidth: 0
GlyphClass: 2
Flags: W
PickledData: "(dp1
S'org.pippin.gimp.org.kernagic'
p2
(dp3
S'lstem'
p4
I0
sS'rstem'
p5
I0
ssS'com.fontlab.hintData'
p6
(dp7
S'vhints'
p8
((dp9
S'position'
p10
I162
sS'width'
p11
I166
s(dp12
g10
I862
sg11
I166
stp13
sS'hhints'
p14
((dp15
g10
I-21
sg11
I126
stp16
ssS'com.typemytype.robofont.layerData'
p17
(dp18
sS'org.robofab.postScriptHintData'
p19
(dp20
s."
HStem: -21 126
VStem: 162 166 862 166
AnchorPoint: "bot" 660 0 basechar 0
AnchorPoint: "top" 638 1082 basechar 0
LayerCount: 2
Fore
SplineSet
750 307 m 257
 721 269 682 238 629 238 c 256
 561 238 521 277 521 468 c 258
 521 1082 l 257
 108 1082 l 257
 108 410 l 258
 108 148 234 -20 473 -20 c 256
 649 -20 740 73 788 170 c 257
 808 0 l 257
 1164 0 l 257
 1164 1082 l 257
 750 1082 l 257
 750 307 l 257
EndSplineSet
EndChar

StartChar: underscore
Encoding: 63 95 366
Width: 1030
VWidth: 0
GlyphClass: 2
Flags: W
PickledData: "(dp1
S'org.pippin.gimp.org.kernagic'
p2
(dp3
S'lstem'
p4
I0
sS'rstem'
p5
I0
ssS'com.typemytype.robofont.layerData'
p6
(dp7
sS'org.robofab.postScriptHintData'
p8
(dp9
s."
LayerCount: 2
Fore
SplineSet
0 -295 m 257
 1030 -295 l 257
 1030 -75 l 257
 0 -75 l 257
 0 -295 l 257
EndSplineSet
EndChar

StartChar: uni00AD
Encoding: 108 173 369
Width: 1114
VWidth: 0
GlyphClass: 2
Flags: W
PickledData: "(dp1
S'org.robofab.postScriptHintData'
p2
(dp3
s."
LayerCount: 2
Fore
SplineSet
229 -33 m 257
 871 -33 l 257
 871 229 l 257
 229 229 l 257
 229 -33 l 257
EndSplineSet
EndChar

StartChar: uni00B2
Encoding: 113 178 370
Width: 864
VWidth: 0
GlyphClass: 2
Flags: W
PickledData: "(dp1
S'org.robofab.postScriptHintData'
p2
(dp3
sS'com.typemytype.robofont.layerData'
p4
(dp5
s."
LayerCount: 2
Fore
SplineSet
158 577 m 257
 730 577 l 257
 752 753 l 257
 477 753 l 257
 614 873 534 779 643 887 c 256
 703 949 752 1067 752 1177 c 256
 752 1363 605 1472 471 1472 c 256
 344 1472 244 1433 181 1342 c 257
 267 1195 l 257
 306 1251 380 1281 443 1281 c 256
 484 1281 542 1240 542 1171 c 256
 542 1144 477 1060 477 1046 c 257
 253 796 248 845 158 751 c 257
 158 577 l 257
EndSplineSet
EndChar

StartChar: uni00B3
Encoding: 114 179 371
Width: 885
VWidth: 0
GlyphClass: 2
Flags: W
PickledData: "(dp1
S'org.robofab.postScriptHintData'
p2
(dp3
sS'com.typemytype.robofont.layerData'
p4
(dp5
s."
LayerCount: 2
Fore
SplineSet
429 563 m 256
 622 563 792 654 792 844 c 256
 792 937 741 1035 639 1053 c 257
 746 1072 770 1161 772 1236 c 256
 772 1406 635 1469 479 1469 c 256
 366 1469 245 1437 152 1385 c 257
 214 1249 l 257
 290 1288 374 1307 436 1307 c 256
 517 1307 579 1279 579 1210 c 256
 579 1158 574 1127 436 1127 c 258
 311 1127 l 257
 311 968 l 257
 433 970 l 257
 444 970 l 258
 562 970 601 922 601 854 c 256
 601 763 515 726 420 726 c 256
 347 726 262 751 206 793 c 257
 140 631 l 257
 230 586 333 563 429 563 c 256
EndSplineSet
EndChar

StartChar: uni00B9
Encoding: 120 185 373
Width: 849
VWidth: 0
GlyphClass: 2
Flags: W
PickledData: "(dp1
S'org.robofab.postScriptHintData'
p2
(dp3
sS'com.typemytype.robofont.layerData'
p4
(dp5
s."
LayerCount: 2
Fore
SplineSet
228 532 m 257
 708 532 l 257
 708 723 l 257
 579 723 l 257
 579 1450 l 257
 406 1450 l 257
 384 1443 255 1361 208 1331 c 257
 208 1142 l 257
 220 1150 316 1203 349 1217 c 257
 349 723 l 257
 228 723 l 257
 228 532 l 257
208 1142 m 257
 208 1141 l 257
 207 1141 l 257
 208 1142 l 257
EndSplineSet
EndChar

StartChar: uni02C9
Encoding: 400 713 436
Width: 600
VWidth: 0
GlyphClass: 4
Flags: W
PickledData: "(dp1
S'org.robofab.postScriptHintData'
p2
(dp3
s."
AnchorPoint: "top" 286 1085 mark 0
LayerCount: 2
Fore
SplineSet
-85 1360 m 257
 665 1360 l 257
 665 1557 l 257
 -85 1557 l 257
 -85 1360 l 257
EndSplineSet
EndChar

StartChar: uni0307
Encoding: 407 775 437
Width: 695
VWidth: 0
GlyphClass: 4
Flags: W
PickledData: "(dp1
S'org.robofab.postScriptHintData'
p2
(dp3
sS'com.typemytype.robofont.layerData'
p4
(dp5
s."
LayerCount: 2
Fore
SplineSet
559 1457 m 256
 559 1572 478 1645 349 1645 c 256
 221 1645 138 1572 138 1457 c 256
 138 1336 221 1260 349 1260 c 256
 478 1260 559 1336 559 1457 c 256
EndSplineSet
EndChar

StartChar: uni2074
Encoding: 460 8308 456
Width: 683
VWidth: 0
GlyphClass: 2
Flags: W
PickledData: "(dp1
S'org.robofab.postScriptHintData'
p2
(dp3
sS'com.typemytype.robofont.layerData'
p4
(dp5
s."
LayerCount: 2
Fore
SplineSet
177 902 m 257
 328 1196 l 257
 329 902 l 257
 177 902 l 257
328 570 m 257
 516 570 l 257
 517 741 l 257
 606 741 l 257
 627 902 l 257
 515 902 l 257
 515 1450 l 257
 317 1450 l 257
 -34 910 l 257
 -34 741 l 257
 328 741 l 257
 328 570 l 257
EndSplineSet
EndChar

StartChar: afii61289
Encoding: 462 8467 457
Width: 1404
VWidth: 0
Flags: W
PickledData: "(dp1
S'org.robofab.postScriptHintData'
p2
(dp3
s."
LayerCount: 2
Fore
SplineSet
785 868 m 257
 909 1325 l 258
 939 1435 1004 1483 1067 1483 c 256
 1135 1483 1197 1427 1197 1333 c 256
 1197 1210 1115 1101 941 978 c 258
 785 868 l 257
1396 1330 m 256
 1396 1574 1190 1714 978 1714 c 256
 797 1714 614 1608 556 1396 c 258
 352 644 l 257
 62 438 l 257
 125 318 l 257
 297 438 l 257
 290 400 286 363 286 328 c 256
 286 42 500 -22 671 -22 c 256
 926 -22 1089 98 1089 98 c 257
 1058 326 l 257
 955 290 859 259 781 259 c 256
 720 259 677 282 677 352 c 256
 677 370 680 392 686 417 c 258
 749 672 l 257
 1032 865 l 258
 1291 1042 1396 1120 1396 1330 c 256
EndSplineSet
EndChar

StartChar: Delta
Encoding: 468 8710 459
Width: 1347
VWidth: 0
Flags: W
PickledData: "(dp1
S'org.pippin.gimp.org.kernagic'
p2
(dp3
S'lstem'
p4
I0
sS'rstem'
p5
I0
ssS'com.typemytype.robofont.layerData'
p6
(dp7
S'b'
(dp8
S'name'
p9
S'uni2206'
p10
sS'lib'
p11
(dp12
sS'unicodes'
p13
(tsS'width'
p14
I1278
sS'contours'
p15
(tsS'components'
p16
(tsS'anchors'
p17
(tsssS'org.robofab.postScriptHintData'
p18
(dp19
s."
LayerCount: 2
Fore
SplineSet
659 1101 m 257
 964 240 l 257
 281 240 l 257
 589 1101 l 257
 625 1226 l 257
 659 1101 l 257
581 1604 m 257
 74 150 l 257
 74 0 l 257
 1281 0 l 257
 1281 150 l 257
 775 1604 l 257
 581 1604 l 257
EndSplineSet
EndChar

StartChar: v
Encoding: 86 118 470
Width: 1107
VWidth: 0
GlyphClass: 2
Flags: W
PickledData: "(dp1
S'org.pippin.gimp.org.kernagic'
p2
(dp3
S'lstem'
p4
I0
sS'rstem'
p5
I0
ssS'com.typemytype.robofont.guides'
p6
((dp7
S'y'
I552
sS'x'
I438
sS'magnetic'
p8
I5
sS'angle'
p9
I0
sS'isGlobal'
p10
I00
stp11
sS'com.typemytype.robofont.layerData'
p12
(dp13
sS'org.robofab.postScriptHintData'
p14
(dp15
s."
LayerCount: 2
Fore
SplineSet
354 0 m 257
 763 0 l 257
 1117 1082 l 257
 704 1082 l 257
 605 618 l 257
 576 448 l 257
 526 664 467 871 412 1082 c 257
 -11 1082 l 257
 354 0 l 257
EndSplineSet
EndChar

StartChar: w
Encoding: 87 119 471
Width: 1651
VWidth: 0
GlyphClass: 2
Flags: W
PickledData: "(dp1
S'org.pippin.gimp.org.kernagic'
p2
(dp3
S'lstem'
p4
I0
sS'rstem'
p5
I0
ssS'com.typemytype.robofont.layerData'
p6
(dp7
sS'org.robofab.postScriptHintData'
p8
(dp9
s."
AnchorPoint: "top" 847 1082 basechar 0
LayerCount: 2
Fore
SplineSet
842 661 m 257
 973 -7 l 257
 1360 -7 l 257
 1639 1082 l 257
 1294 1082 l 257
 1171 405 l 257
 1028 1082 l 257
 670 1082 l 257
 491 383 l 257
 391 1082 l 257
 12 1082 l 257
 277 -7 l 257
 643 -7 l 257
 842 661 l 257
EndSplineSet
EndChar

StartChar: x
Encoding: 88 120 476
Width: 1110
VWidth: 0
GlyphClass: 2
Flags: W
PickledData: "(dp1
S'org.pippin.gimp.org.kernagic'
p2
(dp3
S'lstem'
p4
I0
sS'rstem'
p5
I0
ssS'com.fontlab.hintData'
p6
(dp7
S'hhints'
p8
((dp9
S'position'
p10
I0
sS'width'
p11
I22
s(dp12
g10
I1034
sg11
I21
stp13
ssS'com.typemytype.robofont.layerData'
p14
(dp15
sS'org.robofab.postScriptHintData'
p16
(dp17
s."
HStem: 0 22 1034 21
LayerCount: 2
Fore
SplineSet
777 543 m 257
 1110 1082 l 257
 734 1082 l 257
 580 844 l 257
 424 1082 l 257
 -4 1082 l 257
 347 542 l 257
 -21 -7 l 257
 363 -7 l 257
 542 243 l 257
 704 -7 l 257
 1138 -7 l 257
 777 543 l 257
EndSplineSet
EndChar

StartChar: y
Encoding: 89 121 477
Width: 1137
VWidth: 0
GlyphClass: 2
Flags: W
PickledData: "(dp1
S'org.pippin.gimp.org.kernagic'
p2
(dp3
S'lstem'
p4
I0
sS'rstem'
p5
I0
ssS'com.typemytype.robofont.layerData'
p6
(dp7
sS'org.robofab.postScriptHintData'
p8
(dp9
s."
AnchorPoint: "top" 543 1082 basechar 0
LayerCount: 2
Fore
SplineSet
1172 1082 m 257
 792 1082 l 257
 576 553 l 257
 347 1082 l 257
 -50 1082 l 257
 373 183 l 257
 136 -332 l 257
 460 -465 l 257
 1172 1082 l 257
EndSplineSet
EndChar

StartChar: yen
Encoding: 100 165 481
Width: 1343
VWidth: 0
GlyphClass: 2
Flags: W
PickledData: "(dp1
S'org.pippin.gimp.org.kernagic'
p2
(dp3
S'lstem'
p4
I0
sS'rstem'
p5
I0
ssS'com.typemytype.robofont.layerData'
p6
(dp7
S'b'
(dp8
S'name'
p9
S'yen'
p10
sS'lib'
p11
(dp12
sS'unicodes'
p13
(tsS'width'
p14
I1366
sS'contours'
p15
(tsS'components'
p16
(tsS'anchors'
p17
(tsssS'org.robofab.postScriptHintData'
p18
(dp19
s."
LayerCount: 2
Fore
SplineSet
162 541 m 257
 1152 541 l 257
 1152 692 l 257
 162 692 l 257
 162 541 l 257
162 234 m 257
 1152 234 l 257
 1152 385 l 257
 162 385 l 257
 162 234 l 257
EndSplineSet
Refer: 122 89 N 1 0 0 1 0 0 2
EndChar

StartChar: z
Encoding: 90 122 483
Width: 941
VWidth: 0
GlyphClass: 2
Flags: W
PickledData: "(dp1
S'org.pippin.gimp.org.kernagic'
p2
(dp3
S'lstem'
p4
I0
sS'rstem'
p5
I0
ssS'com.typemytype.robofont.layerData'
p6
(dp7
sS'org.robofab.postScriptHintData'
p8
(dp9
s."
AnchorPoint: "bot" 516 0 basechar 0
AnchorPoint: "top" 465 1082 basechar 0
LayerCount: 2
Fore
SplineSet
56 1082 m 257
 47 846 l 257
 468 846 l 257
 55 159 l 257
 55 0 l 257
 926 0 l 257
 937 246 l 257
 511 246 l 257
 903 908 l 257
 903 1082 l 257
 56 1082 l 257
EndSplineSet
EndChar

StartChar: zero
Encoding: 16 48 487
Width: 1414
VWidth: 0
GlyphClass: 2
Flags: W
PickledData: "(dp1
S'org.pippin.gimp.org.kernagic'
p2
(dp3
S'lstem'
p4
I0
sS'rstem'
p5
I0
ssS'com.typemytype.robofont.layerData'
p6
(dp7
S'b'
(dp8
S'name'
p9
S'zero'
p10
sS'lib'
p11
(dp12
sS'unicodes'
p13
(tsS'width'
p14
I1248
sS'contours'
p15
(tsS'components'
p16
(tsS'anchors'
p17
(tsssS'org.robofab.postScriptHintData'
p18
(dp19
s."
LayerCount: 2
Fore
SplineSet
706 -20 m 256
 1092 -20 1348 272 1348 736 c 256
 1348 1192 1095 1476 706 1476 c 256
 317 1476 66 1192 66 736 c 256
 66 272 320 -20 706 -20 c 256
706 286 m 256
 596 286 527 471 527 735 c 257
 532 997 601 1168 706 1168 c 256
 816 1168 886 993 886 735 c 256
 886 471 816 286 706 286 c 256
EndSplineSet
EndChar

StartChar: Sigma
Encoding: 414 931 491
Width: 1240
VWidth: 0
GlyphClass: 2
Flags: HW
LayerCount: 2
Fore
SplineSet
68 1456 m 257
 68 1194 l 257
 561 563 l 257
 67 -39 l 257
 67 -296 l 257
 1168 -296 l 257
 1168 7 l 257
 473 7 l 257
 971 587 l 257
 552 1157 l 257
 1139 1157 l 257
 1139 1456 l 257
 68 1456 l 257
EndSplineSet
EndChar

StartChar: uni03BC
Encoding: 416 956 492
Width: 1288
VWidth: 0
GlyphClass: 2
Flags: HW
LayerCount: 2
Fore
SplineSet
1172 0 m 257
 1172 1082 l 257
 758 1082 l 257
 758 307 l 257
 729 269 690 238 637 238 c 256
 569 238 529 277 529 468 c 258
 529 1082 l 257
 116 1082 l 257
 117 -340 l 257
 529 -340 l 257
 529 -18 l 257
 674 -2 753 82 796 170 c 257
 816 0 l 257
 1172 0 l 257
EndSplineSet
EndChar

StartChar: emptyset
Encoding: 467 8709 493
Width: 1678
VWidth: 0
GlyphClass: 2
Flags: HW
LayerCount: 2
Fore
SplineSet
82 733 m 0
 82 1166.80946597 442.209815076 1503 832 1503 c 0
 1004.35045892 1503 1170.57714551 1436.64052905 1301.24586005 1328.04368449 c 1
 1477.31911498 1526.00175077 l 1
 1561.72644822 1459.84465174 l 1
 1377.81237312 1254.59247954 l 1
 1502.33292724 1118.61178229 1582 936.912646963 1582 733 c 0
 1582 299.19053403 1221.79018492 -37 832 -37 c 0
 663.65585325 -37 500.761436846 26.9147562655 372.039708811 130.364524004 c 1
 179.247127373 -85.5230020853 l 1
 102.837527348 -16.2768020626 l 1
 295.927129296 200.949000129 l 1
 164.973700487 338.946971454 82 524.061830571 82 733 c 0
441.111982555 207.214092897 m 1
 554.498441307 117.634669994 690.831108418 67 832 67 c 0
 1166.18355854 67 1479 357.798552711 1479 733 c 0
 1479 906.120869845 1412.2075901 1060.43924838 1308.46052089 1177.50069952 c 1
 441.111982555 207.214092897 l 1
364.99056526 277.958566548 m 1
 1232.31455449 1251.19340595 l 1
 1118.11103474 1345.21012056 977.209135989 1399 832 1399 c 0
 497.816441459 1399 185 1108.20144729 185 733 c 0
 185 554.760063962 255.941876746 395.12530095 364.99056526 277.958566548 c 1
EndSplineSet
EndChar

StartChar: uni03A9
Encoding: 415 937 494
Width: 1758
VWidth: 0
GlyphClass: 2
Flags: HW
LayerCount: 2
Fore
SplineSet
103 0 m 257
 793 0 l 257
 793 243 l 257
 600 358 505 563 505 749 c 256
 505 963 630 1151 879 1151 c 256
 1127 1151 1254 962 1254 749 c 256
 1254 563 1158 359 965 243 c 257
 965 0 l 257
 1655 0 l 257
 1655 243 l 257
 1194 243 l 257
 1208 121 l 257
 1505 263 1649 532 1649 794 c 256
 1649 1149 1386 1491 879 1491 c 256
 374 1491 108 1148 108 792 c 256
 108 531 252 263 550 121 c 257
 564 243 l 257
 103 243 l 257
 103 0 l 257
EndSplineSet
EndChar

StartChar: uni0358
Encoding: 412 856 495
Width: 695
VWidth: 0
GlyphClass: 4
Flags: HW
LayerCount: 2
Fore
SplineSet
559 1457 m 256
 559 1572 478 1645 349 1645 c 256
 221 1645 138 1572 138 1457 c 256
 138 1336 221 1260 349 1260 c 256
 478 1260 559 1336 559 1457 c 256
EndSplineSet
EndChar
